<?xml version="1.0" encoding="UTF-8"?>
<!DOCTYPE svg PUBLIC "-//W3C//DTD SVG 1.1//EN" "http://www.w3.org/Graphics/SVG/1.1/DTD/svg11.dtd">
<svg version="1.2" xmlns="http://www.w3.org/2000/svg" xmlns:xlink="http://www.w3.org/1999/xlink" x="0" y="0" width="776" height="260" viewBox="0 0 776 260">
<style type="text/css"><![CDATA[
text { font:12px Dialog; }
]]></style>
<rect x="-1070" y="-1103" width="3464" height="2460" style="fill:rgb(255,255,255);stroke:none" />
<rect x="-1070" y="-1103" width="3464" height="2460" style="fill:rgb(255,255,255);opacity:0.5098039215686274;stroke:none" />
<clipPath id="clip1"><path d="M25,15 L757,15 L757,245 L25,245 Z M33,101 C28.5817184,101 25,104.5817184 25,109 L25,157 C25,161.4182739 28.5817184,165 33,165 L207,165 C211.4182739,165 215,161.4182739 215,157 L215,109 C215,104.5817184 211.4182739,101 207,101 Z" /></clipPath>
<path d="M225,133 L225,52.7035141 C225,48.2875214 228.5839996,44.7035141 233,44.7035141 L248,44.7035141" style="fill:none;stroke:rgb(1,124,152);stroke-width:2" clip-path="url(#clip1)" />
<clipPath id="clip2"><path d="M25,15 L757,15 L757,245 L25,245 Z M33,101 C28.5817184,101 25,104.5817184 25,109 L25,157 C25,161.4182739 28.5817184,165 33,165 L207,165 C211.4182739,165 215,161.4182739 215,157 L215,109 C215,104.5817184 211.4182739,101 207,101 Z" /></clipPath>
<path d="M225,133 L225,114.6600037 C225,110.2440033 228.5839996,106.6600037 233,106.6600037 L248,106.6600037" style="fill:none;stroke:rgb(0,178,161);stroke-width:2" clip-path="url(#clip2)" />
<clipPath id="clip3"><path d="M25,15 L757,15 L757,245 L25,245 Z M33,101 C28.5817184,101 25,104.5817184 25,109 L25,157 C25,161.4182739 28.5817184,165 33,165 L207,165 C211.4182739,165 215,161.4182739 215,157 L215,109 C215,104.5817184 211.4182739,101 207,101 Z" /></clipPath>
<path d="M225,133 L225,160.6600037 C225,165.076004 228.5839996,168.6600037 233,168.6600037 L248,168.6600037" style="fill:none;stroke:rgb(255,221,0);stroke-width:2" clip-path="url(#clip3)" />
<clipPath id="clip4"><path d="M25,15 L757,15 L757,245 L25,245 Z M33,101 C28.5817184,101 25,104.5817184 25,109 L25,157 C25,161.4182739 28.5817184,165 33,165 L207,165 C211.4182739,165 215,161.4182739 215,157 L215,109 C215,104.5817184 211.4182739,101 207,101 Z" /></clipPath>
<path d="M225,133 L225,214.6582947 C225,219.074295 228.5839996,222.6582947 233,222.6582947 L248,222.6582947" style="fill:none;stroke:rgb(252,143,0);stroke-width:2" clip-path="url(#clip4)" />
<clipPath id="clip5"><path d="M24,14 L758,14 L758,246 L24,246 L24,14 Z" /></clipPath>
<path d="M215,133 L225,133" style="fill:none;stroke:rgb(195,102,79);stroke-width:2" clip-path="url(#clip5)" />
<clipPath id="clip6"><path d="M24,100 L217,100 L217,167 L24,167 L24,100 Z" /></clipPath>
<path d="M33,101 C28.5817184,101 25,104.5817184 25,109 L25,157 C25,161.4182739 28.5817184,165 33,165 L207,165 C211.4182739,165 215,161.4182739 215,157 L215,109 C215,104.5817184 211.4182739,101 207,101 Z" style="fill:rgb(200,20,53);stroke:none" clip-path="url(#clip6)" />
<clipPath id="clip7"><path d="M55,115 L186,115 L186,152 L55,152 L55,115 Z" /></clipPath>
<path d="M64.1692581,131.390625 L71.9036331,131.390625 L72.349678,130.078125 L67.4512405,130.078125 L68.6937943,126.421875 L63.7484818,126.421875 L64.6724319,123.703125 L69.6177444,123.703125 L70.1753006,122.0625 L73.2221756,122.0625 L72.6646194,123.703125 L79.6724319,123.703125 L80.2299881,122.0625 L83.2768631,122.0625 L82.7193069,123.703125 L87.5943069,123.703125 L86.6703568,126.421875 L81.7953568,126.421875 L80.552803,130.078125 L75.630928,130.078125 L75.1848831,131.390625 L82.9192581,131.390625 L80.7686844,137.71875 L73.0343094,137.71875 L72.5723343,139.078125 L82.4863968,139.078125 L81.5624466,141.796875 L71.6483841,141.796875 L70.5332718,145.078125 L67.2520218,145.078125 L68.3671341,141.796875 L58.4061966,141.796875 L59.3301468,139.078125 L69.2910843,139.078125 L69.7530594,137.71875 L62.0186844,137.71875 Z M78.2227859,127.96875 L78.7484818,126.421875 L71.7406693,126.421875 L71.2149734,127.96875 Z M65.893013,135.421875 L70.533638,135.421875 L71.1230545,133.6875 L66.4824295,133.6875 Z M78.455513,135.421875 L79.0449295,133.6875 L74.4043045,133.6875 L73.814888,135.421875 Z M88.8449173,126.609375 L94.6574173,126.609375 C94.31147,125.7421875 93.887886,124.8046875 93.3866653,123.796875 L96.6723099,121.921875 C97.0842972,122.640625 97.771492,123.8828125 98.7338943,125.6484375 L97.0480423,126.609375 L100.9152298,126.609375 C102.7047806,124.9296875 104.2879715,123.3515625 105.6648026,121.875 L108.4423294,123.6328125 L104.9113235,126.609375 L110.9699173,126.609375 L109.854805,129.890625 L87.729805,129.890625 Z M88.43293,133.4765625 L106.62043,133.4765625 L105.5212479,136.7109375 L87.3337479,136.7109375 Z M83.6917801,140.53125 L106.5433426,140.53125 L105.4123001,143.859375 L82.5607376,143.859375 Z M113.6247635,140.625 C115.7318192,140.171875 118.1234207,139.6171875 120.7995682,138.9609375 C120.3176346,140.1953125 119.8959427,141.3671875 119.5344925,142.4765625 C114.5640335,143.5390625 111.2926102,144.4296875 109.7202225,145.1484375 L108.722847,142.359375 C109.6286087,141.625 110.259407,140.734375 110.615242,139.6875 L115.8163528,124.3828125 C122.5897903,123.9921875 128.7055206,123.421875 134.1635284,122.671875 L135.1511993,125.765625 C133.1990356,126.015625 130.852356,126.265625 128.1111603,126.515625 C127.6588821,127.984375 127.1728592,129.6328125 126.6530838,131.4609375 L134.1530914,131.4609375 L133.0938263,134.578125 L125.8867874,134.578125 C124.8747025,139.234375 125.0795975,141.5625 126.5014725,141.5625 C126.80616,141.5625 127.1504593,141.2792969 127.5343704,140.7128906 C127.9182816,140.1464844 128.5891724,138.890625 129.5470734,136.9453125 C130.3765411,137.5390625 131.216629,138.1015625 132.067337,138.6328125 C131.2006226,140.171875 130.4372864,141.4238281 129.7773285,142.3886719 C129.1173401,143.3535156 128.4363708,144.046875 127.7344131,144.46875 C127.0324478,144.890625 126.2595901,145.1015625 125.4158401,145.1015625 C123.5330276,145.1015625 122.3510818,144.2519531 121.8700027,142.5527344 C121.3889236,140.8535156 121.5598831,138.1953125 122.3828812,134.578125 L115.6797562,134.578125 Z M124.5622025,126.8203125 L118.1568069,127.2890625 L116.7390213,131.4609375 L123.1960526,131.4609375 Z M145.1306305,127.125 L146.0386505,124.453125 L148.9449005,124.453125 C149.2097778,123.765625 149.490921,122.984375 149.7882843,122.109375 L152.9054565,122.109375 C152.6293335,122.921875 152.3482056,123.703125 152.0620728,124.453125 L157.3823853,124.453125 L155.3352661,130.4765625 C155.1228638,131.1015625 155.2276001,131.4140625 155.6494751,131.4140625 L155.8838501,131.4140625 C156.3057251,131.4140625 156.6619263,131.1015625 156.9524536,130.4765625 C157.3748169,129.6015625 157.7634277,128.7109375 158.1182861,127.8046875 C158.8345947,128.1796875 159.5980835,128.5078125 160.4087524,128.7890625 C159.8805542,129.9296875 159.3844604,130.9296875 158.9204712,131.7890625 C158.0663452,133.3828125 156.8345947,134.1796875 155.2252197,134.1796875 L153.8658447,134.1796875 C151.943985,134.1796875 151.3468018,133.109375 152.0743408,130.96875 L153.3806152,127.125 L150.919693,127.125 C149.6207428,129.84375 147.7526245,131.984375 145.3153839,133.546875 L148.5028839,133.546875 L147.8656769,135.421875 L157.5922241,135.421875 L156.6842041,138.09375 L148.5982819,138.09375 C150.1087646,139.671875 152.49646,140.921875 155.7613525,141.84375 C154.8696289,142.8125 154.0322876,143.828125 153.2493286,144.890625 C150.1535034,143.609375 147.8677368,141.8984375 146.3920441,139.7578125 L144.5362701,145.21875 L141.3487701,145.21875 L143.2045441,139.7578125 C140.4367218,141.6953125 136.9959106,143.40625 132.8821564,144.890625 C132.7316437,144 132.529129,143.1015625 132.2746124,142.1953125 C136.1206665,141.0390625 139.3743896,139.671875 142.0357819,138.09375 L134.1373444,138.09375 L135.0453644,135.421875 L144.6781769,135.421875 L145.3073273,133.5703125 C144.6902618,133.9609375 144.0158081,134.359375 143.2840118,134.765625 C142.8622437,133.9375 142.3725586,133.1484375 141.8149567,132.3984375 C144.8244781,130.9453125 146.8203278,129.1875 147.8025055,127.125 Z M142.6740875,128.8359375 C142.8098145,129.5859375 143.005249,130.3671875 143.2603912,131.1796875 C140.9240723,132.4453125 138.5717926,133.7578125 136.2035065,135.1171875 L135.634964,132.4453125 C137.7770386,131.4296875 140.1234283,130.2265625 142.6740875,128.8359375 Z M141.954483,121.78125 C143.2364502,122.46875 144.5023193,123.2265625 145.7520905,124.0546875 L143.4411163,126.234375 C142.3009644,125.359375 141.0772247,124.5234375 139.7698517,123.7265625 Z M139.3303986,125.2265625 C140.4667511,125.8828125 141.6312256,126.6171875 142.8238678,127.4296875 L140.520401,129.65625 C139.4630127,128.859375 138.3300934,128.078125 137.1215973,127.3125 Z M181.4221191,123.75 L180.5459595,126.328125 L177.7539673,128.578125 L182.593811,128.578125 L179.6307983,137.296875 L164.4432983,137.296875 L163.7423706,139.359375 C163.237854,140.84375 163.7512207,141.5859375 165.2824707,141.5859375 L174.7512207,141.5859375 C175.3918457,141.5859375 175.934845,141.4824219 176.3802185,141.2753906 C176.825592,141.0683594 177.1732178,140.7753906 177.4230957,140.3964844 C177.6729736,140.0175781 178.1871338,139.0390625 178.9655762,137.4609375 C180.1600342,137.9921875 181.0222778,138.3515625 181.5523071,138.5390625 C180.6668091,140.15625 179.961731,141.3574219 179.4370728,142.1425781 C178.9124146,142.9277344 178.1676331,143.5273438 177.2027283,143.9414063 C176.2378235,144.3554688 175.0600586,144.5625 173.6694336,144.5625 L163.2631836,144.5625 C160.1850586,144.5625 159.1345215,143.125 160.1115723,140.25 L163.1461792,131.3203125 C162.7802124,131.546875 162.4089966,131.765625 162.0325317,131.9765625 C161.8983765,130.9921875 161.6965332,130 161.427002,129 C165.1223145,127 168.2366333,124.640625 170.7699585,121.921875 L174.3150635,122.1796875 C173.845459,122.7109375 173.3590088,123.234375 172.8557129,123.75 Z M167.265686,128.578125 L173.8633423,128.578125 L176.5375977,126.3984375 L170.0219727,126.3984375 C169.1420898,127.1484375 168.2233276,127.875 167.265686,128.578125 Z M165.3513184,134.625 L169.6872559,134.625 L170.8342285,131.25 L166.498291,131.25 Z M177.2575684,134.625 L178.404541,131.25 L174.0686035,131.25 L172.9216309,134.625 Z" style="fill:rgb(255,255,255);stroke:none" clip-path="url(#clip7)" />
<clipPath id="clip8"><path d="M247,15 L493,15 L493,67 L247,67 Z M253,24 C250.2385712,24 248,26.2385712 248,29 L248,60 C248,62.7614288 250.2385712,65 253,65 L324,65 C326.7614136,65 329,62.7614288 329,60 L329,29 C329,26.2385712 326.7614136,24 324,24 Z" /></clipPath>
<path d="M342.9998169,44.7711411 L342.9998169,45 L351,45" style="fill:none;stroke:rgb(1,124,152);stroke-width:2" clip-path="url(#clip8)" />
<clipPath id="clip9"><path d="M246,14 L494,14 L494,68 L246,68 L246,14 Z" /></clipPath>
<path d="M329,44.7014923 L342.9998169,44.7711411" style="fill:none;stroke:rgb(1,124,152);stroke-width:2" clip-path="url(#clip9)" />
<clipPath id="clip10"><path d="M246,22 L332,22 L332,68 L246,68 L246,22 Z" /></clipPath>
<path d="M253,24 C250.2385712,24 248,26.2385712 248,29 L248,60 C248,62.7614288 250.2385712,65 253,65 L324,65 C326.7614136,65 329,62.7614288 329,60 L329,29 C329,26.2385712 326.7614136,24 324,24 Z" style="fill:rgb(255,255,255);stroke:none" clip-path="url(#clip10)" />
<clipPath id="clip11"><path d="M246,22 L332,22 L332,68 L246,68 L246,22 Z" /></clipPath>
<path d="M253,24 C250.2385712,24 248,26.2385712 248,29 L248,60 C248,62.7614288 250.2385712,65 253,65 L324,65 C326.7614136,65 329,62.7614288 329,60 L329,29 C329,26.2385712 326.7614136,24 324,24 Z" style="fill:none;stroke:rgb(1,124,152);stroke-width:2" clip-path="url(#clip11)" />
<clipPath id="clip12"><path d="M260,31 L318,31 L318,59 L260,59 L260,31 Z" /></clipPath>
<path d="M269.5327148,46.4858398 L278.2983398,46.4858398 L278.2983398,53.2260742 L277.003418,53.2260742 L277.003418,52.1967773 L270.8276367,52.1967773 L270.8276367,53.2260742 L269.5327148,53.2260742 Z M269.2006836,43.331543 L273.2514648,43.331543 L273.2514648,40.7416992 L268.652832,40.7416992 L268.652832,39.5463867 L273.2514648,39.5463867 L273.2514648,36.8901367 L274.5795898,36.8901367 L274.5795898,39.5463867 L279.2280273,39.5463867 L279.2280273,40.7416992 L274.5795898,40.7416992 L274.5795898,43.331543 L278.6469727,43.331543 L278.6469727,44.5268555 L269.2006836,44.5268555 Z M264.934082,46.8676758 C266.4060669,46.6573868 267.6235352,46.4692383 268.5864258,46.3032227 C268.5200195,46.7348633 268.4702148,47.1554337 268.4370117,47.5649414 C267.2084961,47.7420197 265.5317383,48.0021133 263.4067383,48.3452148 L263.1411133,47.1166992 C263.8494263,46.3806915 264.6933594,45.2130508 265.6728516,43.6137695 C264.7431641,43.6746368 263.899231,43.7355118 263.1411133,43.7963867 L262.8256836,42.6674805 C263.8439026,41.3061523 264.9008789,39.341629 265.996582,36.7739258 L267.2583008,37.2719727 C266.0629883,39.6183243 265.0834961,41.3836212 264.3198242,42.5678711 C264.961731,42.5512695 265.6313477,42.5318985 266.3286133,42.5097656 C266.704895,41.867836 267.0978088,41.1678009 267.5073242,40.409668 L268.7358398,41.0239258 C267.4741211,43.1267853 266.2068481,45.074707 264.934082,46.8676758 Z M277.003418,47.6479492 L270.8276367,47.6479492 L270.8276367,51.034668 L277.003418,51.034668 Z M262.7592773,50.7856445 C264.8067932,50.387207 266.8045044,49.9500275 268.7524414,49.4741211 C268.7192383,49.9168243 268.7026367,50.3374023 268.7026367,50.7358398 C266.909668,51.1121368 265.050293,51.5548477 263.1245117,52.0639648 Z M282.6894531,37.7202148 L294.2773438,37.7202148 L294.2773438,44.5600586 L293.015625,44.5600586 L293.015625,43.9790039 L283.9511719,43.9790039 L283.9511719,44.5600586 L282.6894531,44.5600586 Z M289.4462891,45.2905273 L296.0205078,45.2905273 L296.0205078,53.1264648 L294.7919922,53.1264648 L294.7919922,52.2963867 L290.6748047,52.2963867 L290.6748047,53.1264648 L289.4462891,53.1264648 Z M281.1455078,45.3071289 L287.6533203,45.3071289 L287.6533203,53.1430664 L286.4248047,53.1430664 L286.4248047,52.2963867 L282.3740234,52.2963867 L282.3740234,53.1430664 L281.1455078,53.1430664 Z M293.015625,40.3100586 L293.015625,38.815918 L283.9511719,38.815918 L283.9511719,40.3100586 Z M290.6748047,49.3081055 L290.6748047,51.2338867 L294.7919922,51.2338867 L294.7919922,49.3081055 Z M290.6748047,48.2788086 L294.7919922,48.2788086 L294.7919922,46.3530273 L290.6748047,46.3530273 Z M282.3740234,49.3081055 L282.3740234,51.2338867 L286.4248047,51.2338867 L286.4248047,49.3081055 Z M282.3740234,46.3696289 L282.3740234,48.2788086 L286.4248047,48.2788086 L286.4248047,46.3696289 Z M283.9511719,42.8833008 L293.015625,42.8833008 L293.015625,41.3725586 L283.9511719,41.3725586 Z M309.9907227,46.0043945 C311.3077698,47.1000977 312.4643555,48.107254 313.4604492,49.0258789 L312.5307617,49.8891602 C312.1323242,49.4907227 311.7394104,49.1033478 311.3520508,48.7270508 C309.9298401,48.793457 308.5021057,48.8626251 307.0688477,48.9345703 L307.0688477,51.0180664 C307.0688477,52.3461914 306.4158325,53.0102539 305.1098633,53.0102539 C304.4458008,53.0102539 303.7540588,52.9991837 303.034668,52.9770508 C302.990387,52.6007462 302.9239807,52.1635742 302.8354492,51.6655273 C303.5880432,51.7540665 304.2576294,51.7983398 304.8442383,51.7983398 C305.486145,51.7983398 305.8071289,51.4939728 305.8071289,50.8852539 L305.8071289,49.0009766 C304.5564575,49.0618439 303.3058167,49.1254883 302.0551758,49.1918945 C301.3136292,49.2361603 300.6716919,49.3081055 300.1293945,49.4077148 L299.4487305,48.0961914 C300.3009338,47.9301758 301.0369263,47.730957 301.6567383,47.4985352 C303.1730042,46.9562149 304.5592346,46.4249649 305.8154297,45.9047852 C304.5149536,45.9933243 303.1951294,46.0929337 301.855957,46.2036133 C301.4464417,46.247879 301.0369263,46.3032227 300.6274414,46.3696289 L300.0629883,45.2573242 C300.5610352,45.1466446 301.0756836,44.980629 301.6069336,44.7592773 C303.1342773,44.0398712 304.274231,43.4532852 305.0268555,42.9995117 L306.0063477,43.7133789 C304.733551,44.277832 303.521637,44.8035431 302.3706055,45.2905273 C304.3240356,45.185379 306.2055664,45.0664063 308.0151367,44.9335938 C308.7234497,44.6070938 309.3764648,44.2833633 309.9741211,43.9624023 L310.9702148,44.809082 C308.4799805,45.9158478 305.6134338,47.050293 302.3706055,48.2124023 C305.3588867,48.0961914 308.0317383,47.9633789 310.3891602,47.8139648 C309.9685669,47.42659 309.559082,47.0558243 309.1606445,46.7016602 Z M299.2163086,38.1850586 L300.4282227,38.1850586 L300.4282227,42.2607422 C301.1254883,42.1721954 301.8061523,42.0836563 302.4702148,41.9951172 L302.4702148,36.9399414 L303.6987305,36.9399414 L303.6987305,38.7993164 L306.487793,38.7993164 L306.487793,39.8618164 L303.6987305,39.8618164 L303.6987305,41.8291016 C304.6616211,41.6962891 305.5968323,41.5607071 306.5043945,41.4223633 C306.4490356,41.8208008 306.4103088,42.1970978 306.3881836,42.5512695 C303.7651367,42.8943634 301.059082,43.326004 298.2700195,43.8461914 L297.9711914,42.5678711 C298.3917542,42.5180664 298.8067932,42.4682617 299.2163086,42.418457 Z M312.2651367,37.4545898 L313.1782227,38.4174805 C311.5733948,39.3305664 309.9519653,40.144043 308.3139648,40.8579102 L308.3139648,41.2895508 C308.3139648,41.9868164 308.6404419,42.3354492 309.293457,42.3354492 L311.6342773,42.3354492 C312.242981,42.3354492 312.6192932,42.058754 312.7631836,41.5053711 C312.862793,41.0626602 312.9402466,40.4207306 312.9956055,39.5795898 C313.4272461,39.7898712 313.8422852,39.9669571 314.2407227,40.1108398 C314.1300354,40.8966446 314.0249023,41.5219727 313.925293,41.9868164 C313.7149963,42.9939728 313.012207,43.4975586 311.8168945,43.4975586 L308.9946289,43.4975586 C307.7218323,43.4975586 307.0854492,42.8445587 307.0854492,41.5385742 L307.0854492,36.9233398 L308.3139648,36.9233398 L308.3139648,39.5961914 C309.7140198,38.9542618 311.0310669,38.2403946 312.2651367,37.4545898 Z M308.5463867,50.5864258 L309.1938477,49.5571289 C310.798645,50.2433243 312.3204651,50.9239883 313.7592773,51.5991211 L313.0288086,52.7944336 C311.6010742,52.0307617 310.1069336,51.294754 308.5463867,50.5864258 Z M302.5366211,49.4907227 L303.3666992,50.4702148 C301.617981,51.5216446 300.1515198,52.3240509 298.9672852,52.8774414 C298.8012695,52.6007462 298.5743713,52.2299805 298.2866211,51.7651367 C299.4708557,51.2670898 300.8875122,50.5089493 302.5366211,49.4907227 Z" style="fill:rgb(81,81,81);stroke:none" clip-path="url(#clip12)" />
<clipPath id="clip13"><path d="M350,15 L493,15 L493,61 L350,61 Z M351,16 L351,44 L415,44 L415,16 Z" /></clipPath>
<path d="M429,45 C429,45 430.7919922,45 433,45 L437,45" style="fill:none;stroke:rgb(1,124,152);stroke-width:2" clip-path="url(#clip13)" />
<clipPath id="clip14"><path d="M349,14 L494,14 L494,62 L349,62 L349,14 Z" /></clipPath>
<path d="M415,45 L429,45" style="fill:none;stroke:rgb(1,124,152);stroke-width:2" clip-path="url(#clip14)" />
<clipPath id="clip15"><path d="M349,14 L418,14 L418,47 L349,47 L349,14 Z" /></clipPath>
<path d="M351,45 L415,45 Z" style="fill:none;stroke:rgb(1,124,152);stroke-width:2" clip-path="url(#clip15)" />
<clipPath id="clip16"><path d="M360,18 L407,18 L407,43 L360,43 L360,18 Z" /></clipPath>
<path d="M366.223877,36.4289551 L366.223877,26.7243652 C365.9992676,26.9489746 365.6196289,27.2004395 365.0849609,27.4787598 C364.550293,27.7570801 364.0559082,27.9523926 363.6018066,28.0646973 L363.6018066,26.6584473 C364.2023926,26.4924316 364.8444824,26.2275391 365.5280762,25.8637695 C366.2116699,25.5 366.7365723,25.1569824 367.1027832,24.8347168 L367.6447754,24.8347168 L367.6447754,36.4289551 Z M388.6213379,36.4289551 L387.185791,36.4289551 L387.185791,31.7780762 C387.185791,30.8991699 387.0490417,30.2705078 386.7756348,29.8920898 C386.5021667,29.5136719 386.052948,29.3244629 385.4279785,29.3244629 C384.9006348,29.3244629 384.4489441,29.5710449 384.072998,30.064209 C383.696991,30.557373 383.5090332,31.1408691 383.5090332,31.8146973 L383.5090332,36.4289551 L382.0734863,36.4289551 L382.0734863,31.6315918 C382.0734558,30.0935059 381.4801941,29.3244629 380.2937012,29.3244629 C379.7467957,29.3244629 379.2939453,29.5588379 378.9350586,30.0275879 C378.5761719,30.4963379 378.3967285,31.0944824 378.3967285,31.8220215 L378.3967285,36.4289551 L376.9611816,36.4289551 L376.9611816,28.3283691 L378.3967285,28.3283691 L378.3967285,29.6101074 L378.4260254,29.6101074 C379.0021667,28.6286621 379.8444519,28.1379395 380.9528809,28.1379395 C381.4948425,28.1379395 381.9733582,28.2868652 382.3884277,28.5847168 C382.8034363,28.8825684 383.0915527,29.2854004 383.2526855,29.7932129 C383.8532715,28.6896973 384.7516785,28.1379395 385.947998,28.1379395 C387.7301941,28.1379395 388.6213074,29.2365723 388.6213379,31.4338379 Z M391.2653809,25.4719238 C391.2653809,25.2180176 391.3520203,25.0043945 391.5253906,24.8310547 C391.6987,24.6577148 391.912323,24.5710449 392.1662598,24.5710449 C392.4250183,24.5710449 392.6435242,24.6564941 392.8217773,24.8273926 C392.9999695,24.998291 393.0891113,25.2131348 393.0891113,25.4719238 C393.0891113,25.7258301 392.9999695,25.9370117 392.8217773,26.1054688 C392.6435242,26.2739258 392.4250183,26.3581543 392.1662598,26.3581543 C391.9074402,26.3581543 391.6925964,26.2739258 391.5217285,26.1054688 C391.3507996,25.9370117 391.2653809,25.7258301 391.2653809,25.4719238 Z M391.4338379,36.4289551 L391.4338379,28.3283691 L392.8693848,28.3283691 L392.8693848,36.4289551 Z M402.3981934,36.4289551 L400.9699707,36.4289551 L400.9699707,31.8220215 C400.9699402,30.1569824 400.36203,29.3244629 399.1462402,29.3244629 C398.5163574,29.3244629 397.9987488,29.5588379 397.5935059,30.0275879 C397.1882019,30.4963379 396.9855957,31.0895996 396.9855957,31.807373 L396.9855957,36.4289551 L395.5500488,36.4289551 L395.5500488,28.3283691 L396.9855957,28.3283691 L396.9855957,29.6687012 L397.0148926,29.6687012 C397.6252136,28.6481934 398.5114441,28.1379395 399.673584,28.1379395 C400.5622253,28.1379395 401.2384949,28.4223633 401.7023926,28.9912109 C402.1662292,29.5600586 402.3981934,30.388916 402.3981934,31.4777832 Z" style="fill:rgb(81,81,81);stroke:none" clip-path="url(#clip16)" />
<clipPath id="clip17"><path d="M435,29 L494,29 L494,62 L435,62 L435,29 Z" /></clipPath>
<path d="M440,31 C438.3431396,31 437,32.3431473 437,34 L437,56 C437,57.6568527 438.3431396,59 440,59 L488,59 C489.6568604,59 491,57.6568527 491,56 L491,34 C491,32.3431473 489.6568604,31 488,31 Z" style="fill:none;stroke:rgb(1,124,152);stroke-width:2" clip-path="url(#clip17)" />
<clipPath id="clip18"><path d="M446,33 L483,33 L483,58 L446,58 L446,33 Z" /></clipPath>
<path d="M455.5734863,38.2856445 L456.7600098,38.2856445 L456.7600098,40.6367188 C457.1799011,41.7792969 457.6608887,42.8413086 458.2028809,43.8227539 C459.2819519,42.9243164 460.3586121,41.8500977 461.4328613,40.6000977 L462.4143066,41.4790039 C461.2717285,42.675293 460.0656433,43.7910156 458.7961426,44.8261719 C460.0852051,46.8671875 461.662323,48.5249023 463.5275879,49.7993164 C463.1174011,50.2094727 462.7853699,50.5756836 462.5314941,50.8979492 C459.9631042,48.8764648 458.0392761,46.3740234 456.7600098,43.390625 L456.7600098,50.2387695 C456.7600098,51.69384 456.0617371,52.4213867 454.6652832,52.4213867 C454.2355652,52.4213867 453.6007996,52.4164963 452.7609863,52.4067383 C452.7121277,52.0454025 452.6340027,51.6059494 452.5266113,51.0883789 C453.3078308,51.1664963 453.9425964,51.2055664 454.4309082,51.2055664 C455.1925964,51.2055664 455.5734558,50.8393478 455.5734863,50.1069336 Z M449.3186035,42.9731445 L449.3186035,41.8598633 L454.3723145,41.8598633 L454.3723145,42.9291992 C453.5422058,46.1323242 452.0285339,48.8764648 449.8312988,51.1616211 C449.4992371,50.7807617 449.201416,50.4829025 448.9377441,50.2680664 C451.1447449,47.9438477 452.5656433,45.5121994 453.2004395,42.9731445 Z M468.017334,44.965332 L473.0124512,44.965332 L473.0124512,41.9916992 L470.3903809,41.9916992 C470.087616,42.7583008 469.7507019,43.480957 469.3796387,44.159668 C469.0280762,43.9643555 468.6618652,43.7739258 468.2810059,43.5883789 C469.1306152,42.1918945 469.7409363,40.6391602 470.1120605,38.9301758 L471.2839355,39.1791992 C471.1325378,39.7797852 470.9640808,40.355957 470.7785645,40.9077148 L473.0124512,40.9077148 L473.0124512,38.2563477 L474.1843262,38.2563477 L474.1843262,40.9077148 L478.0808105,40.9077148 L478.0808105,41.9916992 L474.1843262,41.9916992 L474.1843262,44.965332 L478.8278809,44.965332 L478.8278809,46.0493164 L475.3415527,46.0493164 L475.3415527,50.3999023 C475.3415527,50.888176 475.5612793,51.1323242 476.0007324,51.1323242 L476.9821777,51.1323242 C477.4216309,51.1323242 477.6803894,50.9028244 477.7585449,50.4438477 C477.8464355,49.8774414 477.9147644,49.247551 477.963623,48.5541992 C478.315155,48.7202148 478.681366,48.8666992 479.0622559,48.9936523 C478.9743347,49.716301 478.8766785,50.3413086 478.7692871,50.8686523 C478.6228027,51.7280197 478.0905457,52.1577148 477.1726074,52.1577148 L475.6052246,52.1577148 C474.6579285,52.1577148 474.1843262,51.6059494 474.1843262,50.5024414 L474.1843262,46.0493164 L472.104248,46.0493164 C472.1237488,49.3598633 470.8102722,51.591301 468.1638184,52.7436523 C467.9391785,52.4116135 467.6804199,52.0746994 467.3874512,51.7329102 C469.7507019,50.7661133 470.9372253,48.8715744 470.9470215,46.0493164 L468.017334,46.0493164 Z M466.1130371,46.5620117 C466.5231934,46.7573242 466.9187012,46.918457 467.2995605,47.0454102 C466.8015137,49.0766525 466.3669128,50.9125977 465.9958496,52.5532227 L464.7067871,52.1723633 C465.1950378,50.6489258 465.6637878,48.778801 466.1130371,46.5620117 Z M465.1022949,42.3286133 C465.776123,42.7875977 466.6306152,43.4467773 467.6657715,44.3061523 C467.3044128,44.706543 467.0212402,45.019043 466.8161621,45.2436523 C465.7712402,44.2963867 464.9558105,43.6030273 464.369873,43.1635742 Z M465.673584,38.5493164 C466.4450378,39.1547852 467.2799988,39.862793 468.1784668,40.6733398 C467.846405,40.9956055 467.5534363,41.2885742 467.2995605,41.5522461 C466.2253113,40.4975586 465.4342957,39.7651367 464.9265137,39.3549805 Z" style="fill:rgb(81,81,81);stroke:none" clip-path="url(#clip18)" />
<clipPath id="clip19"><path d="M247,77 L757,77 L757,129 L247,129 Z M253,86 C250.2385712,86 248,88.2385712 248,91 L248,122 C248,124.7614288 250.2385712,127 253,127 L307,127 C309.7614136,127 312,124.7614288 312,122 L312,91 C312,88.2385712 309.7614136,86 307,86 Z" /></clipPath>
<path d="M325.9998169,106.7299957 C325.9998169,106.8790436 327.7918091,107 329.9998169,107 L334,107" style="fill:none;stroke:rgb(0,178,161);stroke-width:2" clip-path="url(#clip19)" />
<clipPath id="clip20"><path d="M246,76 L758,76 L758,130 L246,130 L246,76 Z" /></clipPath>
<path d="M312,106.6600037 L325.9998169,106.7299957" style="fill:none;stroke:rgb(0,178,161);stroke-width:2" clip-path="url(#clip20)" />
<clipPath id="clip21"><path d="M246,84 L315,84 L315,130 L246,130 L246,84 Z" /></clipPath>
<path d="M253,86 C250.2385712,86 248,88.2385712 248,91 L248,122 C248,124.7614288 250.2385712,127 253,127 L307,127 C309.7614136,127 312,124.7614288 312,122 L312,91 C312,88.2385712 309.7614136,86 307,86 Z" style="fill:rgb(255,255,255);stroke:none" clip-path="url(#clip21)" />
<clipPath id="clip22"><path d="M246,84 L315,84 L315,130 L246,130 L246,84 Z" /></clipPath>
<path d="M253,86 C250.2385712,86 248,88.2385712 248,91 L248,122 C248,124.7614288 250.2385712,127 253,127 L307,127 C309.7614136,127 312,124.7614288 312,122 L312,91 C312,88.2385712 309.7614136,86 307,86 Z" style="fill:none;stroke:rgb(0,178,161);stroke-width:2" clip-path="url(#clip22)" />
<clipPath id="clip23"><path d="M260,93 L301,93 L301,121 L260,121 L260,93 Z" /></clipPath>
<path d="M268.748291,109.6728516 L269.5783691,109.6728516 L269.5783691,101.0234375 L272.2678223,101.0234375 L272.2678223,98.8652344 L273.3967285,98.8652344 L273.3967285,101.0234375 L274.9572754,101.0234375 L274.9572754,98.8320313 L276.0861816,98.8320313 L276.0861816,101.0234375 L278.7756348,101.0234375 L278.7756348,109.6728516 L279.6721191,109.6728516 L279.6721191,110.7353516 L268.748291,110.7353516 Z M262.904541,108.0957031 C264.1219788,106.1367188 265.0129395,103.8512344 265.5773926,101.2392578 L263.3693848,101.2392578 L263.3693848,100.1435547 L269.130127,100.1435547 L269.130127,101.2392578 L266.8391113,101.2392578 C266.5402832,102.5341797 266.1916504,103.7405548 265.7932129,104.8583984 L268.3830566,104.8583984 L268.3830566,112.8769531 L265.7102051,112.8769531 L265.7102051,114.0224609 L264.614502,114.0224609 L264.614502,107.5644531 C264.3377991,108.0957031 264.0444946,108.5992813 263.7346191,109.0751953 C263.4911194,108.7763672 263.2144165,108.4498672 262.904541,108.0957031 Z M267.2873535,105.9541016 L265.7102051,105.9541016 L265.7102051,111.78125 L267.2873535,111.78125 Z M272.1350098,111.2333984 L273.1643066,112.0800781 C272.0021973,113.1536407 270.7404785,114.2327423 269.3791504,115.3173828 C269.1467285,115.0628204 268.8534241,114.7529297 268.4992676,114.3876953 C269.8273926,113.4026642 271.0393066,112.3512344 272.1350098,111.2333984 Z M275.1398926,112.2460938 L275.9865723,111.3164063 C277.4807129,112.3567657 278.7092285,113.2532501 279.6721191,114.0058594 L278.7590332,115.1015625 C277.3202209,113.8730469 276.1138306,112.9212189 275.1398926,112.2460938 Z M270.7072754,109.6728516 L272.2678223,109.6728516 L272.2678223,106.2197266 L270.7072754,106.2197266 Z M273.3967285,109.6728516 L274.9572754,109.6728516 L274.9572754,106.2197266 L273.3967285,106.2197266 Z M276.0861816,109.6728516 L277.6467285,109.6728516 L277.6467285,106.2197266 L276.0861816,106.2197266 Z M270.7072754,105.1904297 L272.2678223,105.1904297 L272.2678223,102.0859375 L270.7072754,102.0859375 Z M273.3967285,105.1904297 L274.9572754,105.1904297 L274.9572754,102.0859375 L273.3967285,102.0859375 Z M277.6467285,102.0859375 L276.0861816,102.0859375 L276.0861816,105.1904297 L277.6467285,105.1904297 Z M287.682373,107.9628906 C289.1433105,106.0149689 290.1394043,104.0891876 290.6706543,102.1855469 L291.8825684,102.4511719 C291.7054749,103.0377579 291.5007324,103.6132813 291.2683105,104.1777344 L295.9997559,104.1777344 L295.9997559,105.2900391 C295.4353027,107.9794922 294.500061,110.0878906 293.1940918,111.6152344 C294.1791077,112.5006485 295.4795532,113.2311172 297.095459,113.8066406 C296.9515686,113.9837189 296.669342,114.3876953 296.2487793,115.0185547 C294.6439514,114.3102188 293.332428,113.4801407 292.314209,112.5283203 C291.2849121,113.4801407 290.0010376,114.3655548 288.4626465,115.1845703 C288.1859436,114.7861328 287.8981934,114.4153595 287.5993652,114.0722656 C289.1377563,113.2975235 290.410553,112.4508438 291.4177246,111.5322266 C290.5986938,110.5139923 289.9401855,109.2080078 289.4421387,107.6142578 C289.0879517,108.1455078 288.7061157,108.6767578 288.2966309,109.2080078 C288.0974121,108.7431641 287.8926392,108.328125 287.682373,107.9628906 Z M284.0466309,108.2119141 C285.5739746,106.2529297 286.6807251,104.2220001 287.3669434,102.1191406 L288.5622559,102.4013672 C288.1970215,103.4195938 287.7930298,104.3880157 287.3503418,105.3066406 L287.3503418,115.1347656 L286.1550293,115.1347656 L286.1550293,107.4316406 C285.6680298,108.1953125 285.1478577,108.9091797 284.5944824,109.5732422 C284.406311,108.9977188 284.2236938,108.5439453 284.0466309,108.2119141 Z M285.291748,100.8408203 L290.8200684,100.8408203 C290.4769592,100.1878204 290.1781311,99.6399689 289.923584,99.1972656 L291.1022949,98.6826172 C291.3679199,99.1253204 291.7054749,99.7285156 292.1149902,100.4921875 L291.3181152,100.8408203 L296.9460449,100.8408203 L296.9460449,101.953125 L285.291748,101.953125 Z M290.2556152,106.2861328 C290.7868652,108.1344376 291.4619751,109.5898438 292.2810059,110.6523438 C293.4652405,109.2799454 294.2565918,107.4869766 294.6550293,105.2734375 L290.7702637,105.2734375 C290.604248,105.6054688 290.4326782,105.9430313 290.2556152,106.2861328 Z M281.1413574,114.5371094 C281.794342,112.5449219 282.3643188,110.4033203 282.8513184,108.1123047 C283.2165527,108.2783203 283.6371155,108.4498672 284.1130371,108.6269531 C283.6039124,110.6412735 283.0726624,112.7607422 282.5192871,114.9853516 Z M280.5935059,104.2939453 L281.4401855,103.3476563 C282.4694824,104.0449219 283.4268188,104.7587891 284.3122559,105.4892578 C283.9027405,105.9430313 283.5762329,106.2971954 283.3327637,106.5517578 C282.325592,105.6552734 281.4125061,104.9026642 280.5935059,104.2939453 Z M281.2409668,99.9609375 L282.104248,99.0810547 C282.8347168,99.6344376 283.7865295,100.414711 284.9597168,101.421875 C284.5834045,101.7871094 284.2513733,102.1136017 283.963623,102.4013672 C282.8236389,101.3277969 281.9160767,100.5143204 281.2409668,99.9609375 Z M291.1520996,106.4521484 L292.1647949,105.9707031 C292.5189514,106.5683594 292.8952637,107.2490234 293.2937012,108.0126953 L292.2644043,108.5439453 C291.9544983,107.9020157 291.5837402,107.2047501 291.1520996,106.4521484 Z" style="fill:rgb(81,81,81);stroke:none" clip-path="url(#clip23)" />
<clipPath id="clip24"><path d="M333,77 L757,77 L757,123 L333,123 Z M334,78 L334,106 L421,106 L421,78 Z" /></clipPath>
<path d="M435,107 C435,107 436.7919922,107 439,107 L443,107" style="fill:none;stroke:rgb(0,178,161);stroke-width:2" clip-path="url(#clip24)" />
<clipPath id="clip25"><path d="M332,76 L758,76 L758,124 L332,124 L332,76 Z" /></clipPath>
<path d="M421,107 L435,107" style="fill:none;stroke:rgb(0,178,161);stroke-width:2" clip-path="url(#clip25)" />
<clipPath id="clip26"><path d="M332,76 L424,76 L424,109 L332,109 L332,76 Z" /></clipPath>
<path d="M334,107 L421,107 Z" style="fill:none;stroke:rgb(0,178,161);stroke-width:2" clip-path="url(#clip26)" />
<clipPath id="clip27"><path d="M343,80 L413,80 L413,105 L343,105 L343,80 Z" /></clipPath>
<path d="M348.2800293,98.4289551 L348.2800293,88.7243652 C348.0554199,88.9489746 347.6757813,89.2004395 347.1411133,89.4787598 C346.6064453,89.7570801 346.1120605,89.9523926 345.657959,90.0646973 L345.657959,88.6584473 C346.2585449,88.4924316 346.9006348,88.2275391 347.5842285,87.8637695 C348.2678223,87.5 348.7927246,87.1569824 349.1589355,86.8347168 L349.7009277,86.8347168 L349.7009277,98.4289551 Z M363.1921387,94.4885254 L358.8781738,94.4885254 L358.8781738,93.3825684 L363.1921387,93.3825684 Z M375.2404785,90.057373 C375.2404785,89.4470215 375.0476074,88.9672852 374.6618652,88.6181641 C374.276123,88.269043 373.7512207,88.0944824 373.0871582,88.0944824 C372.6184082,88.0944824 372.1447754,88.2141113 371.6662598,88.4533691 C371.1877441,88.692627 370.7409668,89.0344238 370.3259277,89.4787598 L370.3259277,88.0871582 C370.6970215,87.701416 371.1181641,87.4060059 371.5893555,87.2009277 C372.0605469,86.9958496 372.6135254,86.8933105 373.248291,86.8933105 C374.2736816,86.8933105 375.098877,87.1679688 375.723877,87.7172852 C376.3488464,88.2666016 376.661377,89.0100098 376.661377,89.9475098 C376.661377,90.7824707 376.469696,91.505127 376.0864258,92.1154785 C375.703125,92.7258301 375.0476074,93.3508301 374.119873,93.9904785 C373.1726074,94.6447754 372.5390625,95.1135254 372.2192383,95.3967285 C371.8994141,95.6799316 371.6760254,95.9509277 371.5490723,96.2097168 C371.4221191,96.4685059 371.3586426,96.7834473 371.3586426,97.154541 L376.998291,97.154541 L376.998291,98.4289551 L369.864502,98.4289551 L369.864502,97.8649902 C369.864502,97.2106934 369.9536133,96.6552734 370.1318359,96.1987305 C370.3100586,95.7421875 370.604248,95.2978516 371.0144043,94.8657227 C371.4245605,94.4335938 372.064209,93.9147949 372.9333496,93.3093262 C373.8220215,92.6843262 374.4287109,92.1362305 374.753418,91.6650391 C375.078125,91.1938477 375.2404785,90.657959 375.2404785,90.057373 Z M395.5651855,98.4289551 L394.1296387,98.4289551 L394.1296387,93.7780762 C394.1296387,92.8991699 393.9928894,92.2705078 393.7194824,91.8920898 C393.4460144,91.5136719 392.9967957,91.3244629 392.3718262,91.3244629 C391.8444824,91.3244629 391.3927917,91.5710449 391.0168457,92.064209 C390.6408386,92.557373 390.4528809,93.1408691 390.4528809,93.8146973 L390.4528809,98.4289551 L389.017334,98.4289551 L389.017334,93.6315918 C389.0173035,92.0935059 388.4240417,91.3244629 387.2375488,91.3244629 C386.6906433,91.3244629 386.237793,91.5588379 385.8789063,92.0275879 C385.5200195,92.4963379 385.3405762,93.0944824 385.3405762,93.8220215 L385.3405762,98.4289551 L383.9050293,98.4289551 L383.9050293,90.3283691 L385.3405762,90.3283691 L385.3405762,91.6101074 L385.369873,91.6101074 C385.9460144,90.6286621 386.7882996,90.1379395 387.8967285,90.1379395 C388.4386902,90.1379395 388.9172058,90.2868652 389.3322754,90.5847168 C389.7472839,90.8825684 390.0354004,91.2854004 390.1965332,91.7932129 C390.7971191,90.6896973 391.6955261,90.1379395 392.8918457,90.1379395 C394.6740417,90.1379395 395.565155,91.2365723 395.5651855,93.4338379 Z M398.2092285,87.4719238 C398.2092285,87.2180176 398.2958679,87.0043945 398.4692383,86.8310547 C398.6425476,86.6577148 398.8561707,86.5710449 399.1101074,86.5710449 C399.368866,86.5710449 399.5873718,86.6564941 399.765625,86.8273926 C399.9438171,86.998291 400.032959,87.2131348 400.032959,87.4719238 C400.032959,87.7258301 399.9438171,87.9370117 399.765625,88.1054688 C399.5873718,88.2739258 399.368866,88.3581543 399.1101074,88.3581543 C398.8512878,88.3581543 398.6364441,88.2739258 398.4655762,88.1054688 C398.2946472,87.9370117 398.2092285,87.7258301 398.2092285,87.4719238 Z M398.3776855,98.4289551 L398.3776855,90.3283691 L399.8132324,90.3283691 L399.8132324,98.4289551 Z M409.342041,98.4289551 L407.9138184,98.4289551 L407.9138184,93.8220215 C407.9137878,92.1569824 407.3058777,91.3244629 406.0900879,91.3244629 C405.4602051,91.3244629 404.9425964,91.5588379 404.5373535,92.0275879 C404.1320496,92.4963379 403.9294434,93.0895996 403.9294434,93.807373 L403.9294434,98.4289551 L402.4938965,98.4289551 L402.4938965,90.3283691 L403.9294434,90.3283691 L403.9294434,91.6687012 L403.9587402,91.6687012 C404.5690613,90.6481934 405.4552917,90.1379395 406.6174316,90.1379395 C407.506073,90.1379395 408.1823425,90.4223633 408.6462402,90.9912109 C409.1100769,91.5600586 409.342041,92.388916 409.342041,93.4777832 Z" style="fill:rgb(81,81,81);stroke:none" clip-path="url(#clip27)" />
<clipPath id="clip28"><path d="M442,77 L757,77 L757,123 L442,123 Z M446,93 C444.3431396,93 443,94.3431396 443,96 L443,118 C443,119.6568527 444.3431396,121 446,121 L508,121 C509.6568604,121 511,119.6568527 511,118 L511,96 C511,94.3431396 509.6568604,93 508,93 Z" /></clipPath>
<path d="M525,107 C525,107 526.7919922,107 529,107 L533,107" style="fill:none;stroke:rgb(0,178,161);stroke-width:2" clip-path="url(#clip28)" />
<clipPath id="clip29"><path d="M441,76 L758,76 L758,124 L441,124 L441,76 Z" /></clipPath>
<path d="M511,107 L525,107" style="fill:none;stroke:rgb(0,178,161);stroke-width:2" clip-path="url(#clip29)" />
<clipPath id="clip30"><path d="M441,91 L514,91 L514,124 L441,124 L441,91 Z" /></clipPath>
<path d="M446,93 C444.3431396,93 443,94.3431396 443,96 L443,118 C443,119.6568527 444.3431396,121 446,121 L508,121 C509.6568604,121 511,119.6568527 511,118 L511,96 C511,94.3431396 509.6568604,93 508,93 Z" style="fill:none;stroke:rgb(0,178,161);stroke-width:2" clip-path="url(#clip30)" />
<clipPath id="clip31"><path d="M452,95 L503,95 L503,120 L452,120 L452,95 Z" /></clipPath>
<path d="M466.621582,108.7451172 C466.9047546,108.8720703 467.3393555,109.0234375 467.925293,109.1992188 C467.7983093,110.3320313 467.651825,111.2890625 467.4858398,112.0703125 C467.2416687,113.28125 466.2113953,113.8964844 464.3950195,113.9160156 C461.973114,113.9257813 459.7416687,113.9306641 457.7006836,113.9306641 C455.6499023,113.8916016 454.6245117,113.203125 454.6245117,111.8652344 C454.6245117,111.0449219 455.0639648,110.2001953 455.9428711,109.3310547 C458.1498718,107.2314453 460.801239,104.9804688 463.8969727,102.578125 L454.7856445,102.578125 L454.7856445,101.4208984 L465.8745117,101.4208984 L465.8745117,102.6660156 C462.10495,105.5273438 459.1459656,107.9833984 456.9975586,110.0341797 C456.3041687,110.6982422 455.9575195,111.2597656 455.9575195,111.71875 C455.9575195,112.4121094 456.6020508,112.7734375 457.8911133,112.8027344 C459.7953796,112.8417969 461.8217468,112.8320313 463.9702148,112.7734375 C465.3862,112.7636719 466.1772156,112.3242188 466.3432617,111.4550781 C466.47995,110.7324219 466.5727234,109.8291016 466.621582,108.7451172 Z M469.7929688,103.9257813 L471.5507813,103.9257813 L471.5507813,102.0947266 L469.4414063,102.0947266 L469.4414063,101.1279297 L476.1796875,101.1279297 L476.1796875,102.0947266 L474.1142578,102.0947266 L474.1142578,103.9257813 L475.9160156,103.9257813 L475.9160156,114.6484375 L474.9785156,114.6484375 L474.9785156,113.6523438 L470.7304688,113.6523438 L470.7304688,114.6923828 L469.7929688,114.6923828 Z M476.2822266,110.8691406 L479.6074219,110.8691406 L479.6074219,110.2539063 L481.4384766,109.140625 L476.9121094,109.140625 L476.9121094,108.2324219 L483.0498047,108.2324219 L483.0498047,109.1552734 L480.6035156,110.6787109 L480.6035156,110.8691406 L483.8261719,110.8691406 L483.8261719,111.8359375 L480.6035156,111.8359375 L480.6035156,112.8466797 C480.6035156,113.9892578 480.0810242,114.5605469 479.0361328,114.5605469 C478.4989929,114.5605469 477.976532,114.5507813 477.46875,114.53125 C477.4003601,114.1308594 477.3173523,113.7451172 477.2197266,113.3740234 C477.7958679,113.4619141 478.3378601,113.5058594 478.8457031,113.5058594 C479.3144531,113.5058594 479.5683289,113.2568359 479.6074219,112.7587891 L479.6074219,111.8359375 L476.2822266,111.8359375 Z M477.1757813,103.7646484 L482.8886719,103.7646484 L482.8886719,107.5292969 L481.921875,107.5292969 L481.921875,107.0019531 L478.1425781,107.0019531 L478.1425781,107.5292969 L477.1757813,107.5292969 Z M471.2578125,109.3310547 C471.0527344,109.0380859 470.8769531,108.8134766 470.7304688,108.6572266 L470.7304688,110.0488281 L474.9785156,110.0488281 L474.9785156,108.8769531 L474.2460938,108.8769531 C473.6112976,108.8769531 473.2939453,108.5595703 473.2939453,107.9248047 L473.2939453,104.8632813 L472.3710938,104.8632813 L472.3710938,105.7275391 C472.3710632,107.2998047 471.9999695,108.5009766 471.2578125,109.3310547 Z M476.4726563,101.7578125 L479.3876953,101.7578125 C479.250946,101.3769531 479.0898132,100.9765625 478.9042969,100.5566406 L480.0175781,100.2197266 C480.2812195,100.7763672 480.4960632,101.2890625 480.6621094,101.7578125 L483.6357422,101.7578125 L483.6357422,102.6953125 L476.4726563,102.6953125 Z M470.7304688,112.7148438 L474.9785156,112.7148438 L474.9785156,110.9570313 L470.7304688,110.9570313 Z M481.921875,104.6728516 L478.1425781,104.6728516 L478.1425781,106.09375 L481.921875,106.09375 Z M474.9785156,104.8632813 L474.1142578,104.8632813 L474.1142578,107.5878906 C474.1142578,107.8613281 474.2704773,107.9980469 474.5830078,107.9980469 L474.9785156,107.9980469 Z M470.7304688,108.3935547 C471.2773132,107.7783203 471.5507813,106.8505859 471.5507813,105.6103516 L471.5507813,104.8632813 L470.7304688,104.8632813 Z M472.3710938,103.9257813 L473.2939453,103.9257813 L473.2939453,102.0947266 L472.3710938,102.0947266 Z M488.3305664,107.0019531 L493.3256836,107.0019531 L493.3256836,104.0283203 L490.7036133,104.0283203 C490.4008484,104.7949219 490.0639343,105.5175781 489.6928711,106.1962891 C489.3413086,106.0009766 488.9750977,105.8105469 488.5942383,105.625 C489.4438477,104.2285156 490.0541687,102.6757813 490.425293,100.9667969 L491.597168,101.2158203 C491.4457703,101.8164063 491.2773132,102.3925781 491.0917969,102.9443359 L493.3256836,102.9443359 L493.3256836,100.2929688 L494.4975586,100.2929688 L494.4975586,102.9443359 L498.394043,102.9443359 L498.394043,104.0283203 L494.4975586,104.0283203 L494.4975586,107.0019531 L499.1411133,107.0019531 L499.1411133,108.0859375 L495.6547852,108.0859375 L495.6547852,112.4365234 C495.6547852,112.9248047 495.8745117,113.1689453 496.3139648,113.1689453 L497.2954102,113.1689453 C497.7348633,113.1689453 497.9936218,112.9394531 498.0717773,112.4804688 C498.159668,111.9140625 498.2279968,111.2841797 498.2768555,110.5908203 C498.6283875,110.7568359 498.9945984,110.9033203 499.3754883,111.0302734 C499.2875671,111.7529297 499.1899109,112.3779297 499.0825195,112.9052734 C498.9360352,113.7646484 498.4037781,114.1943359 497.4858398,114.1943359 L495.918457,114.1943359 C494.9711609,114.1943359 494.4975586,113.6425781 494.4975586,112.5390625 L494.4975586,108.0859375 L492.4174805,108.0859375 C492.4369812,111.3964844 491.1235046,113.6279297 488.4770508,114.7802734 C488.2524109,114.4482422 487.9936523,114.1113281 487.7006836,113.7695313 C490.0639343,112.8027344 491.2504578,110.9082031 491.2602539,108.0859375 L488.3305664,108.0859375 Z M486.4262695,108.5986328 C486.8364258,108.7939453 487.2319336,108.9550781 487.612793,109.0820313 C487.1147461,111.1132813 486.6801453,112.9492188 486.309082,114.5898438 L485.0200195,114.2089844 C485.5082703,112.6855469 485.9770203,110.8154297 486.4262695,108.5986328 Z M485.4155273,104.3652344 C486.0893555,104.8242188 486.9438477,105.4833984 487.9790039,106.3427734 C487.6176453,106.7431641 487.3344727,107.0556641 487.1293945,107.2802734 C486.0844727,106.3330078 485.269043,105.6396484 484.6831055,105.2001953 Z M485.9868164,100.5859375 C486.7582703,101.1914063 487.5932312,101.8994141 488.4916992,102.7099609 C488.1596375,103.0322266 487.8666687,103.3251953 487.612793,103.5888672 C486.5385437,102.5341797 485.7475281,101.8017578 485.2397461,101.3916016 Z" style="fill:rgb(81,81,81);stroke:none" clip-path="url(#clip31)" />
<clipPath id="clip32"><path d="M532,77 L757,77 L757,123 L532,123 Z M533,78 L533,106 L679,106 L679,78 Z" /></clipPath>
<path d="M693,107 C693,107 694.7919922,107 697,107 L701,107" style="fill:none;stroke:rgb(0,178,161);stroke-width:2" clip-path="url(#clip32)" />
<clipPath id="clip33"><path d="M531,76 L758,76 L758,124 L531,124 L531,76 Z" /></clipPath>
<path d="M679,107 L693,107" style="fill:none;stroke:rgb(0,178,161);stroke-width:2" clip-path="url(#clip33)" />
<clipPath id="clip34"><path d="M531,76 L682,76 L682,109 L531,109 L531,76 Z" /></clipPath>
<path d="M533,107 L679,107 Z" style="fill:none;stroke:rgb(0,178,161);stroke-width:2" clip-path="url(#clip34)" />
<clipPath id="clip35"><path d="M542,80 L671,80 L671,105 L542,105 L542,80 Z" /></clipPath>
<path d="M544.9855957,91.0205078 L550.7277832,91.0205078 C550.9328613,90.0048828 551.0549316,88.8720703 551.0939941,87.6220703 L546.098877,87.6220703 L546.098877,86.4794922 L557.9934082,86.4794922 L557.9934082,87.6220703 L552.3244629,87.6220703 C552.2561035,88.8720703 552.1291504,90.0048828 551.9436035,91.0205078 L559.1066895,91.0205078 L559.1066895,92.1630859 L551.6945801,92.1630859 C550.9523926,95.4638672 548.911377,98.0224609 545.5715332,99.8388672 C545.3566895,99.5068359 545.0930176,99.1601563 544.7805176,98.7988281 C547.6906738,97.34375 549.5852051,95.1318359 550.4641113,92.1630859 L544.9855957,92.1630859 Z M552.4855957,93.2177734 L553.6721191,93.2177734 L553.6721191,97.0703125 C553.6721191,97.8417969 554.0285645,98.2275391 554.7414551,98.2275391 L556.748291,98.2275391 C557.4123535,98.2275391 557.7883301,97.9394531 557.8762207,97.3632813 C557.9543457,96.8066406 558.0129395,96.0839844 558.052002,95.1953125 C558.4230957,95.3320313 558.833252,95.4736328 559.2824707,95.6201172 C559.1848145,96.5869141 559.0969238,97.3144531 559.0187988,97.8027344 C558.8918457,98.7792969 558.1984863,99.2675781 556.9387207,99.2675781 L554.404541,99.2675781 C553.1252441,99.2675781 552.4855957,98.59375 552.4855957,97.2460938 Z M570.9206543,93.3349609 C572.0827637,94.3017578 573.1032715,95.1904297 573.9821777,96.0009766 L573.1618652,96.7626953 C572.8103027,96.4111328 572.463623,96.0693359 572.1218262,95.7373047 C570.8669434,95.7958984 569.6071777,95.8569336 568.3425293,95.9204102 L568.3425293,97.7587891 C568.3425293,98.9306641 567.7663574,99.5166016 566.6140137,99.5166016 C566.0280762,99.5166016 565.4177246,99.5068359 564.782959,99.4873047 C564.7438965,99.1552734 564.6853027,98.7695313 564.6071777,98.3300781 C565.2712402,98.4082031 565.8620605,98.4472656 566.3796387,98.4472656 C566.9460449,98.4472656 567.229248,98.1787109 567.229248,97.6416016 L567.229248,95.9790039 C566.1257324,96.0327148 565.0222168,96.0888672 563.9187012,96.1474609 C563.2644043,96.1865234 562.697998,96.25 562.2194824,96.3378906 L561.6188965,95.1806641 C562.3708496,95.0341797 563.0202637,94.8583984 563.5671387,94.6533203 C564.9050293,94.1748047 566.1281738,93.7060547 567.2365723,93.2470703 C566.0891113,93.3251953 564.9245605,93.4130859 563.7429199,93.5107422 C563.3815918,93.5498047 563.0202637,93.5986328 562.6589355,93.6572266 L562.1608887,92.6757813 C562.6003418,92.578125 563.0544434,92.4316406 563.5231934,92.2363281 C564.8708496,91.6015625 565.876709,91.0839844 566.5407715,90.6835938 L567.4050293,91.3134766 C566.2819824,91.8115234 565.2126465,92.2753906 564.1970215,92.7050781 C565.9206543,92.6123047 567.5808105,92.5073242 569.1774902,92.3901367 C569.8024902,92.1020508 570.3786621,91.8164063 570.9060059,91.5332031 L571.7849121,92.2802734 C569.5876465,93.2568359 567.0583496,94.2578125 564.1970215,95.2832031 C566.8337402,95.1806641 569.1921387,95.0634766 571.2722168,94.9316406 C570.901123,94.5898438 570.5397949,94.2626953 570.1882324,93.9501953 Z M561.4138184,86.4355469 L562.4831543,86.4355469 L562.4831543,90.0317383 C563.0983887,89.9536133 563.6989746,89.8754883 564.2849121,89.7973633 L564.2849121,85.3369141 L565.3688965,85.3369141 L565.3688965,86.9775391 L567.829834,86.9775391 L567.829834,87.9150391 L565.3688965,87.9150391 L565.3688965,89.6508789 C566.2185059,89.5336914 567.0437012,89.4140625 567.8444824,89.2919922 C567.7956543,89.6435547 567.7614746,89.9755859 567.7419434,90.2880859 C565.4274902,90.5908203 563.0397949,90.9716797 560.5788574,91.4306641 L560.3151855,90.3027344 C560.6862793,90.2587891 561.0524902,90.2148438 561.4138184,90.1708984 Z M572.9274902,85.7910156 L573.7331543,86.640625 C572.3171387,87.4462891 570.8864746,88.1640625 569.4411621,88.7939453 L569.4411621,89.1748047 C569.4411621,89.7900391 569.729248,90.0976563 570.3054199,90.0976563 L572.3708496,90.0976563 C572.907959,90.0976563 573.2399902,89.8535156 573.3669434,89.3652344 C573.454834,88.9746094 573.5231934,88.4082031 573.5720215,87.6660156 C573.9528809,87.8515625 574.3190918,88.0078125 574.6706543,88.1347656 C574.572998,88.828125 574.4802246,89.3798828 574.392334,89.7900391 C574.2067871,90.6787109 573.5866699,91.1230469 572.5319824,91.1230469 L570.041748,91.1230469 C568.9187012,91.1230469 568.3571777,90.546875 568.3571777,89.3945313 L568.3571777,85.3222656 L569.4411621,85.3222656 L569.4411621,87.6806641 C570.6765137,87.1142578 571.838623,86.484375 572.9274902,85.7910156 Z M569.6462402,97.3779297 L570.2175293,96.4697266 C571.6335449,97.0751953 572.9763184,97.6757813 574.2458496,98.2714844 L573.6013184,99.3261719 C572.3415527,98.6523438 571.0231934,98.0029297 569.6462402,97.3779297 Z M564.3435059,96.4111328 L565.0759277,97.2753906 C563.532959,98.203125 562.2390137,98.9111328 561.1940918,99.3994141 C561.0476074,99.1552734 560.8474121,98.828125 560.5935059,98.4179688 C561.6384277,97.9785156 562.8884277,97.3095703 564.3435059,96.4111328 Z M575.5422363,90.1416016 C577.4465332,88.6962891 578.9553223,87.03125 580.0686035,85.1464844 L581.2990723,85.4541016 C581.0354004,85.8740234 580.7546387,86.2841797 580.4567871,86.6845703 L586.2502441,86.6845703 L586.2502441,87.7246094 C585.7033691,88.3642578 585.1320801,89.0039063 584.536377,89.6435547 L588.4914551,89.6435547 L588.4914551,94.9902344 L587.3195801,94.9902344 L587.3195801,94.4775391 L578.5158691,94.4775391 L578.5158691,97.0703125 C578.5158691,97.734375 578.8234863,98.0664063 579.4387207,98.0664063 L587.348877,98.0664063 C588.0031738,98.0664063 588.3986816,97.8613281 588.5354004,97.4511719 C588.7209473,96.8554688 588.8527832,96.1083984 588.9309082,95.2099609 C589.2141113,95.3369141 589.614502,95.4882813 590.1320801,95.6640625 C589.9953613,96.5820313 589.8537598,97.2900391 589.7072754,97.7880859 C589.4533691,98.7158203 588.7404785,99.1796875 587.5686035,99.1796875 L579.3068848,99.1796875 C577.998291,99.1796875 577.3439941,98.5107422 577.3439941,97.1728516 L577.3439941,90.1196289 C577.0559082,90.378418 576.7580566,90.6347656 576.4504395,90.8886719 C576.1867676,90.6445313 575.8840332,90.3955078 575.5422363,90.1416016 Z M587.3195801,90.6982422 L583.4816895,90.6982422 L583.4816895,93.4228516 L587.3195801,93.4228516 Z M578.5158691,93.4228516 L582.3391113,93.4228516 L582.3391113,90.6982422 L578.5158691,90.6982422 Z M584.770752,87.7099609 L579.651123,87.7099609 C579.0993652,88.3789063 578.4987793,89.0234375 577.8493652,89.6435547 L583.1081543,89.6435547 C583.6940918,88.9794922 584.248291,88.3349609 584.770752,87.7099609 Z M601.1696777,90.1855469 L600.9060059,90.5517578 C602.1364746,92.3095703 603.7282715,93.5449219 605.6813965,94.2578125 C605.3786621,94.609375 605.1442871,94.9365234 604.9782715,95.2392578 C604.5876465,95.0439453 604.2165527,94.8388672 603.8649902,94.6240234 L603.8649902,99.6630859 L602.8103027,99.6630859 L602.8103027,98.9453125 L597.6247559,98.9453125 L597.6247559,99.6630859 L596.5700684,99.6630859 L596.5700684,94.7851563 C596.2575684,94.9804688 595.9353027,95.1708984 595.6032715,95.3564453 C595.3493652,95.0048828 595.095459,94.7021484 594.8415527,94.4482422 C596.9313965,93.5107422 598.6208496,92.0898438 599.9099121,90.1855469 Z M595.5739746,87.0068359 L599.7634277,87.0068359 C599.548584,86.5869141 599.3239746,86.1621094 599.0895996,85.7324219 L600.1589355,85.2783203 C600.4812012,85.8642578 600.7692871,86.4404297 601.0231934,87.0068359 L605.0368652,87.0068359 L605.0368652,89.3798828 L603.9382324,89.3798828 L603.9382324,87.9882813 L596.6726074,87.9882813 L596.6726074,89.3798828 L595.5739746,89.3798828 Z M602.8103027,95.2832031 L597.6247559,95.2832031 L597.6247559,97.9638672 L602.8103027,97.9638672 Z M600.3054199,91.3574219 C599.5339355,92.4414063 598.5231934,93.4228516 597.2731934,94.3017578 L603.3669434,94.3017578 C602.0192871,93.4130859 600.9987793,92.4316406 600.3054199,91.3574219 Z M593.3181152,93.6132813 C593.7770996,93.8183594 594.1628418,93.9697266 594.4753418,94.0673828 C593.9870605,95.8544922 593.4694824,97.7294922 592.9226074,99.6923828 L591.6774902,99.2382813 C592.3024902,97.5097656 592.8493652,95.6347656 593.3181152,93.6132813 Z M598.1520996,88.8525391 L598.9724121,89.6142578 C598.0935059,90.4638672 597.1706543,91.2597656 596.2038574,92.0019531 L595.486084,91.1376953 C596.345459,90.5615234 597.2341309,89.7998047 598.1520996,88.8525391 Z M601.4333496,89.5263672 L602.151123,88.8085938 C603.088623,89.5117188 603.9919434,90.2539063 604.861084,91.0351563 L604.0700684,91.8847656 C603.3278809,91.1523438 602.4489746,90.3662109 601.4333496,89.5263672 Z M592.4831543,85.7324219 C593.322998,86.2890625 594.1970215,86.9238281 595.1052246,87.6367188 L594.314209,88.5742188 C593.3669434,87.7636719 592.5222168,87.109375 591.7800293,86.6113281 Z M591.8239746,89.3505859 C592.8786621,90.1220703 593.7282715,90.7861328 594.3728027,91.3427734 L593.5524902,92.265625 C592.9372559,91.6308594 592.1169434,90.9375 591.0915527,90.1855469 Z M618.2570801,92.6757813 L618.2570801,92.1337891 L614.404541,92.1337891 L614.404541,97.8759766 L618.6965332,97.8759766 L618.6965332,93.7011719 L619.927002,93.7011719 L619.927002,99.5166016 L618.6965332,99.5166016 L618.6965332,98.9892578 L607.6809082,98.9892578 L607.6809082,93.7011719 L608.9260254,93.7011719 L608.9260254,97.8759766 L613.130127,97.8759766 L613.130127,92.1337891 L608.076416,92.1337891 L608.076416,86.875 L609.3215332,86.875 L609.3215332,91.0205078 L613.130127,91.0205078 L613.130127,85.5273438 L614.404541,85.5273438 L614.404541,91.0205078 L618.2570801,91.0205078 L618.2570801,86.875 L619.5021973,86.875 L619.5021973,92.6757813 Z M626.2770996,95.949707 L625.0393066,99.8535156 L624.013916,99.8535156 L624.9147949,95.949707 Z M642.3537598,93.8769531 C643.5549316,95.2929688 644.5558472,96.5478516 645.3566895,97.6416016 L644.4191895,98.3300781 C644.0480347,97.8222656 643.6721191,97.3095703 643.2912598,96.7919922 C641.8361206,97.4658203 640.6203003,98.046875 639.6437988,98.5351563 C639.3215332,98.7207031 639.0236206,98.9306641 638.7502441,99.1650391 L637.9445801,98.1982422 C638.2472534,97.8955078 638.3986816,97.5292969 638.3986816,97.0996094 L638.3986816,86.2744141 L644.302002,86.2744141 L644.302002,93.8330078 L643.1887207,93.8330078 L643.1887207,93.4667969 L639.5119629,93.4667969 L639.5119629,97.3339844 C640.4689331,96.9335938 641.513855,96.4746094 642.6467285,95.9570313 C642.2755737,95.4589844 641.8947144,94.9658203 641.5041504,94.4775391 Z M645.9279785,86.4355469 L651.0842285,86.4355469 L651.0842285,95.2978516 C651.0841675,96.5478516 650.4835815,97.1728516 649.2824707,97.1728516 C648.8429565,97.1728516 648.2716675,97.1679688 647.5686035,97.1582031 C647.5197144,96.7382813 647.451416,96.3134766 647.3635254,95.8837891 C648.0959473,95.9619141 648.6427612,96.0009766 649.0041504,96.0009766 C649.6486816,96.0009766 649.9709473,95.6591797 649.9709473,94.9755859 L649.9709473,87.5341797 L647.0412598,87.5341797 L647.0412598,99.7802734 L645.9279785,99.7802734 Z M643.1887207,92.4414063 L643.1887207,90.3759766 L639.5119629,90.3759766 L639.5119629,92.4414063 Z M643.1887207,87.2998047 L639.5119629,87.2998047 L639.5119629,89.3505859 L643.1887207,89.3505859 Z M658.1374512,88.7207031 L665.5056152,88.7207031 L665.5056152,91.9873047 L664.4802246,91.9873047 L664.4802246,91.5917969 L659.1628418,91.5917969 L659.1628418,91.9873047 L658.1374512,91.9873047 Z M652.8200684,92.4121094 C654.1969604,90.2539063 655.1931152,87.890625 655.8083496,85.3222656 L656.892334,85.5859375 C656.5309448,86.8115234 656.1403198,87.9516602 655.720459,89.0063477 L655.720459,99.6630859 L654.7243652,99.6630859 L654.7243652,91.2109375 C654.2750854,92.0947266 653.7965698,92.9003906 653.2888184,93.6279297 C653.142334,93.1982422 652.9860229,92.7929688 652.8200684,92.4121094 Z M658.0056152,94.7119141 L665.7253418,94.7119141 L665.7253418,95.6494141 L662.854248,95.6494141 L662.854248,97.7734375 C662.854248,98.90625 662.3269043,99.4775391 661.2722168,99.4873047 C660.8034668,99.4970703 660.1882324,99.4921875 659.4265137,99.4726563 C659.3679199,99.1210938 659.2897339,98.7402344 659.1921387,98.3300781 C659.8268433,98.3984375 660.4127808,98.4326172 660.9499512,98.4326172 C661.5162964,98.4326172 661.7995605,98.1103516 661.7995605,97.4658203 L661.7995605,95.6494141 L658.0056152,95.6494141 Z M656.5407715,92.5439453 L667.2194824,92.5439453 L667.2194824,94.84375 L666.1940918,94.84375 L666.1940918,93.4814453 L657.5661621,93.4814453 L657.5661621,94.84375 L656.5407715,94.84375 Z M656.9216309,86.9189453 L661.3747559,86.9189453 C661.1647339,86.4746094 660.9353027,86.0400391 660.6862793,85.6152344 L661.682373,85.1757813 C662.0094604,85.7470703 662.3049316,86.328125 662.5686035,86.9189453 L667.0583496,86.9189453 L667.0583496,87.8564453 L656.9216309,87.8564453 Z M664.4802246,89.5996094 L659.1628418,89.5996094 L659.1628418,90.7128906 L664.4802246,90.7128906 Z" style="fill:rgb(81,81,81);stroke:none" clip-path="url(#clip35)" />
<clipPath id="clip36"><path d="M699,91 L758,91 L758,124 L699,124 L699,91 Z" /></clipPath>
<path d="M704,93 C702.3431396,93 701,94.3431396 701,96 L701,118 C701,119.6568527 702.3431396,121 704,121 L752,121 C753.6568604,121 755,119.6568527 755,118 L755,96 C755,94.3431396 753.6568604,93 752,93 Z" style="fill:none;stroke:rgb(0,178,161);stroke-width:2" clip-path="url(#clip36)" />
<clipPath id="clip37"><path d="M710,95 L747,95 L747,120 L710,120 L710,95 Z" /></clipPath>
<path d="M719.5734863,100.2856445 L720.7600098,100.2856445 L720.7600098,102.6367188 C721.1798706,103.7792969 721.6608887,104.8413086 722.2028809,105.8227539 C723.2819214,104.9243164 724.3585815,103.8500977 725.4328613,102.6000977 L726.4143066,103.4790039 C725.2717285,104.675293 724.0656128,105.7910156 722.7961426,106.8261719 C724.0852051,108.8671875 725.6622925,110.5249023 727.5275879,111.7993164 C727.1173706,112.2094727 726.7853394,112.5756836 726.5314941,112.8979492 C723.9630737,110.8764648 722.0392456,108.3740234 720.7600098,105.390625 L720.7600098,112.2387695 C720.7600098,113.6938477 720.0617065,114.4213867 718.6652832,114.4213867 C718.2355347,114.4213867 717.600769,114.4165039 716.7609863,114.4067383 C716.7120972,114.0454102 716.6339722,113.605957 716.5266113,113.0883789 C717.3078003,113.1665039 717.9425659,113.2055664 718.4309082,113.2055664 C719.1925659,113.2055664 719.5734253,112.8393555 719.5734863,112.1069336 Z M713.3186035,104.9731445 L713.3186035,103.8598633 L718.3723145,103.8598633 L718.3723145,104.9291992 C717.5421753,108.1323242 716.0285034,110.8764648 713.8312988,113.1616211 C713.4992065,112.7807617 713.201416,112.4829102 712.9377441,112.2680664 C715.1447144,109.9438477 716.5656128,107.512207 717.2004395,104.9731445 Z M732.017334,106.965332 L737.0124512,106.965332 L737.0124512,103.9916992 L734.3903809,103.9916992 C734.0875854,104.7583008 733.7506714,105.480957 733.3796387,106.159668 C733.0280762,105.9643555 732.6618652,105.7739258 732.2810059,105.5883789 C733.1306152,104.1918945 733.7409058,102.6391602 734.1120605,100.9301758 L735.2839355,101.1791992 C735.1325073,101.7797852 734.9640503,102.355957 734.7785645,102.9077148 L737.0124512,102.9077148 L737.0124512,100.2563477 L738.1843262,100.2563477 L738.1843262,102.9077148 L742.0808105,102.9077148 L742.0808105,103.9916992 L738.1843262,103.9916992 L738.1843262,106.965332 L742.8278809,106.965332 L742.8278809,108.0493164 L739.3415527,108.0493164 L739.3415527,112.3999023 C739.3415527,112.8881836 739.5612793,113.1323242 740.0007324,113.1323242 L740.9821777,113.1323242 C741.4216309,113.1323242 741.6803589,112.902832 741.7585449,112.4438477 C741.8464355,111.8774414 741.9147339,111.2475586 741.963623,110.5541992 C742.3151245,110.7202148 742.6813354,110.8666992 743.0622559,110.9936523 C742.9743042,111.7163086 742.8766479,112.3413086 742.7692871,112.8686523 C742.6228027,113.7280273 742.0905151,114.1577148 741.1726074,114.1577148 L739.6052246,114.1577148 C738.6578979,114.1577148 738.1843262,113.605957 738.1843262,112.5024414 L738.1843262,108.0493164 L736.104248,108.0493164 C736.1237183,111.3598633 734.8102417,113.5913086 732.1638184,114.7436523 C731.9391479,114.4116211 731.6804199,114.074707 731.3874512,113.7329102 C733.7506714,112.7661133 734.9371948,110.871582 734.9470215,108.0493164 L732.017334,108.0493164 Z M730.1130371,108.5620117 C730.5231934,108.7573242 730.9187012,108.918457 731.2995605,109.0454102 C730.8015137,111.0766602 730.3668823,112.9125977 729.9958496,114.5532227 L728.7067871,114.1723633 C729.1950073,112.6489258 729.6637573,110.7788086 730.1130371,108.5620117 Z M729.1022949,104.3286133 C729.776123,104.7875977 730.6306152,105.4467773 731.6657715,106.3061523 C731.3043823,106.706543 731.0212402,107.019043 730.8161621,107.2436523 C729.7712402,106.2963867 728.9558105,105.6030273 728.369873,105.1635742 Z M729.673584,100.5493164 C730.4450073,101.1547852 731.2799683,101.862793 732.1784668,102.6733398 C731.8463745,102.9956055 731.5534058,103.2885742 731.2995605,103.5522461 C730.2252808,102.4975586 729.4342651,101.7651367 728.9265137,101.3549805 Z" style="fill:rgb(81,81,81);stroke:none" clip-path="url(#clip37)" />
<clipPath id="clip38"><path d="M247,139 L575,139 L575,191 L247,191 Z M253,148 C250.2385712,148 248,150.2385712 248,153 L248,184 C248,186.7614288 250.2385712,189 253,189 L307,189 C309.7614136,189 312,186.7614288 312,184 L312,153 C312,150.2385712 309.7614136,148 307,148 Z" /></clipPath>
<path d="M325.9998169,168.7299957 C325.9998169,168.8790436 327.7918091,169 329.9998169,169 L334,169" style="fill:none;stroke:rgb(255,221,0);stroke-width:2" clip-path="url(#clip38)" />
<clipPath id="clip39"><path d="M246,138 L576,138 L576,192 L246,192 L246,138 Z" /></clipPath>
<path d="M312,168.6600037 L325.9998169,168.7299957" style="fill:none;stroke:rgb(255,221,0);stroke-width:2" clip-path="url(#clip39)" />
<clipPath id="clip40"><path d="M246,146 L315,146 L315,192 L246,192 L246,146 Z" /></clipPath>
<path d="M253,148 C250.2385712,148 248,150.2385712 248,153 L248,184 C248,186.7614288 250.2385712,189 253,189 L307,189 C309.7614136,189 312,186.7614288 312,184 L312,153 C312,150.2385712 309.7614136,148 307,148 Z" style="fill:rgb(255,255,255);stroke:none" clip-path="url(#clip40)" />
<clipPath id="clip41"><path d="M246,146 L315,146 L315,192 L246,192 L246,146 Z" /></clipPath>
<path d="M253,148 C250.2385712,148 248,150.2385712 248,153 L248,184 C248,186.7614288 250.2385712,189 253,189 L307,189 C309.7614136,189 312,186.7614288 312,184 L312,153 C312,150.2385712 309.7614136,148 307,148 Z" style="fill:none;stroke:rgb(255,221,0);stroke-width:2" clip-path="url(#clip41)" />
<clipPath id="clip42"><path d="M260,155 L301,155 L301,183 L260,183 L260,155 Z" /></clipPath>
<path d="M265.369873,169.9296875 L277.1569824,169.9296875 L277.1569824,177.1845703 L275.9616699,177.1845703 L275.9616699,176.5371094 L266.5651855,176.5371094 L266.5651855,177.1845703 L265.369873,177.1845703 Z M263.5603027,165.4140625 L267.079834,165.4140625 C266.7145996,164.7942657 266.3327637,164.2242889 265.9343262,163.7041016 L266.9470215,163.1064453 C267.5003967,163.8258514 267.9209595,164.4013672 268.2087402,164.8330078 L267.2956543,165.4140625 L270.6657715,165.4140625 L270.6657715,162.7412109 C268.7621155,162.7854767 266.8640137,162.8076172 264.9714355,162.8076172 C264.9050293,162.3538361 264.8275452,161.9886017 264.7390137,161.7119141 C268.8894043,161.7451172 273.1670532,161.6289063 277.5720215,161.3632813 L277.7712402,162.4589844 C275.7901001,162.5696564 273.8145142,162.6526642 271.8444824,162.7080078 L271.8444824,165.4140625 L274.2351074,165.4140625 C274.6999512,164.5065155 275.0762329,163.7096405 275.3640137,163.0234375 L276.6589355,163.5048828 C276.5703735,163.6487579 276.1830139,164.2851563 275.4968262,165.4140625 L279.0163574,165.4140625 L279.0163574,166.5429688 L273.2224121,166.5429688 C274.8604126,167.6165314 276.9743652,168.5240784 279.564209,169.265625 C279.1768188,169.7415314 278.916748,170.1178284 278.7839355,170.3945313 C275.7845764,169.3984375 273.4714355,168.1699219 271.8444824,166.7089844 L271.8444824,169.4316406 L270.6657715,169.4316406 L270.6657715,166.7753906 C269.116272,168.1699219 266.8086548,169.376297 263.7429199,170.3945313 C263.6101074,170.1178284 263.3500061,169.7415314 262.9626465,169.265625 C265.5967407,168.5130157 267.716217,167.6054688 269.3210449,166.5429688 L263.5603027,166.5429688 Z M271.8444824,175.4746094 L275.9616699,175.4746094 L275.9616699,173.7646484 L271.8444824,173.7646484 Z M275.9616699,170.9921875 L271.8444824,170.9921875 L271.8444824,172.7021484 L275.9616699,172.7021484 Z M266.5651855,172.7021484 L270.6657715,172.7021484 L270.6657715,170.9921875 L266.5651855,170.9921875 Z M266.5651855,175.4746094 L270.6657715,175.4746094 L270.6657715,173.7646484 L266.5651855,173.7646484 Z M286.1467285,174.9765625 L290.9943848,174.9765625 L290.9943848,163.7207031 L287.0100098,163.7207031 L287.0100098,162.4257813 L296.4230957,162.4257813 L296.4230957,163.7207031 L292.4055176,163.7207031 L292.4055176,174.9765625 L297.0373535,174.9765625 L297.0373535,176.2714844 L286.1467285,176.2714844 Z M282.7102051,170.7763672 C284.7355957,170.4886017 286.1245728,170.283844 286.8771973,170.1621094 C286.810791,170.59375 286.7609863,171.0143127 286.7277832,171.4238281 C285.333252,171.611969 283.4627991,171.8886719 281.1164551,172.2539063 L280.8010254,171.0253906 C281.7141113,170.1344299 282.635498,169.0221252 283.5651855,167.6884766 C282.3809204,167.7604065 281.5093384,167.8212891 280.9504395,167.8710938 L280.6184082,166.7421875 C281.8579712,165.1373596 283.0090332,163.1617889 284.0715332,160.8154297 L285.4162598,161.3134766 C284.3205566,163.3278046 283.2469788,165.1041565 282.1955566,166.6425781 C282.9260254,166.6259766 283.6260376,166.6065979 284.2956543,166.5844727 C284.7438965,165.8927307 285.1948853,165.1484375 285.6486816,164.3515625 L286.927002,164.9658203 C285.4771118,167.1904297 284.0715332,169.1272736 282.7102051,170.7763672 Z M280.5852051,174.4287109 C282.5552368,174.0081329 284.6636353,173.5432892 286.9104004,173.0341797 C286.8771973,173.4768829 286.8605957,173.9085236 286.8605957,174.3291016 C285.0786743,174.7386017 283.1141663,175.220047 280.967041,175.7734375 Z" style="fill:rgb(81,81,81);stroke:none" clip-path="url(#clip42)" />
<clipPath id="clip43"><path d="M333,139 L575,139 L575,185 L333,185 Z M334,140 L334,168 L421,168 L421,140 Z" /></clipPath>
<path d="M435,169 C435,169 436.7919922,169 439,169 L443,169" style="fill:none;stroke:rgb(255,221,0);stroke-width:2" clip-path="url(#clip43)" />
<clipPath id="clip44"><path d="M332,138 L576,138 L576,186 L332,186 L332,138 Z" /></clipPath>
<path d="M421,169 L435,169" style="fill:none;stroke:rgb(255,221,0);stroke-width:2" clip-path="url(#clip44)" />
<clipPath id="clip45"><path d="M332,138 L424,138 L424,171 L332,171 L332,138 Z" /></clipPath>
<path d="M334,169 L421,169 Z" style="fill:none;stroke:rgb(255,221,0);stroke-width:2" clip-path="url(#clip45)" />
<clipPath id="clip46"><path d="M343,142 L413,142 L413,167 L343,167 L343,142 Z" /></clipPath>
<path d="M348.2800293,160.4289551 L348.2800293,150.7243652 C348.0554199,150.9489746 347.6757813,151.2004395 347.1411133,151.4787598 C346.6064453,151.7570801 346.1120605,151.9523926 345.657959,152.0646973 L345.657959,150.6584473 C346.2585449,150.4924316 346.9006348,150.2275391 347.5842285,149.8637695 C348.2678223,149.5 348.7927246,149.1569824 349.1589355,148.8347168 L349.7009277,148.8347168 L349.7009277,160.4289551 Z M363.1921387,156.4885254 L358.8781738,156.4885254 L358.8781738,155.3825684 L363.1921387,155.3825684 Z M375.2404785,152.057373 C375.2404785,151.4470215 375.0476074,150.9672852 374.6618652,150.6181641 C374.276123,150.269043 373.7512207,150.0944824 373.0871582,150.0944824 C372.6184082,150.0944824 372.1447754,150.2141113 371.6662598,150.4533691 C371.1877441,150.692627 370.7409668,151.0344238 370.3259277,151.4787598 L370.3259277,150.0871582 C370.6970215,149.701416 371.1181641,149.4060059 371.5893555,149.2009277 C372.0605469,148.9958496 372.6135254,148.8933105 373.248291,148.8933105 C374.2736816,148.8933105 375.098877,149.1679688 375.723877,149.7172852 C376.3488464,150.2666016 376.661377,151.0100098 376.661377,151.9475098 C376.661377,152.7824707 376.469696,153.505127 376.0864258,154.1154785 C375.703125,154.7258301 375.0476074,155.3508301 374.119873,155.9904785 C373.1726074,156.6447754 372.5390625,157.1135254 372.2192383,157.3967285 C371.8994141,157.6799316 371.6760254,157.9509277 371.5490723,158.2097168 C371.4221191,158.4685059 371.3586426,158.7834473 371.3586426,159.154541 L376.998291,159.154541 L376.998291,160.4289551 L369.864502,160.4289551 L369.864502,159.8649902 C369.864502,159.2106934 369.9536133,158.6552734 370.1318359,158.1987305 C370.3100586,157.7421875 370.604248,157.2978516 371.0144043,156.8657227 C371.4245605,156.4335938 372.064209,155.9147949 372.9333496,155.3093262 C373.8220215,154.6843262 374.4287109,154.1362305 374.753418,153.6650391 C375.078125,153.1938477 375.2404785,152.657959 375.2404785,152.057373 Z M395.5651855,160.4289551 L394.1296387,160.4289551 L394.1296387,155.7780762 C394.1296387,154.8991699 393.9928894,154.2705078 393.7194824,153.8920898 C393.4460144,153.5136719 392.9967957,153.3244629 392.3718262,153.3244629 C391.8444824,153.3244629 391.3927917,153.5710449 391.0168457,154.064209 C390.6408386,154.557373 390.4528809,155.1408691 390.4528809,155.8146973 L390.4528809,160.4289551 L389.017334,160.4289551 L389.017334,155.6315918 C389.0173035,154.0935059 388.4240417,153.3244629 387.2375488,153.3244629 C386.6906433,153.3244629 386.237793,153.5588379 385.8789063,154.0275879 C385.5200195,154.4963379 385.3405762,155.0944824 385.3405762,155.8220215 L385.3405762,160.4289551 L383.9050293,160.4289551 L383.9050293,152.3283691 L385.3405762,152.3283691 L385.3405762,153.6101074 L385.369873,153.6101074 C385.9460144,152.6286621 386.7882996,152.1379395 387.8967285,152.1379395 C388.4386902,152.1379395 388.9172058,152.2868652 389.3322754,152.5847168 C389.7472839,152.8825684 390.0354004,153.2854004 390.1965332,153.7932129 C390.7971191,152.6896973 391.6955261,152.1379395 392.8918457,152.1379395 C394.6740417,152.1379395 395.565155,153.2365723 395.5651855,155.4338379 Z M398.2092285,149.4719238 C398.2092285,149.2180176 398.2958679,149.0043945 398.4692383,148.8310547 C398.6425476,148.6577148 398.8561707,148.5710449 399.1101074,148.5710449 C399.368866,148.5710449 399.5873718,148.6564941 399.765625,148.8273926 C399.9438171,148.998291 400.032959,149.2131348 400.032959,149.4719238 C400.032959,149.7258301 399.9438171,149.9370117 399.765625,150.1054688 C399.5873718,150.2739258 399.368866,150.3581543 399.1101074,150.3581543 C398.8512878,150.3581543 398.6364441,150.2739258 398.4655762,150.1054688 C398.2946472,149.9370117 398.2092285,149.7258301 398.2092285,149.4719238 Z M398.3776855,160.4289551 L398.3776855,152.3283691 L399.8132324,152.3283691 L399.8132324,160.4289551 Z M409.342041,160.4289551 L407.9138184,160.4289551 L407.9138184,155.8220215 C407.9137878,154.1569824 407.3058777,153.3244629 406.0900879,153.3244629 C405.4602051,153.3244629 404.9425964,153.5588379 404.5373535,154.0275879 C404.1320496,154.4963379 403.9294434,155.0895996 403.9294434,155.807373 L403.9294434,160.4289551 L402.4938965,160.4289551 L402.4938965,152.3283691 L403.9294434,152.3283691 L403.9294434,153.6687012 L403.9587402,153.6687012 C404.5690613,152.6481934 405.4552917,152.1379395 406.6174316,152.1379395 C407.506073,152.1379395 408.1823425,152.4223633 408.6462402,152.9912109 C409.1100769,153.5600586 409.342041,154.388916 409.342041,155.4777832 Z" style="fill:rgb(81,81,81);stroke:none" clip-path="url(#clip46)" />
<clipPath id="clip47"><path d="M442,154 L575,154 L575,185 L442,185 Z M446,155 C444.3431396,155 443,156.3431396 443,158 L443,180 C443,181.6568604 444.3431396,183 446,183 L494,183 C495.6568604,183 497,181.6568604 497,180 L497,158 C497,156.3431396 495.6568604,155 494,155 Z" /></clipPath>
<path d="M511,169 C511,169 512.7919922,169 515,169 L519,169" style="fill:none;stroke:rgb(255,221,0);stroke-width:2" clip-path="url(#clip47)" />
<clipPath id="clip48"><path d="M441,153 L576,153 L576,186 L441,186 L441,153 Z" /></clipPath>
<path d="M497,169 L511,169" style="fill:none;stroke:rgb(255,221,0);stroke-width:2" clip-path="url(#clip48)" />
<clipPath id="clip49"><path d="M441,153 L500,153 L500,186 L441,186 L441,153 Z" /></clipPath>
<path d="M446,155 C444.3431396,155 443,156.3431396 443,158 L443,180 C443,181.6568604 444.3431396,183 446,183 L494,183 C495.6568604,183 497,181.6568604 497,180 L497,158 C497,156.3431396 495.6568604,155 494,155 Z" style="fill:none;stroke:rgb(255,221,0);stroke-width:2" clip-path="url(#clip49)" />
<clipPath id="clip50"><path d="M452,157 L489,157 L489,182 L452,182 L452,157 Z" /></clipPath>
<path d="M461.5734863,162.2856445 L462.7600098,162.2856445 L462.7600098,164.6367188 C463.1799011,165.7792969 463.6608887,166.8413086 464.2028809,167.8227539 C465.2819519,166.9243164 466.3586121,165.8500977 467.4328613,164.6000977 L468.4143066,165.4790039 C467.2717285,166.675293 466.0656433,167.7910156 464.7961426,168.8261719 C466.0852051,170.8671875 467.662323,172.5249023 469.5275879,173.7993164 C469.1174011,174.2094727 468.7853699,174.5756836 468.5314941,174.8979492 C465.9631042,172.8764648 464.0392761,170.3740234 462.7600098,167.390625 L462.7600098,174.2387695 C462.7600098,175.6938477 462.0617371,176.4213867 460.6652832,176.4213867 C460.2355652,176.4213867 459.6007996,176.4165039 458.7609863,176.4067383 C458.7121277,176.0454102 458.6340027,175.605957 458.5266113,175.0883789 C459.3078308,175.1665039 459.9425964,175.2055664 460.4309082,175.2055664 C461.1925964,175.2055664 461.5734558,174.8393555 461.5734863,174.1069336 Z M455.3186035,166.9731445 L455.3186035,165.8598633 L460.3723145,165.8598633 L460.3723145,166.9291992 C459.5422058,170.1323242 458.0285339,172.8764648 455.8312988,175.1616211 C455.4992371,174.7807617 455.201416,174.4829102 454.9377441,174.2680664 C457.1447449,171.9438477 458.5656433,169.512207 459.2004395,166.9731445 Z M474.017334,168.965332 L479.0124512,168.965332 L479.0124512,165.9916992 L476.3903809,165.9916992 C476.087616,166.7583008 475.7507019,167.480957 475.3796387,168.159668 C475.0280762,167.9643555 474.6618652,167.7739258 474.2810059,167.5883789 C475.1306152,166.1918945 475.7409363,164.6391602 476.1120605,162.9301758 L477.2839355,163.1791992 C477.1325378,163.7797852 476.9640808,164.355957 476.7785645,164.9077148 L479.0124512,164.9077148 L479.0124512,162.2563477 L480.1843262,162.2563477 L480.1843262,164.9077148 L484.0808105,164.9077148 L484.0808105,165.9916992 L480.1843262,165.9916992 L480.1843262,168.965332 L484.8278809,168.965332 L484.8278809,170.0493164 L481.3415527,170.0493164 L481.3415527,174.3999023 C481.3415527,174.8881836 481.5612793,175.1323242 482.0007324,175.1323242 L482.9821777,175.1323242 C483.4216309,175.1323242 483.6803894,174.902832 483.7585449,174.4438477 C483.8464355,173.8774414 483.9147644,173.2475586 483.963623,172.5541992 C484.315155,172.7202148 484.681366,172.8666992 485.0622559,172.9936523 C484.9743347,173.7163086 484.8766785,174.3413086 484.7692871,174.8686523 C484.6228027,175.7280273 484.0905457,176.1577148 483.1726074,176.1577148 L481.6052246,176.1577148 C480.6579285,176.1577148 480.1843262,175.605957 480.1843262,174.5024414 L480.1843262,170.0493164 L478.104248,170.0493164 C478.1237488,173.3598633 476.8102722,175.5913086 474.1638184,176.7436523 C473.9391785,176.4116211 473.6804199,176.074707 473.3874512,175.7329102 C475.7507019,174.7661133 476.9372253,172.871582 476.9470215,170.0493164 L474.017334,170.0493164 Z M472.1130371,170.5620117 C472.5231934,170.7573242 472.9187012,170.918457 473.2995605,171.0454102 C472.8015137,173.0766602 472.3669128,174.9125977 471.9958496,176.5532227 L470.7067871,176.1723633 C471.1950378,174.6489258 471.6637878,172.7788086 472.1130371,170.5620117 Z M471.1022949,166.3286133 C471.776123,166.7875977 472.6306152,167.4467773 473.6657715,168.3061523 C473.3044128,168.706543 473.0212402,169.019043 472.8161621,169.2436523 C471.7712402,168.2963867 470.9558105,167.6030273 470.369873,167.1635742 Z M471.673584,162.5493164 C472.4450378,163.1547852 473.2799988,163.862793 474.1784668,164.6733398 C473.846405,164.9956055 473.5534363,165.2885742 473.2995605,165.5522461 C472.2253113,164.4975586 471.4342957,163.7651367 470.9265137,163.3549805 Z" style="fill:rgb(81,81,81);stroke:none" clip-path="url(#clip50)" />
<clipPath id="clip51"><path d="M517,153 L576,153 L576,186 L517,186 L517,153 Z" /></clipPath>
<path d="M522,155 C520.3431396,155 519,156.3431396 519,158 L519,180 C519,181.6568604 520.3431396,183 522,183 L570,183 C571.6568604,183 573,181.6568604 573,180 L573,158 C573,156.3431396 571.6568604,155 570,155 Z" style="fill:none;stroke:rgb(255,221,0);stroke-width:2" clip-path="url(#clip51)" />
<clipPath id="clip52"><path d="M528,157 L565,157 L565,182 L528,182 L528,157 Z" /></clipPath>
<path d="M534.7536621,169.1264648 C535.8571777,167.9741211 536.6628418,166.6362305 537.1706543,165.112793 L538.166748,165.3764648 C538.088623,165.5913086 538.0056152,165.8012695 537.9177246,166.0063477 L539.807373,166.0063477 L539.807373,166.9145508 C539.5046387,167.9790039 539.0358887,168.9506836 538.401123,169.8295898 L541.9606934,169.8295898 C541.1013184,168.6381836 540.5349121,167.168457 540.2614746,165.4204102 L541.1989746,165.215332 C541.2380371,165.5083008 541.291748,165.7915039 541.3601074,166.0649414 L544.7878418,166.0649414 L544.7878418,166.987793 C544.2995605,167.8764648 543.767334,168.784668 543.1911621,169.7124023 C543.8356934,170.4057617 544.6169434,170.9624023 545.5349121,171.3823242 C545.2907715,171.6948242 545.0661621,172.012207 544.861084,172.3344727 C543.7087402,171.7290039 542.7663574,170.9282227 542.0339355,169.9321289 L542.0339355,170.7084961 L538.298584,170.7084961 L538.298584,169.9907227 C537.7810059,170.6743164 537.1608887,171.3041992 536.4382324,171.8803711 L544.026123,171.8803711 L544.026123,172.7592773 L540.7155762,172.7592773 L540.7155762,175.1616211 C540.7155762,176.0795898 540.276123,176.5629883 539.3972168,176.6118164 C538.9382324,176.6313477 538.4304199,176.6411133 537.8737793,176.6411133 C537.8347168,176.2602539 537.7712402,175.8842773 537.6833496,175.5131836 C538.1813965,175.5522461 538.6208496,175.5717773 539.001709,175.5717773 C539.4020996,175.5620117 539.6022949,175.3422852 539.6022949,174.9125977 L539.6022949,172.7592773 L536.3796387,172.7592773 L536.3796387,171.9389648 C536.0378418,172.2026367 535.6813965,172.4516602 535.3103027,172.6860352 C535.1345215,172.4223633 534.9001465,172.1342773 534.6071777,171.8217773 C535.407959,171.4116211 536.111084,170.918457 536.7165527,170.3422852 C536.4919434,170.0981445 536.2526855,169.8735352 535.9987793,169.668457 L536.526123,169.0092773 C536.7995605,169.2241211 537.0681152,169.4438477 537.3317871,169.668457 C537.5368652,169.434082 537.7224121,169.1850586 537.8884277,168.9213867 C537.595459,168.6674805 537.3122559,168.4575195 537.0388184,168.2915039 L537.4929199,167.5737305 C537.7663574,167.7397461 538.0446777,167.9301758 538.3278809,168.1450195 C538.5231934,167.7543945 538.6940918,167.3442383 538.8405762,166.9145508 L537.4929199,166.9145508 C536.994873,167.9106445 536.3112793,168.887207 535.4421387,169.8442383 C535.2468262,169.6293945 535.017334,169.3901367 534.7536621,169.1264648 Z M530.9743652,170.5913086 C531.4040527,170.4057617 531.9558105,170.1518555 532.6296387,169.8295898 L532.6296387,166.5043945 L531.1208496,166.5043945 L531.1208496,165.5083008 L532.6296387,165.5083008 L532.6296387,162.4907227 L533.6403809,162.4907227 L533.6403809,165.5083008 L534.9001465,165.5083008 L534.9001465,166.5043945 L533.6403809,166.5043945 L533.6403809,169.3461914 C533.9528809,169.1899414 534.2897949,169.019043 534.651123,168.8334961 C534.7194824,169.2729492 534.7927246,169.6245117 534.8708496,169.8881836 C534.7634277,169.9370117 534.3532715,170.1469727 533.6403809,170.5180664 L533.6403809,175.1030273 C533.6403809,176.0991211 533.2009277,176.597168 532.3220215,176.597168 C532.1462402,176.597168 531.7995605,176.5922852 531.2819824,176.5825195 C531.2624512,176.230957 531.2282715,175.8452148 531.1794434,175.425293 C531.5700684,175.4838867 531.8874512,175.5083008 532.1315918,175.4985352 C532.463623,175.4887695 532.6296387,175.2983398 532.6296387,174.9272461 L532.6296387,171.0454102 C532.2585449,171.230957 531.838623,171.4458008 531.369873,171.6899414 Z M535.3981934,163.7944336 L539.572998,163.7944336 C539.3581543,163.4624023 539.0944824,163.1206055 538.7819824,162.769043 L539.7634277,162.2856445 C540.1247559,162.7250977 540.4128418,163.0913086 540.6276855,163.3842773 L539.8659668,163.7944336 L544.9489746,163.7944336 L544.9489746,165.8452148 L543.8356934,165.8452148 L543.8356934,164.7026367 L536.5114746,164.7026367 L536.5114746,166.0063477 L535.3981934,166.0063477 Z M542.5319824,173.3305664 C543.5769043,174.1411133 544.4362793,174.8442383 545.1101074,175.4399414 L544.3190918,176.3188477 C543.5964355,175.5668945 542.7321777,174.8100586 541.7263184,174.0483398 Z M537.229248,173.3305664 L538.0788574,174.0043945 C537.2878418,174.8344727 536.4772949,175.605957 535.6472168,176.3188477 C535.432373,176.0551758 535.1589355,175.7963867 534.8269043,175.5424805 C535.822998,174.7709961 536.6237793,174.0336914 537.229248,173.3305664 Z M543.6599121,166.9731445 L541.6091309,166.9731445 C541.8435059,167.6762695 542.151123,168.3110352 542.5319824,168.8774414 C542.932373,168.262207 543.3083496,167.6274414 543.6599121,166.9731445 Z M546.4797363,168.7016602 L553.0715332,168.7016602 L553.0715332,164.4682617 L547.6516113,164.4682617 L547.6516113,163.3549805 L559.8244629,163.3549805 L559.8244629,164.4682617 L554.3752441,164.4682617 L554.3752441,168.7016602 L561.0256348,168.7016602 L561.0256348,169.8149414 L554.3752441,169.8149414 L554.3752441,176.7143555 L553.0715332,176.7143555 L553.0715332,169.8149414 L546.4797363,169.8149414 Z" style="fill:rgb(81,81,81);stroke:none" clip-path="url(#clip52)" />
<clipPath id="clip53"><path d="M246,200 L314,200 L314,246 L246,246 L246,200 Z" /></clipPath>
<path d="M253,202 C250.2385712,202 248,204.2385712 248,207 L248,238 C248,240.7614288 250.2385712,243 253,243 L306,243 C308.7614136,243 311,240.7614288 311,238 L311,207 C311,204.2385712 308.7614136,202 306,202 Z" style="fill:rgb(255,255,255);stroke:none" clip-path="url(#clip53)" />
<clipPath id="clip54"><path d="M246,200 L314,200 L314,246 L246,246 L246,200 Z" /></clipPath>
<path d="M253,202 C250.2385712,202 248,204.2385712 248,207 L248,238 C248,240.7614288 250.2385712,243 253,243 L306,243 C308.7614136,243 311,240.7614288 311,238 L311,207 C311,204.2385712 308.7614136,202 306,202 Z" style="fill:none;stroke:rgb(252,143,0);stroke-width:2" clip-path="url(#clip54)" />
<clipPath id="clip55"><path d="M260,209 L300,209 L300,237 L260,237 L260,209 Z" /></clipPath>
<path d="M264.454834,219.2480469 C265.0524902,220.3935547 265.6556702,221.5556641 266.2644043,222.734375 C266.7126465,221.2014923 267.0114746,219.5136719 267.1608887,217.6708984 L263.0270996,217.6708984 L263.0270996,216.4091797 L268.4558105,216.4091797 L268.4558105,217.6210938 C268.2565918,220.1279297 267.8055725,222.3746643 267.1027832,224.3613281 C267.7668457,225.6507111 268.439209,226.9622345 269.119873,228.2958984 L267.8913574,228.9765625 C267.4652405,228.046875 266.9893188,227.0397034 266.463623,225.9550781 C265.666748,227.6982422 264.6484985,229.2089844 263.4089355,230.4873047 C263.187561,230.1441956 262.9108887,229.7402344 262.5788574,229.2753906 C263.8959045,227.9251251 264.9335022,226.2926331 265.6916504,224.3779297 C264.9943848,222.9667969 264.2224121,221.4394531 263.3757324,219.7958984 Z M273.0710449,218.0029297 L274.3327637,218.0029297 L274.3327637,221.0078125 C274.3327637,222.3414612 274.2331543,223.5201721 274.0339355,224.5439453 L275.0300293,224.5439453 L275.0300293,228.4951172 C275.0300293,229.1923828 275.3177795,229.5410156 275.8933105,229.5410156 L276.6901855,229.5410156 C277.2546387,229.5410156 277.575592,229.2421875 277.6530762,228.6445313 C277.7194824,228.1022034 277.7748108,227.3662109 277.8190918,226.4365234 C278.1843262,226.5914612 278.6214905,226.7630157 279.1306152,226.9511719 C279.0420532,227.9361877 278.9535217,228.6998596 278.8649902,229.2421875 C278.6989746,230.2604065 278.0681152,230.7695313 276.9724121,230.7695313 L275.6940918,230.7695313 C274.432373,230.7695313 273.8015137,230.1165314 273.8015137,228.8105469 L273.8015137,225.5151367 C273.6133423,226.1515198 273.3809204,226.7132111 273.104248,227.2001953 C272.3184204,228.6057892 270.8464355,229.9339142 268.6882324,231.1845703 C268.4558105,230.8525391 268.1514282,230.4873047 267.7751465,230.0888672 C269.8447876,228.9820862 271.2503967,227.7867737 271.9919434,226.5029297 C272.7113342,225.3629456 273.0710449,223.5589142 273.0710449,221.0908203 Z M269.651123,215.6289063 L277.7526855,215.6289063 L277.7526855,225.5898438 L276.4909668,225.5898438 L276.4909668,216.8574219 L270.9128418,216.8574219 L270.9128418,225.8222656 L269.651123,225.8222656 Z M280.1848145,222.5849609 C281.7785645,221.2457581 283.0900879,219.6907501 284.1193848,217.9199219 L285.1652832,218.4511719 C284.9771118,218.75 284.7834473,219.0377502 284.5842285,219.3144531 L288.3029785,219.3144531 L288.3029785,220.3603516 C286.8530884,223.0719299 284.3573303,225.2412109 280.8156738,226.8681641 C280.6164551,226.5361328 280.378479,226.1930237 280.1018066,225.8388672 C281.2085571,225.3850861 282.2157288,224.8538361 283.123291,224.2451172 C282.8355103,223.9573517 282.4758301,223.6308594 282.0441895,223.265625 L282.7414551,222.5849609 C283.1398926,222.9391174 283.5272522,223.3043518 283.9035645,223.6806641 C284.2245178,223.4482422 284.5344238,223.1881409 284.833252,222.9003906 C284.4458618,222.5572815 284.0031738,222.1920471 283.505127,221.8046875 L284.185791,221.1240234 C284.6616821,221.5003204 285.098877,221.8766174 285.4973145,222.2529297 C286.0728149,221.6552734 286.5819397,221.0078125 287.0246582,220.3105469 L283.8371582,220.3105469 C283.0845337,221.3066406 282.1382446,222.3414612 280.998291,223.4150391 C280.7547913,223.1051331 280.4836426,222.8284454 280.1848145,222.5849609 Z M289.6975098,218.5009766 C289.7971191,218.7998047 289.9077759,219.0820313 290.029541,219.3476563 L295.0598145,219.3476563 L295.0598145,220.3603516 C294.2850647,221.2900391 293.4605103,222.1975861 292.5861816,223.0830078 C293.6486816,224.0901642 294.927002,224.9036407 296.4211426,225.5234375 C296.1555176,225.8222656 295.873291,226.1875 295.5744629,226.6191406 C292.0881348,224.815094 289.7860413,222.2473907 288.6682129,218.9160156 Z M280.7492676,216.4921875 L287.904541,216.4921875 C287.7163696,216.1601563 287.4950256,215.7949219 287.2404785,215.3964844 L288.4191895,214.8154297 C288.817627,215.4020081 289.1607056,215.9609375 289.4484863,216.4921875 L295.989502,216.4921875 L295.989502,219.0322266 L294.7277832,219.0322266 L294.7277832,217.6210938 L282.0109863,217.6210938 L282.0109863,219.0322266 L280.7492676,219.0322266 Z M283.123291,225.9882813 L293.8479004,225.9882813 L293.8479004,227.0839844 L289.2658691,227.0839844 L289.2658691,229.0263672 C289.2658691,230.3655548 288.6460571,231.0351563 287.4064941,231.0351563 C286.8862915,231.0351563 286.2277832,231.0296173 285.4309082,231.0185547 C285.364502,230.5647736 285.2814941,230.1331329 285.1818848,229.7236328 C285.9234009,229.7900391 286.532135,229.8232422 287.0080566,229.8232422 C287.6721191,229.8232422 288.0041504,229.4746094 288.0041504,228.7773438 L288.0041504,227.0839844 L283.123291,227.0839844 Z M290.7268066,228.6611328 L291.3410645,227.6816406 C292.9348145,228.3235626 294.4455566,228.9931641 295.873291,229.6904297 L295.1760254,230.8027344 C293.6376038,229.9947815 292.154541,229.2809143 290.7268066,228.6611328 Z M284.9494629,227.5986328 L285.6965332,228.5947266 C284.2245178,229.4026642 282.7359009,230.1441956 281.2307129,230.8193359 C281.0646973,230.4541016 280.8377991,230.0777893 280.5500488,229.6904297 C281.9445801,229.1813049 283.4110413,228.4840393 284.9494629,227.5986328 Z M285.9123535,223.5644531 L291.2912598,223.5644531 L291.2912598,224.6601563 L285.9123535,224.6601563 Z M293.598877,220.34375 L290.5109863,220.34375 C290.8983459,221.0520782 291.3465881,221.7050781 291.8557129,222.3027344 C292.4865723,221.6497345 293.067627,220.9967346 293.598877,220.34375 Z" style="fill:rgb(81,81,81);stroke:none" clip-path="url(#clip55)" />
</svg>
