<?xml version="1.0" encoding="UTF-8"?>
<!DOCTYPE svg PUBLIC "-//W3C//DTD SVG 1.1//EN" "http://www.w3.org/Graphics/SVG/1.1/DTD/svg11.dtd">
<svg version="1.2" xmlns="http://www.w3.org/2000/svg" xmlns:xlink="http://www.w3.org/1999/xlink" x="0" y="0" width="701" height="260" viewBox="0 0 701 260">
<style type="text/css"><![CDATA[
text { font:12px Dialog; }
]]></style>
<rect x="-1070" y="-1103" width="3308" height="2460" style="fill:rgb(255,255,255);stroke:none" />
<rect x="-1070" y="-1103" width="3308" height="2460" style="fill:rgb(255,255,255);opacity:0.5098039215686274;stroke:none" />
<clipPath id="clip1"><path d="M25,15 L679,15 L679,245 L25,245 Z M33,101 C28.5817184,101 25,104.5817184 25,109 L25,157 C25,161.4182739 28.5817184,165 33,165 L207,165 C211.4182739,165 215,161.4182739 215,157 L215,109 C215,104.5817184 211.4182739,101 207,101 Z" /></clipPath>
<path d="M225,133 L225,52.7035141 C225,48.2875214 228.5839996,44.7035141 233,44.7035141 L248,44.7035141" style="fill:none;stroke:rgb(1,124,152);stroke-width:2" clip-path="url(#clip1)" />
<clipPath id="clip2"><path d="M25,15 L679,15 L679,245 L25,245 Z M33,101 C28.5817184,101 25,104.5817184 25,109 L25,157 C25,161.4182739 28.5817184,165 33,165 L207,165 C211.4182739,165 215,161.4182739 215,157 L215,109 C215,104.5817184 211.4182739,101 207,101 Z" /></clipPath>
<path d="M225,133 L225,114.6600037 C225,110.2440033 228.5839996,106.6600037 233,106.6600037 L248,106.6600037" style="fill:none;stroke:rgb(0,178,161);stroke-width:2" clip-path="url(#clip2)" />
<clipPath id="clip3"><path d="M25,15 L679,15 L679,245 L25,245 Z M33,101 C28.5817184,101 25,104.5817184 25,109 L25,157 C25,161.4182739 28.5817184,165 33,165 L207,165 C211.4182739,165 215,161.4182739 215,157 L215,109 C215,104.5817184 211.4182739,101 207,101 Z" /></clipPath>
<path d="M225,133 L225,160.6600037 C225,165.076004 228.5839996,168.6600037 233,168.6600037 L248,168.6600037" style="fill:none;stroke:rgb(255,221,0);stroke-width:2" clip-path="url(#clip3)" />
<clipPath id="clip4"><path d="M25,15 L679,15 L679,245 L25,245 Z M33,101 C28.5817184,101 25,104.5817184 25,109 L25,157 C25,161.4182739 28.5817184,165 33,165 L207,165 C211.4182739,165 215,161.4182739 215,157 L215,109 C215,104.5817184 211.4182739,101 207,101 Z" /></clipPath>
<path d="M225,133 L225,214.6582947 C225,219.074295 228.5839996,222.6582947 233,222.6582947 L248,222.6582947" style="fill:none;stroke:rgb(252,143,0);stroke-width:2" clip-path="url(#clip4)" />
<clipPath id="clip5"><path d="M24,14 L680,14 L680,246 L24,246 L24,14 Z" /></clipPath>
<path d="M215,133 L225,133" style="fill:none;stroke:rgb(195,102,79);stroke-width:2" clip-path="url(#clip5)" />
<clipPath id="clip6"><path d="M24,100 L217,100 L217,167 L24,167 L24,100 Z" /></clipPath>
<path d="M33,101 C28.5817184,101 25,104.5817184 25,109 L25,157 C25,161.4182739 28.5817184,165 33,165 L207,165 C211.4182739,165 215,161.4182739 215,157 L215,109 C215,104.5817184 211.4182739,101 207,101 Z" style="fill:rgb(200,20,53);stroke:none" clip-path="url(#clip6)" />
<clipPath id="clip7"><path d="M55,115 L186,115 L186,152 L55,152 L55,115 Z" /></clipPath>
<path d="M64.1692581,131.390625 L71.9036331,131.390625 L72.349678,130.078125 L67.4512405,130.078125 L68.6937943,126.421875 L63.7484818,126.421875 L64.6724319,123.703125 L69.6177444,123.703125 L70.1753006,122.0625 L73.2221756,122.0625 L72.6646194,123.703125 L79.6724319,123.703125 L80.2299881,122.0625 L83.2768631,122.0625 L82.7193069,123.703125 L87.5943069,123.703125 L86.6703568,126.421875 L81.7953568,126.421875 L80.552803,130.078125 L75.630928,130.078125 L75.1848831,131.390625 L82.9192581,131.390625 L80.7686844,137.71875 L73.0343094,137.71875 L72.5723343,139.078125 L82.4863968,139.078125 L81.5624466,141.796875 L71.6483841,141.796875 L70.5332718,145.078125 L67.2520218,145.078125 L68.3671341,141.796875 L58.4061966,141.796875 L59.3301468,139.078125 L69.2910843,139.078125 L69.7530594,137.71875 L62.0186844,137.71875 Z M78.2227859,127.96875 L78.7484818,126.421875 L71.7406693,126.421875 L71.2149734,127.96875 Z M65.893013,135.421875 L70.533638,135.421875 L71.1230545,133.6875 L66.4824295,133.6875 Z M78.455513,135.421875 L79.0449295,133.6875 L74.4043045,133.6875 L73.814888,135.421875 Z M88.8449173,126.609375 L94.6574173,126.609375 C94.31147,125.7421875 93.887886,124.8046875 93.3866653,123.796875 L96.6723099,121.921875 C97.0842972,122.640625 97.771492,123.8828125 98.7338943,125.6484375 L97.0480423,126.609375 L100.9152298,126.609375 C102.7047806,124.9296875 104.2879715,123.3515625 105.6648026,121.875 L108.4423294,123.6328125 L104.9113235,126.609375 L110.9699173,126.609375 L109.854805,129.890625 L87.729805,129.890625 Z M88.43293,133.4765625 L106.62043,133.4765625 L105.5212479,136.7109375 L87.3337479,136.7109375 Z M83.6917801,140.53125 L106.5433426,140.53125 L105.4123001,143.859375 L82.5607376,143.859375 Z M113.6247635,140.625 C115.7318192,140.171875 118.1234207,139.6171875 120.7995682,138.9609375 C120.3176346,140.1953125 119.8959427,141.3671875 119.5344925,142.4765625 C114.5640335,143.5390625 111.2926102,144.4296875 109.7202225,145.1484375 L108.722847,142.359375 C109.6286087,141.625 110.259407,140.734375 110.615242,139.6875 L115.8163528,124.3828125 C122.5897903,123.9921875 128.7055206,123.421875 134.1635284,122.671875 L135.1511993,125.765625 C133.1990356,126.015625 130.852356,126.265625 128.1111603,126.515625 C127.6588821,127.984375 127.1728592,129.6328125 126.6530838,131.4609375 L134.1530914,131.4609375 L133.0938263,134.578125 L125.8867874,134.578125 C124.8747025,139.234375 125.0795975,141.5625 126.5014725,141.5625 C126.80616,141.5625 127.1504593,141.2792969 127.5343704,140.7128906 C127.9182816,140.1464844 128.5891724,138.890625 129.5470734,136.9453125 C130.3765411,137.5390625 131.216629,138.1015625 132.067337,138.6328125 C131.2006226,140.171875 130.4372864,141.4238281 129.7773285,142.3886719 C129.1173401,143.3535156 128.4363708,144.046875 127.7344131,144.46875 C127.0324478,144.890625 126.2595901,145.1015625 125.4158401,145.1015625 C123.5330276,145.1015625 122.3510818,144.2519531 121.8700027,142.5527344 C121.3889236,140.8535156 121.5598831,138.1953125 122.3828812,134.578125 L115.6797562,134.578125 Z M124.5622025,126.8203125 L118.1568069,127.2890625 L116.7390213,131.4609375 L123.1960526,131.4609375 Z M145.1306305,127.125 L146.0386505,124.453125 L148.9449005,124.453125 C149.2097778,123.765625 149.490921,122.984375 149.7882843,122.109375 L152.9054565,122.109375 C152.6293335,122.921875 152.3482056,123.703125 152.0620728,124.453125 L157.3823853,124.453125 L155.3352661,130.4765625 C155.1228638,131.1015625 155.2276001,131.4140625 155.6494751,131.4140625 L155.8838501,131.4140625 C156.3057251,131.4140625 156.6619263,131.1015625 156.9524536,130.4765625 C157.3748169,129.6015625 157.7634277,128.7109375 158.1182861,127.8046875 C158.8345947,128.1796875 159.5980835,128.5078125 160.4087524,128.7890625 C159.8805542,129.9296875 159.3844604,130.9296875 158.9204712,131.7890625 C158.0663452,133.3828125 156.8345947,134.1796875 155.2252197,134.1796875 L153.8658447,134.1796875 C151.943985,134.1796875 151.3468018,133.109375 152.0743408,130.96875 L153.3806152,127.125 L150.919693,127.125 C149.6207428,129.84375 147.7526245,131.984375 145.3153839,133.546875 L148.5028839,133.546875 L147.8656769,135.421875 L157.5922241,135.421875 L156.6842041,138.09375 L148.5982819,138.09375 C150.1087646,139.671875 152.49646,140.921875 155.7613525,141.84375 C154.8696289,142.8125 154.0322876,143.828125 153.2493286,144.890625 C150.1535034,143.609375 147.8677368,141.8984375 146.3920441,139.7578125 L144.5362701,145.21875 L141.3487701,145.21875 L143.2045441,139.7578125 C140.4367218,141.6953125 136.9959106,143.40625 132.8821564,144.890625 C132.7316437,144 132.529129,143.1015625 132.2746124,142.1953125 C136.1206665,141.0390625 139.3743896,139.671875 142.0357819,138.09375 L134.1373444,138.09375 L135.0453644,135.421875 L144.6781769,135.421875 L145.3073273,133.5703125 C144.6902618,133.9609375 144.0158081,134.359375 143.2840118,134.765625 C142.8622437,133.9375 142.3725586,133.1484375 141.8149567,132.3984375 C144.8244781,130.9453125 146.8203278,129.1875 147.8025055,127.125 Z M142.6740875,128.8359375 C142.8098145,129.5859375 143.005249,130.3671875 143.2603912,131.1796875 C140.9240723,132.4453125 138.5717926,133.7578125 136.2035065,135.1171875 L135.634964,132.4453125 C137.7770386,131.4296875 140.1234283,130.2265625 142.6740875,128.8359375 Z M141.954483,121.78125 C143.2364502,122.46875 144.5023193,123.2265625 145.7520905,124.0546875 L143.4411163,126.234375 C142.3009644,125.359375 141.0772247,124.5234375 139.7698517,123.7265625 Z M139.3303986,125.2265625 C140.4667511,125.8828125 141.6312256,126.6171875 142.8238678,127.4296875 L140.520401,129.65625 C139.4630127,128.859375 138.3300934,128.078125 137.1215973,127.3125 Z M181.4221191,123.75 L180.5459595,126.328125 L177.7539673,128.578125 L182.593811,128.578125 L179.6307983,137.296875 L164.4432983,137.296875 L163.7423706,139.359375 C163.237854,140.84375 163.7512207,141.5859375 165.2824707,141.5859375 L174.7512207,141.5859375 C175.3918457,141.5859375 175.934845,141.4824219 176.3802185,141.2753906 C176.825592,141.0683594 177.1732178,140.7753906 177.4230957,140.3964844 C177.6729736,140.0175781 178.1871338,139.0390625 178.9655762,137.4609375 C180.1600342,137.9921875 181.0222778,138.3515625 181.5523071,138.5390625 C180.6668091,140.15625 179.961731,141.3574219 179.4370728,142.1425781 C178.9124146,142.9277344 178.1676331,143.5273438 177.2027283,143.9414063 C176.2378235,144.3554688 175.0600586,144.5625 173.6694336,144.5625 L163.2631836,144.5625 C160.1850586,144.5625 159.1345215,143.125 160.1115723,140.25 L163.1461792,131.3203125 C162.7802124,131.546875 162.4089966,131.765625 162.0325317,131.9765625 C161.8983765,130.9921875 161.6965332,130 161.427002,129 C165.1223145,127 168.2366333,124.640625 170.7699585,121.921875 L174.3150635,122.1796875 C173.845459,122.7109375 173.3590088,123.234375 172.8557129,123.75 Z M167.265686,128.578125 L173.8633423,128.578125 L176.5375977,126.3984375 L170.0219727,126.3984375 C169.1420898,127.1484375 168.2233276,127.875 167.265686,128.578125 Z M165.3513184,134.625 L169.6872559,134.625 L170.8342285,131.25 L166.498291,131.25 Z M177.2575684,134.625 L178.404541,131.25 L174.0686035,131.25 L172.9216309,134.625 Z" style="fill:rgb(255,255,255);stroke:none" clip-path="url(#clip7)" />
<clipPath id="clip8"><path d="M247,15 L493,15 L493,67 L247,67 Z M253,24 C250.2385712,24 248,26.2385712 248,29 L248,60 C248,62.7614288 250.2385712,65 253,65 L324,65 C326.7614136,65 329,62.7614288 329,60 L329,29 C329,26.2385712 326.7614136,24 324,24 Z" /></clipPath>
<path d="M342.9998169,44.7711411 L342.9998169,45 L351,45" style="fill:none;stroke:rgb(1,124,152);stroke-width:2" clip-path="url(#clip8)" />
<clipPath id="clip9"><path d="M246,14 L494,14 L494,68 L246,68 L246,14 Z" /></clipPath>
<path d="M329,44.7014923 L342.9998169,44.7711411" style="fill:none;stroke:rgb(1,124,152);stroke-width:2" clip-path="url(#clip9)" />
<clipPath id="clip10"><path d="M246,22 L332,22 L332,68 L246,68 L246,22 Z" /></clipPath>
<path d="M253,24 C250.2385712,24 248,26.2385712 248,29 L248,60 C248,62.7614288 250.2385712,65 253,65 L324,65 C326.7614136,65 329,62.7614288 329,60 L329,29 C329,26.2385712 326.7614136,24 324,24 Z" style="fill:rgb(255,255,255);stroke:none" clip-path="url(#clip10)" />
<clipPath id="clip11"><path d="M246,22 L332,22 L332,68 L246,68 L246,22 Z" /></clipPath>
<path d="M253,24 C250.2385712,24 248,26.2385712 248,29 L248,60 C248,62.7614288 250.2385712,65 253,65 L324,65 C326.7614136,65 329,62.7614288 329,60 L329,29 C329,26.2385712 326.7614136,24 324,24 Z" style="fill:none;stroke:rgb(1,124,152);stroke-width:2" clip-path="url(#clip11)" />
<clipPath id="clip12"><path d="M260,31 L318,31 L318,59 L260,59 L260,31 Z" /></clipPath>
<path d="M269.5327148,46.4858398 L278.2983398,46.4858398 L278.2983398,53.2260742 L277.003418,53.2260742 L277.003418,52.1967773 L270.8276367,52.1967773 L270.8276367,53.2260742 L269.5327148,53.2260742 Z M269.2006836,43.331543 L273.2514648,43.331543 L273.2514648,40.7416992 L268.652832,40.7416992 L268.652832,39.5463867 L273.2514648,39.5463867 L273.2514648,36.8901367 L274.5795898,36.8901367 L274.5795898,39.5463867 L279.2280273,39.5463867 L279.2280273,40.7416992 L274.5795898,40.7416992 L274.5795898,43.331543 L278.6469727,43.331543 L278.6469727,44.5268555 L269.2006836,44.5268555 Z M264.934082,46.8676758 C266.4060669,46.6573868 267.6235352,46.4692383 268.5864258,46.3032227 C268.5200195,46.7348633 268.4702148,47.1554337 268.4370117,47.5649414 C267.2084961,47.7420197 265.5317383,48.0021133 263.4067383,48.3452148 L263.1411133,47.1166992 C263.8494263,46.3806915 264.6933594,45.2130508 265.6728516,43.6137695 C264.7431641,43.6746368 263.899231,43.7355118 263.1411133,43.7963867 L262.8256836,42.6674805 C263.8439026,41.3061523 264.9008789,39.341629 265.996582,36.7739258 L267.2583008,37.2719727 C266.0629883,39.6183243 265.0834961,41.3836212 264.3198242,42.5678711 C264.961731,42.5512695 265.6313477,42.5318985 266.3286133,42.5097656 C266.704895,41.867836 267.0978088,41.1678009 267.5073242,40.409668 L268.7358398,41.0239258 C267.4741211,43.1267853 266.2068481,45.074707 264.934082,46.8676758 Z M277.003418,47.6479492 L270.8276367,47.6479492 L270.8276367,51.034668 L277.003418,51.034668 Z M262.7592773,50.7856445 C264.8067932,50.387207 266.8045044,49.9500275 268.7524414,49.4741211 C268.7192383,49.9168243 268.7026367,50.3374023 268.7026367,50.7358398 C266.909668,51.1121368 265.050293,51.5548477 263.1245117,52.0639648 Z M282.6894531,37.7202148 L294.2773438,37.7202148 L294.2773438,44.5600586 L293.015625,44.5600586 L293.015625,43.9790039 L283.9511719,43.9790039 L283.9511719,44.5600586 L282.6894531,44.5600586 Z M289.4462891,45.2905273 L296.0205078,45.2905273 L296.0205078,53.1264648 L294.7919922,53.1264648 L294.7919922,52.2963867 L290.6748047,52.2963867 L290.6748047,53.1264648 L289.4462891,53.1264648 Z M281.1455078,45.3071289 L287.6533203,45.3071289 L287.6533203,53.1430664 L286.4248047,53.1430664 L286.4248047,52.2963867 L282.3740234,52.2963867 L282.3740234,53.1430664 L281.1455078,53.1430664 Z M293.015625,40.3100586 L293.015625,38.815918 L283.9511719,38.815918 L283.9511719,40.3100586 Z M290.6748047,49.3081055 L290.6748047,51.2338867 L294.7919922,51.2338867 L294.7919922,49.3081055 Z M290.6748047,48.2788086 L294.7919922,48.2788086 L294.7919922,46.3530273 L290.6748047,46.3530273 Z M282.3740234,49.3081055 L282.3740234,51.2338867 L286.4248047,51.2338867 L286.4248047,49.3081055 Z M282.3740234,46.3696289 L282.3740234,48.2788086 L286.4248047,48.2788086 L286.4248047,46.3696289 Z M283.9511719,42.8833008 L293.015625,42.8833008 L293.015625,41.3725586 L283.9511719,41.3725586 Z M309.9907227,46.0043945 C311.3077698,47.1000977 312.4643555,48.107254 313.4604492,49.0258789 L312.5307617,49.8891602 C312.1323242,49.4907227 311.7394104,49.1033478 311.3520508,48.7270508 C309.9298401,48.793457 308.5021057,48.8626251 307.0688477,48.9345703 L307.0688477,51.0180664 C307.0688477,52.3461914 306.4158325,53.0102539 305.1098633,53.0102539 C304.4458008,53.0102539 303.7540588,52.9991837 303.034668,52.9770508 C302.990387,52.6007462 302.9239807,52.1635742 302.8354492,51.6655273 C303.5880432,51.7540665 304.2576294,51.7983398 304.8442383,51.7983398 C305.486145,51.7983398 305.8071289,51.4939728 305.8071289,50.8852539 L305.8071289,49.0009766 C304.5564575,49.0618439 303.3058167,49.1254883 302.0551758,49.1918945 C301.3136292,49.2361603 300.6716919,49.3081055 300.1293945,49.4077148 L299.4487305,48.0961914 C300.3009338,47.9301758 301.0369263,47.730957 301.6567383,47.4985352 C303.1730042,46.9562149 304.5592346,46.4249649 305.8154297,45.9047852 C304.5149536,45.9933243 303.1951294,46.0929337 301.855957,46.2036133 C301.4464417,46.247879 301.0369263,46.3032227 300.6274414,46.3696289 L300.0629883,45.2573242 C300.5610352,45.1466446 301.0756836,44.980629 301.6069336,44.7592773 C303.1342773,44.0398712 304.274231,43.4532852 305.0268555,42.9995117 L306.0063477,43.7133789 C304.733551,44.277832 303.521637,44.8035431 302.3706055,45.2905273 C304.3240356,45.185379 306.2055664,45.0664063 308.0151367,44.9335938 C308.7234497,44.6070938 309.3764648,44.2833633 309.9741211,43.9624023 L310.9702148,44.809082 C308.4799805,45.9158478 305.6134338,47.050293 302.3706055,48.2124023 C305.3588867,48.0961914 308.0317383,47.9633789 310.3891602,47.8139648 C309.9685669,47.42659 309.559082,47.0558243 309.1606445,46.7016602 Z M299.2163086,38.1850586 L300.4282227,38.1850586 L300.4282227,42.2607422 C301.1254883,42.1721954 301.8061523,42.0836563 302.4702148,41.9951172 L302.4702148,36.9399414 L303.6987305,36.9399414 L303.6987305,38.7993164 L306.487793,38.7993164 L306.487793,39.8618164 L303.6987305,39.8618164 L303.6987305,41.8291016 C304.6616211,41.6962891 305.5968323,41.5607071 306.5043945,41.4223633 C306.4490356,41.8208008 306.4103088,42.1970978 306.3881836,42.5512695 C303.7651367,42.8943634 301.059082,43.326004 298.2700195,43.8461914 L297.9711914,42.5678711 C298.3917542,42.5180664 298.8067932,42.4682617 299.2163086,42.418457 Z M312.2651367,37.4545898 L313.1782227,38.4174805 C311.5733948,39.3305664 309.9519653,40.144043 308.3139648,40.8579102 L308.3139648,41.2895508 C308.3139648,41.9868164 308.6404419,42.3354492 309.293457,42.3354492 L311.6342773,42.3354492 C312.242981,42.3354492 312.6192932,42.058754 312.7631836,41.5053711 C312.862793,41.0626602 312.9402466,40.4207306 312.9956055,39.5795898 C313.4272461,39.7898712 313.8422852,39.9669571 314.2407227,40.1108398 C314.1300354,40.8966446 314.0249023,41.5219727 313.925293,41.9868164 C313.7149963,42.9939728 313.012207,43.4975586 311.8168945,43.4975586 L308.9946289,43.4975586 C307.7218323,43.4975586 307.0854492,42.8445587 307.0854492,41.5385742 L307.0854492,36.9233398 L308.3139648,36.9233398 L308.3139648,39.5961914 C309.7140198,38.9542618 311.0310669,38.2403946 312.2651367,37.4545898 Z M308.5463867,50.5864258 L309.1938477,49.5571289 C310.798645,50.2433243 312.3204651,50.9239883 313.7592773,51.5991211 L313.0288086,52.7944336 C311.6010742,52.0307617 310.1069336,51.294754 308.5463867,50.5864258 Z M302.5366211,49.4907227 L303.3666992,50.4702148 C301.617981,51.5216446 300.1515198,52.3240509 298.9672852,52.8774414 C298.8012695,52.6007462 298.5743713,52.2299805 298.2866211,51.7651367 C299.4708557,51.2670898 300.8875122,50.5089493 302.5366211,49.4907227 Z" style="fill:rgb(81,81,81);stroke:none" clip-path="url(#clip12)" />
<clipPath id="clip13"><path d="M350,15 L493,15 L493,61 L350,61 Z M351,16 L351,44 L415,44 L415,16 Z" /></clipPath>
<path d="M429,45 C429,45 430.7919922,45 433,45 L437,45" style="fill:none;stroke:rgb(1,124,152);stroke-width:2" clip-path="url(#clip13)" />
<clipPath id="clip14"><path d="M349,14 L494,14 L494,62 L349,62 L349,14 Z" /></clipPath>
<path d="M415,45 L429,45" style="fill:none;stroke:rgb(1,124,152);stroke-width:2" clip-path="url(#clip14)" />
<clipPath id="clip15"><path d="M349,14 L418,14 L418,47 L349,47 L349,14 Z" /></clipPath>
<path d="M351,45 L415,45 Z" style="fill:none;stroke:rgb(1,124,152);stroke-width:2" clip-path="url(#clip15)" />
<clipPath id="clip16"><path d="M360,18 L407,18 L407,43 L360,43 L360,18 Z" /></clipPath>
<path d="M366.223877,36.4289551 L366.223877,26.7243652 C365.9992676,26.9489746 365.6196289,27.2004395 365.0849609,27.4787598 C364.550293,27.7570801 364.0559082,27.9523926 363.6018066,28.0646973 L363.6018066,26.6584473 C364.2023926,26.4924316 364.8444824,26.2275391 365.5280762,25.8637695 C366.2116699,25.5 366.7365723,25.1569824 367.1027832,24.8347168 L367.6447754,24.8347168 L367.6447754,36.4289551 Z M388.6213379,36.4289551 L387.185791,36.4289551 L387.185791,31.7780762 C387.185791,30.8991699 387.0490417,30.2705078 386.7756348,29.8920898 C386.5021667,29.5136719 386.052948,29.3244629 385.4279785,29.3244629 C384.9006348,29.3244629 384.4489441,29.5710449 384.072998,30.064209 C383.696991,30.557373 383.5090332,31.1408691 383.5090332,31.8146973 L383.5090332,36.4289551 L382.0734863,36.4289551 L382.0734863,31.6315918 C382.0734558,30.0935059 381.4801941,29.3244629 380.2937012,29.3244629 C379.7467957,29.3244629 379.2939453,29.5588379 378.9350586,30.0275879 C378.5761719,30.4963379 378.3967285,31.0944824 378.3967285,31.8220215 L378.3967285,36.4289551 L376.9611816,36.4289551 L376.9611816,28.3283691 L378.3967285,28.3283691 L378.3967285,29.6101074 L378.4260254,29.6101074 C379.0021667,28.6286621 379.8444519,28.1379395 380.9528809,28.1379395 C381.4948425,28.1379395 381.9733582,28.2868652 382.3884277,28.5847168 C382.8034363,28.8825684 383.0915527,29.2854004 383.2526855,29.7932129 C383.8532715,28.6896973 384.7516785,28.1379395 385.947998,28.1379395 C387.7301941,28.1379395 388.6213074,29.2365723 388.6213379,31.4338379 Z M391.2653809,25.4719238 C391.2653809,25.2180176 391.3520203,25.0043945 391.5253906,24.8310547 C391.6987,24.6577148 391.912323,24.5710449 392.1662598,24.5710449 C392.4250183,24.5710449 392.6435242,24.6564941 392.8217773,24.8273926 C392.9999695,24.998291 393.0891113,25.2131348 393.0891113,25.4719238 C393.0891113,25.7258301 392.9999695,25.9370117 392.8217773,26.1054688 C392.6435242,26.2739258 392.4250183,26.3581543 392.1662598,26.3581543 C391.9074402,26.3581543 391.6925964,26.2739258 391.5217285,26.1054688 C391.3507996,25.9370117 391.2653809,25.7258301 391.2653809,25.4719238 Z M391.4338379,36.4289551 L391.4338379,28.3283691 L392.8693848,28.3283691 L392.8693848,36.4289551 Z M402.3981934,36.4289551 L400.9699707,36.4289551 L400.9699707,31.8220215 C400.9699402,30.1569824 400.36203,29.3244629 399.1462402,29.3244629 C398.5163574,29.3244629 397.9987488,29.5588379 397.5935059,30.0275879 C397.1882019,30.4963379 396.9855957,31.0895996 396.9855957,31.807373 L396.9855957,36.4289551 L395.5500488,36.4289551 L395.5500488,28.3283691 L396.9855957,28.3283691 L396.9855957,29.6687012 L397.0148926,29.6687012 C397.6252136,28.6481934 398.5114441,28.1379395 399.673584,28.1379395 C400.5622253,28.1379395 401.2384949,28.4223633 401.7023926,28.9912109 C402.1662292,29.5600586 402.3981934,30.388916 402.3981934,31.4777832 Z" style="fill:rgb(81,81,81);stroke:none" clip-path="url(#clip16)" />
<clipPath id="clip17"><path d="M435,29 L494,29 L494,62 L435,62 L435,29 Z" /></clipPath>
<path d="M440,31 C438.3431396,31 437,32.3431473 437,34 L437,56 C437,57.6568527 438.3431396,59 440,59 L488,59 C489.6568604,59 491,57.6568527 491,56 L491,34 C491,32.3431473 489.6568604,31 488,31 Z" style="fill:none;stroke:rgb(1,124,152);stroke-width:2" clip-path="url(#clip17)" />
<clipPath id="clip18"><path d="M446,33 L483,33 L483,58 L446,58 L446,33 Z" /></clipPath>
<path d="M455.5734863,38.2856445 L456.7600098,38.2856445 L456.7600098,40.6367188 C457.1799011,41.7792969 457.6608887,42.8413086 458.2028809,43.8227539 C459.2819519,42.9243164 460.3586121,41.8500977 461.4328613,40.6000977 L462.4143066,41.4790039 C461.2717285,42.675293 460.0656433,43.7910156 458.7961426,44.8261719 C460.0852051,46.8671875 461.662323,48.5249023 463.5275879,49.7993164 C463.1174011,50.2094727 462.7853699,50.5756836 462.5314941,50.8979492 C459.9631042,48.8764648 458.0392761,46.3740234 456.7600098,43.390625 L456.7600098,50.2387695 C456.7600098,51.69384 456.0617371,52.4213867 454.6652832,52.4213867 C454.2355652,52.4213867 453.6007996,52.4164963 452.7609863,52.4067383 C452.7121277,52.0454025 452.6340027,51.6059494 452.5266113,51.0883789 C453.3078308,51.1664963 453.9425964,51.2055664 454.4309082,51.2055664 C455.1925964,51.2055664 455.5734558,50.8393478 455.5734863,50.1069336 Z M449.3186035,42.9731445 L449.3186035,41.8598633 L454.3723145,41.8598633 L454.3723145,42.9291992 C453.5422058,46.1323242 452.0285339,48.8764648 449.8312988,51.1616211 C449.4992371,50.7807617 449.201416,50.4829025 448.9377441,50.2680664 C451.1447449,47.9438477 452.5656433,45.5121994 453.2004395,42.9731445 Z M468.017334,44.965332 L473.0124512,44.965332 L473.0124512,41.9916992 L470.3903809,41.9916992 C470.087616,42.7583008 469.7507019,43.480957 469.3796387,44.159668 C469.0280762,43.9643555 468.6618652,43.7739258 468.2810059,43.5883789 C469.1306152,42.1918945 469.7409363,40.6391602 470.1120605,38.9301758 L471.2839355,39.1791992 C471.1325378,39.7797852 470.9640808,40.355957 470.7785645,40.9077148 L473.0124512,40.9077148 L473.0124512,38.2563477 L474.1843262,38.2563477 L474.1843262,40.9077148 L478.0808105,40.9077148 L478.0808105,41.9916992 L474.1843262,41.9916992 L474.1843262,44.965332 L478.8278809,44.965332 L478.8278809,46.0493164 L475.3415527,46.0493164 L475.3415527,50.3999023 C475.3415527,50.888176 475.5612793,51.1323242 476.0007324,51.1323242 L476.9821777,51.1323242 C477.4216309,51.1323242 477.6803894,50.9028244 477.7585449,50.4438477 C477.8464355,49.8774414 477.9147644,49.247551 477.963623,48.5541992 C478.315155,48.7202148 478.681366,48.8666992 479.0622559,48.9936523 C478.9743347,49.716301 478.8766785,50.3413086 478.7692871,50.8686523 C478.6228027,51.7280197 478.0905457,52.1577148 477.1726074,52.1577148 L475.6052246,52.1577148 C474.6579285,52.1577148 474.1843262,51.6059494 474.1843262,50.5024414 L474.1843262,46.0493164 L472.104248,46.0493164 C472.1237488,49.3598633 470.8102722,51.591301 468.1638184,52.7436523 C467.9391785,52.4116135 467.6804199,52.0746994 467.3874512,51.7329102 C469.7507019,50.7661133 470.9372253,48.8715744 470.9470215,46.0493164 L468.017334,46.0493164 Z M466.1130371,46.5620117 C466.5231934,46.7573242 466.9187012,46.918457 467.2995605,47.0454102 C466.8015137,49.0766525 466.3669128,50.9125977 465.9958496,52.5532227 L464.7067871,52.1723633 C465.1950378,50.6489258 465.6637878,48.778801 466.1130371,46.5620117 Z M465.1022949,42.3286133 C465.776123,42.7875977 466.6306152,43.4467773 467.6657715,44.3061523 C467.3044128,44.706543 467.0212402,45.019043 466.8161621,45.2436523 C465.7712402,44.2963867 464.9558105,43.6030273 464.369873,43.1635742 Z M465.673584,38.5493164 C466.4450378,39.1547852 467.2799988,39.862793 468.1784668,40.6733398 C467.846405,40.9956055 467.5534363,41.2885742 467.2995605,41.5522461 C466.2253113,40.4975586 465.4342957,39.7651367 464.9265137,39.3549805 Z" style="fill:rgb(81,81,81);stroke:none" clip-path="url(#clip18)" />
<clipPath id="clip19"><path d="M247,77 L679,77 L679,129 L247,129 Z M253,86 C250.2385712,86 248,88.2385712 248,91 L248,122 C248,124.7614288 250.2385712,127 253,127 L307,127 C309.7614136,127 312,124.7614288 312,122 L312,91 C312,88.2385712 309.7614136,86 307,86 Z" /></clipPath>
<path d="M325.9998169,106.7299957 C325.9998169,106.8790436 327.7918091,107 329.9998169,107 L334,107" style="fill:none;stroke:rgb(0,178,161);stroke-width:2" clip-path="url(#clip19)" />
<clipPath id="clip20"><path d="M246,76 L680,76 L680,130 L246,130 L246,76 Z" /></clipPath>
<path d="M312,106.6600037 L325.9998169,106.7299957" style="fill:none;stroke:rgb(0,178,161);stroke-width:2" clip-path="url(#clip20)" />
<clipPath id="clip21"><path d="M246,84 L315,84 L315,130 L246,130 L246,84 Z" /></clipPath>
<path d="M253,86 C250.2385712,86 248,88.2385712 248,91 L248,122 C248,124.7614288 250.2385712,127 253,127 L307,127 C309.7614136,127 312,124.7614288 312,122 L312,91 C312,88.2385712 309.7614136,86 307,86 Z" style="fill:rgb(255,255,255);stroke:none" clip-path="url(#clip21)" />
<clipPath id="clip22"><path d="M246,84 L315,84 L315,130 L246,130 L246,84 Z" /></clipPath>
<path d="M253,86 C250.2385712,86 248,88.2385712 248,91 L248,122 C248,124.7614288 250.2385712,127 253,127 L307,127 C309.7614136,127 312,124.7614288 312,122 L312,91 C312,88.2385712 309.7614136,86 307,86 Z" style="fill:none;stroke:rgb(0,178,161);stroke-width:2" clip-path="url(#clip22)" />
<clipPath id="clip23"><path d="M260,93 L301,93 L301,121 L260,121 L260,93 Z" /></clipPath>
<path d="M268.748291,109.6728516 L269.5783691,109.6728516 L269.5783691,101.0234375 L272.2678223,101.0234375 L272.2678223,98.8652344 L273.3967285,98.8652344 L273.3967285,101.0234375 L274.9572754,101.0234375 L274.9572754,98.8320313 L276.0861816,98.8320313 L276.0861816,101.0234375 L278.7756348,101.0234375 L278.7756348,109.6728516 L279.6721191,109.6728516 L279.6721191,110.7353516 L268.748291,110.7353516 Z M262.904541,108.0957031 C264.1219788,106.1367188 265.0129395,103.8512344 265.5773926,101.2392578 L263.3693848,101.2392578 L263.3693848,100.1435547 L269.130127,100.1435547 L269.130127,101.2392578 L266.8391113,101.2392578 C266.5402832,102.5341797 266.1916504,103.7405548 265.7932129,104.8583984 L268.3830566,104.8583984 L268.3830566,112.8769531 L265.7102051,112.8769531 L265.7102051,114.0224609 L264.614502,114.0224609 L264.614502,107.5644531 C264.3377991,108.0957031 264.0444946,108.5992813 263.7346191,109.0751953 C263.4911194,108.7763672 263.2144165,108.4498672 262.904541,108.0957031 Z M267.2873535,105.9541016 L265.7102051,105.9541016 L265.7102051,111.78125 L267.2873535,111.78125 Z M272.1350098,111.2333984 L273.1643066,112.0800781 C272.0021973,113.1536407 270.7404785,114.2327423 269.3791504,115.3173828 C269.1467285,115.0628204 268.8534241,114.7529297 268.4992676,114.3876953 C269.8273926,113.4026642 271.0393066,112.3512344 272.1350098,111.2333984 Z M275.1398926,112.2460938 L275.9865723,111.3164063 C277.4807129,112.3567657 278.7092285,113.2532501 279.6721191,114.0058594 L278.7590332,115.1015625 C277.3202209,113.8730469 276.1138306,112.9212189 275.1398926,112.2460938 Z M270.7072754,109.6728516 L272.2678223,109.6728516 L272.2678223,106.2197266 L270.7072754,106.2197266 Z M273.3967285,109.6728516 L274.9572754,109.6728516 L274.9572754,106.2197266 L273.3967285,106.2197266 Z M276.0861816,109.6728516 L277.6467285,109.6728516 L277.6467285,106.2197266 L276.0861816,106.2197266 Z M270.7072754,105.1904297 L272.2678223,105.1904297 L272.2678223,102.0859375 L270.7072754,102.0859375 Z M273.3967285,105.1904297 L274.9572754,105.1904297 L274.9572754,102.0859375 L273.3967285,102.0859375 Z M277.6467285,102.0859375 L276.0861816,102.0859375 L276.0861816,105.1904297 L277.6467285,105.1904297 Z M287.682373,107.9628906 C289.1433105,106.0149689 290.1394043,104.0891876 290.6706543,102.1855469 L291.8825684,102.4511719 C291.7054749,103.0377579 291.5007324,103.6132813 291.2683105,104.1777344 L295.9997559,104.1777344 L295.9997559,105.2900391 C295.4353027,107.9794922 294.500061,110.0878906 293.1940918,111.6152344 C294.1791077,112.5006485 295.4795532,113.2311172 297.095459,113.8066406 C296.9515686,113.9837189 296.669342,114.3876953 296.2487793,115.0185547 C294.6439514,114.3102188 293.332428,113.4801407 292.314209,112.5283203 C291.2849121,113.4801407 290.0010376,114.3655548 288.4626465,115.1845703 C288.1859436,114.7861328 287.8981934,114.4153595 287.5993652,114.0722656 C289.1377563,113.2975235 290.410553,112.4508438 291.4177246,111.5322266 C290.5986938,110.5139923 289.9401855,109.2080078 289.4421387,107.6142578 C289.0879517,108.1455078 288.7061157,108.6767578 288.2966309,109.2080078 C288.0974121,108.7431641 287.8926392,108.328125 287.682373,107.9628906 Z M284.0466309,108.2119141 C285.5739746,106.2529297 286.6807251,104.2220001 287.3669434,102.1191406 L288.5622559,102.4013672 C288.1970215,103.4195938 287.7930298,104.3880157 287.3503418,105.3066406 L287.3503418,115.1347656 L286.1550293,115.1347656 L286.1550293,107.4316406 C285.6680298,108.1953125 285.1478577,108.9091797 284.5944824,109.5732422 C284.406311,108.9977188 284.2236938,108.5439453 284.0466309,108.2119141 Z M285.291748,100.8408203 L290.8200684,100.8408203 C290.4769592,100.1878204 290.1781311,99.6399689 289.923584,99.1972656 L291.1022949,98.6826172 C291.3679199,99.1253204 291.7054749,99.7285156 292.1149902,100.4921875 L291.3181152,100.8408203 L296.9460449,100.8408203 L296.9460449,101.953125 L285.291748,101.953125 Z M290.2556152,106.2861328 C290.7868652,108.1344376 291.4619751,109.5898438 292.2810059,110.6523438 C293.4652405,109.2799454 294.2565918,107.4869766 294.6550293,105.2734375 L290.7702637,105.2734375 C290.604248,105.6054688 290.4326782,105.9430313 290.2556152,106.2861328 Z M281.1413574,114.5371094 C281.794342,112.5449219 282.3643188,110.4033203 282.8513184,108.1123047 C283.2165527,108.2783203 283.6371155,108.4498672 284.1130371,108.6269531 C283.6039124,110.6412735 283.0726624,112.7607422 282.5192871,114.9853516 Z M280.5935059,104.2939453 L281.4401855,103.3476563 C282.4694824,104.0449219 283.4268188,104.7587891 284.3122559,105.4892578 C283.9027405,105.9430313 283.5762329,106.2971954 283.3327637,106.5517578 C282.325592,105.6552734 281.4125061,104.9026642 280.5935059,104.2939453 Z M281.2409668,99.9609375 L282.104248,99.0810547 C282.8347168,99.6344376 283.7865295,100.414711 284.9597168,101.421875 C284.5834045,101.7871094 284.2513733,102.1136017 283.963623,102.4013672 C282.8236389,101.3277969 281.9160767,100.5143204 281.2409668,99.9609375 Z M291.1520996,106.4521484 L292.1647949,105.9707031 C292.5189514,106.5683594 292.8952637,107.2490234 293.2937012,108.0126953 L292.2644043,108.5439453 C291.9544983,107.9020157 291.5837402,107.2047501 291.1520996,106.4521484 Z" style="fill:rgb(81,81,81);stroke:none" clip-path="url(#clip23)" />
<clipPath id="clip24"><path d="M333,77 L679,77 L679,123 L333,123 Z M334,78 L334,106 L413,106 L413,78 Z" /></clipPath>
<path d="M427,107 C427,107 428.7919922,107 431,107 L435,107" style="fill:none;stroke:rgb(0,178,161);stroke-width:2" clip-path="url(#clip24)" />
<clipPath id="clip25"><path d="M332,76 L680,76 L680,124 L332,124 L332,76 Z" /></clipPath>
<path d="M413,107 L427,107" style="fill:none;stroke:rgb(0,178,161);stroke-width:2" clip-path="url(#clip25)" />
<clipPath id="clip26"><path d="M332,76 L416,76 L416,109 L332,109 L332,76 Z" /></clipPath>
<path d="M334,107 L413,107 Z" style="fill:none;stroke:rgb(0,178,161);stroke-width:2" clip-path="url(#clip26)" />
<clipPath id="clip27"><path d="M343,80 L405,80 L405,105 L343,105 L343,80 Z" /></clipPath>
<path d="M348.8503418,98.4289551 L348.8503418,88.7243652 C348.6257324,88.9489746 348.2460938,89.2004395 347.7114258,89.4787598 C347.1767578,89.7570801 346.682373,89.9523926 346.2282715,90.0646973 L346.2282715,88.6584473 C346.8288574,88.4924316 347.4709473,88.2275391 348.154541,87.8637695 C348.8381348,87.5 349.3630371,87.1569824 349.729248,86.8347168 L350.2712402,86.8347168 L350.2712402,98.4289551 Z M359.1921387,94.4885254 L354.8781738,94.4885254 L354.8781738,93.3825684 L359.1921387,93.3825684 Z M366.670166,90.057373 C366.670166,89.4470215 366.4772949,88.9672852 366.0915527,88.6181641 C365.7058105,88.269043 365.1809082,88.0944824 364.5168457,88.0944824 C364.0480957,88.0944824 363.5744629,88.2141113 363.0959473,88.4533691 C362.6174316,88.692627 362.1706543,89.0344238 361.7556152,89.4787598 L361.7556152,88.0871582 C362.126709,87.701416 362.5478516,87.4060059 363.019043,87.2009277 C363.4902344,86.9958496 364.0432129,86.8933105 364.6779785,86.8933105 C365.7033691,86.8933105 366.5285645,87.1679688 367.1535645,87.7172852 C367.7785645,88.2666016 368.0910645,89.0100098 368.0910645,89.9475098 C368.0910645,90.7824707 367.8994141,91.505127 367.5161133,92.1154785 C367.1328125,92.7258301 366.4772949,93.3508301 365.5495605,93.9904785 C364.6022949,94.6447754 363.96875,95.1135254 363.6489258,95.3967285 C363.3291016,95.6799316 363.1057129,95.9509277 362.9787598,96.2097168 C362.8518066,96.4685059 362.7883301,96.7834473 362.7883301,97.154541 L368.4279785,97.154541 L368.4279785,98.4289551 L361.2941895,98.4289551 L361.2941895,97.8649902 C361.2941895,97.2106934 361.3833008,96.6552734 361.5615234,96.1987305 C361.7397461,95.7421875 362.0339355,95.2978516 362.4440918,94.8657227 C362.854248,94.4335938 363.4938965,93.9147949 364.3630371,93.3093262 C365.251709,92.6843262 365.8583984,92.1362305 366.1831055,91.6650391 C366.5078125,91.1938477 366.670166,90.657959 366.670166,90.057373 Z M386.994873,98.4289551 L385.5593262,98.4289551 L385.5593262,93.7780762 C385.5593262,92.8991699 385.4225769,92.2705078 385.1491699,91.8920898 C384.8757019,91.5136719 384.4264832,91.3244629 383.8015137,91.3244629 C383.2741699,91.3244629 382.8224792,91.5710449 382.4465332,92.064209 C382.0705261,92.557373 381.8825684,93.1408691 381.8825684,93.8146973 L381.8825684,98.4289551 L380.4470215,98.4289551 L380.4470215,93.6315918 C380.446991,92.0935059 379.8537292,91.3244629 378.6672363,91.3244629 C378.1203308,91.3244629 377.6674805,91.5588379 377.3085938,92.0275879 C376.949707,92.4963379 376.7702637,93.0944824 376.7702637,93.8220215 L376.7702637,98.4289551 L375.3347168,98.4289551 L375.3347168,90.3283691 L376.7702637,90.3283691 L376.7702637,91.6101074 L376.7995605,91.6101074 C377.3757019,90.6286621 378.2179871,90.1379395 379.326416,90.1379395 C379.8683777,90.1379395 380.3468933,90.2868652 380.7619629,90.5847168 C381.1769714,90.8825684 381.4650879,91.2854004 381.6262207,91.7932129 C382.2268066,90.6896973 383.1252136,90.1379395 384.3215332,90.1379395 C386.1037292,90.1379395 386.9948425,91.2365723 386.994873,93.4338379 Z M389.638916,87.4719238 C389.638916,87.2180176 389.7255554,87.0043945 389.8989258,86.8310547 C390.0722351,86.6577148 390.2858582,86.5710449 390.5397949,86.5710449 C390.7985535,86.5710449 391.0170593,86.6564941 391.1953125,86.8273926 C391.3735046,86.998291 391.4626465,87.2131348 391.4626465,87.4719238 C391.4626465,87.7258301 391.3735046,87.9370117 391.1953125,88.1054688 C391.0170593,88.2739258 390.7985535,88.3581543 390.5397949,88.3581543 C390.2809753,88.3581543 390.0661316,88.2739258 389.8952637,88.1054688 C389.7243347,87.9370117 389.638916,87.7258301 389.638916,87.4719238 Z M389.807373,98.4289551 L389.807373,90.3283691 L391.2429199,90.3283691 L391.2429199,98.4289551 Z M400.7717285,98.4289551 L399.3435059,98.4289551 L399.3435059,93.8220215 C399.3434753,92.1569824 398.7355652,91.3244629 397.5197754,91.3244629 C396.8898926,91.3244629 396.3722839,91.5588379 395.967041,92.0275879 C395.5617371,92.4963379 395.3591309,93.0895996 395.3591309,93.807373 L395.3591309,98.4289551 L393.923584,98.4289551 L393.923584,90.3283691 L395.3591309,90.3283691 L395.3591309,91.6687012 L395.3884277,91.6687012 C395.9987488,90.6481934 396.8849792,90.1379395 398.0471191,90.1379395 C398.9357605,90.1379395 399.61203,90.4223633 400.0759277,90.9912109 C400.5397644,91.5600586 400.7717285,92.388916 400.7717285,93.4777832 Z" style="fill:rgb(81,81,81);stroke:none" clip-path="url(#clip27)" />
<clipPath id="clip28"><path d="M434,77 L679,77 L679,123 L434,123 Z M438,93 C436.3431396,93 435,94.3431396 435,96 L435,118 C435,119.6568527 436.3431396,121 438,121 L500,121 C501.6568604,121 503,119.6568527 503,118 L503,96 C503,94.3431396 501.6568604,93 500,93 Z" /></clipPath>
<path d="M517,107 C517,107 518.7919922,107 521,107 L525,107" style="fill:none;stroke:rgb(0,178,161);stroke-width:2" clip-path="url(#clip28)" />
<clipPath id="clip29"><path d="M433,76 L680,76 L680,124 L433,124 L433,76 Z" /></clipPath>
<path d="M503,107 L517,107" style="fill:none;stroke:rgb(0,178,161);stroke-width:2" clip-path="url(#clip29)" />
<clipPath id="clip30"><path d="M433,91 L506,91 L506,124 L433,124 L433,91 Z" /></clipPath>
<path d="M438,93 C436.3431396,93 435,94.3431396 435,96 L435,118 C435,119.6568527 436.3431396,121 438,121 L500,121 C501.6568604,121 503,119.6568527 503,118 L503,96 C503,94.3431396 501.6568604,93 500,93 Z" style="fill:none;stroke:rgb(0,178,161);stroke-width:2" clip-path="url(#clip30)" />
<clipPath id="clip31"><path d="M444,95 L495,95 L495,120 L444,120 L444,95 Z" /></clipPath>
<path d="M458.621582,108.7451172 C458.9047546,108.8720703 459.3393555,109.0234375 459.925293,109.1992188 C459.7983093,110.3320313 459.651825,111.2890625 459.4858398,112.0703125 C459.2416687,113.28125 458.2113953,113.8964844 456.3950195,113.9160156 C453.973114,113.9257813 451.7416687,113.9306641 449.7006836,113.9306641 C447.6499023,113.8916016 446.6245117,113.203125 446.6245117,111.8652344 C446.6245117,111.0449219 447.0639648,110.2001953 447.9428711,109.3310547 C450.1498718,107.2314453 452.801239,104.9804688 455.8969727,102.578125 L446.7856445,102.578125 L446.7856445,101.4208984 L457.8745117,101.4208984 L457.8745117,102.6660156 C454.10495,105.5273438 451.1459656,107.9833984 448.9975586,110.0341797 C448.3041687,110.6982422 447.9575195,111.2597656 447.9575195,111.71875 C447.9575195,112.4121094 448.6020508,112.7734375 449.8911133,112.8027344 C451.7953796,112.8417969 453.8217468,112.8320313 455.9702148,112.7734375 C457.3862,112.7636719 458.1772156,112.3242188 458.3432617,111.4550781 C458.47995,110.7324219 458.5727234,109.8291016 458.621582,108.7451172 Z M461.7929688,103.9257813 L463.5507813,103.9257813 L463.5507813,102.0947266 L461.4414063,102.0947266 L461.4414063,101.1279297 L468.1796875,101.1279297 L468.1796875,102.0947266 L466.1142578,102.0947266 L466.1142578,103.9257813 L467.9160156,103.9257813 L467.9160156,114.6484375 L466.9785156,114.6484375 L466.9785156,113.6523438 L462.7304688,113.6523438 L462.7304688,114.6923828 L461.7929688,114.6923828 Z M468.2822266,110.8691406 L471.6074219,110.8691406 L471.6074219,110.2539063 L473.4384766,109.140625 L468.9121094,109.140625 L468.9121094,108.2324219 L475.0498047,108.2324219 L475.0498047,109.1552734 L472.6035156,110.6787109 L472.6035156,110.8691406 L475.8261719,110.8691406 L475.8261719,111.8359375 L472.6035156,111.8359375 L472.6035156,112.8466797 C472.6035156,113.9892578 472.0810242,114.5605469 471.0361328,114.5605469 C470.4989929,114.5605469 469.976532,114.5507813 469.46875,114.53125 C469.4003601,114.1308594 469.3173523,113.7451172 469.2197266,113.3740234 C469.7958679,113.4619141 470.3378601,113.5058594 470.8457031,113.5058594 C471.3144531,113.5058594 471.5683289,113.2568359 471.6074219,112.7587891 L471.6074219,111.8359375 L468.2822266,111.8359375 Z M469.1757813,103.7646484 L474.8886719,103.7646484 L474.8886719,107.5292969 L473.921875,107.5292969 L473.921875,107.0019531 L470.1425781,107.0019531 L470.1425781,107.5292969 L469.1757813,107.5292969 Z M463.2578125,109.3310547 C463.0527344,109.0380859 462.8769531,108.8134766 462.7304688,108.6572266 L462.7304688,110.0488281 L466.9785156,110.0488281 L466.9785156,108.8769531 L466.2460938,108.8769531 C465.6112976,108.8769531 465.2939453,108.5595703 465.2939453,107.9248047 L465.2939453,104.8632813 L464.3710938,104.8632813 L464.3710938,105.7275391 C464.3710632,107.2998047 463.9999695,108.5009766 463.2578125,109.3310547 Z M468.4726563,101.7578125 L471.3876953,101.7578125 C471.250946,101.3769531 471.0898132,100.9765625 470.9042969,100.5566406 L472.0175781,100.2197266 C472.2812195,100.7763672 472.4960632,101.2890625 472.6621094,101.7578125 L475.6357422,101.7578125 L475.6357422,102.6953125 L468.4726563,102.6953125 Z M462.7304688,112.7148438 L466.9785156,112.7148438 L466.9785156,110.9570313 L462.7304688,110.9570313 Z M473.921875,104.6728516 L470.1425781,104.6728516 L470.1425781,106.09375 L473.921875,106.09375 Z M466.9785156,104.8632813 L466.1142578,104.8632813 L466.1142578,107.5878906 C466.1142578,107.8613281 466.2704773,107.9980469 466.5830078,107.9980469 L466.9785156,107.9980469 Z M462.7304688,108.3935547 C463.2773132,107.7783203 463.5507813,106.8505859 463.5507813,105.6103516 L463.5507813,104.8632813 L462.7304688,104.8632813 Z M464.3710938,103.9257813 L465.2939453,103.9257813 L465.2939453,102.0947266 L464.3710938,102.0947266 Z M480.3305664,107.0019531 L485.3256836,107.0019531 L485.3256836,104.0283203 L482.7036133,104.0283203 C482.4008484,104.7949219 482.0639343,105.5175781 481.6928711,106.1962891 C481.3413086,106.0009766 480.9750977,105.8105469 480.5942383,105.625 C481.4438477,104.2285156 482.0541687,102.6757813 482.425293,100.9667969 L483.597168,101.2158203 C483.4457703,101.8164063 483.2773132,102.3925781 483.0917969,102.9443359 L485.3256836,102.9443359 L485.3256836,100.2929688 L486.4975586,100.2929688 L486.4975586,102.9443359 L490.394043,102.9443359 L490.394043,104.0283203 L486.4975586,104.0283203 L486.4975586,107.0019531 L491.1411133,107.0019531 L491.1411133,108.0859375 L487.6547852,108.0859375 L487.6547852,112.4365234 C487.6547852,112.9248047 487.8745117,113.1689453 488.3139648,113.1689453 L489.2954102,113.1689453 C489.7348633,113.1689453 489.9936218,112.9394531 490.0717773,112.4804688 C490.159668,111.9140625 490.2279968,111.2841797 490.2768555,110.5908203 C490.6283875,110.7568359 490.9945984,110.9033203 491.3754883,111.0302734 C491.2875671,111.7529297 491.1899109,112.3779297 491.0825195,112.9052734 C490.9360352,113.7646484 490.4037781,114.1943359 489.4858398,114.1943359 L487.918457,114.1943359 C486.9711609,114.1943359 486.4975586,113.6425781 486.4975586,112.5390625 L486.4975586,108.0859375 L484.4174805,108.0859375 C484.4369812,111.3964844 483.1235046,113.6279297 480.4770508,114.7802734 C480.2524109,114.4482422 479.9936523,114.1113281 479.7006836,113.7695313 C482.0639343,112.8027344 483.2504578,110.9082031 483.2602539,108.0859375 L480.3305664,108.0859375 Z M478.4262695,108.5986328 C478.8364258,108.7939453 479.2319336,108.9550781 479.612793,109.0820313 C479.1147461,111.1132813 478.6801453,112.9492188 478.309082,114.5898438 L477.0200195,114.2089844 C477.5082703,112.6855469 477.9770203,110.8154297 478.4262695,108.5986328 Z M477.4155273,104.3652344 C478.0893555,104.8242188 478.9438477,105.4833984 479.9790039,106.3427734 C479.6176453,106.7431641 479.3344727,107.0556641 479.1293945,107.2802734 C478.0844727,106.3330078 477.269043,105.6396484 476.6831055,105.2001953 Z M477.9868164,100.5859375 C478.7582703,101.1914063 479.5932312,101.8994141 480.4916992,102.7099609 C480.1596375,103.0322266 479.8666687,103.3251953 479.612793,103.5888672 C478.5385437,102.5341797 477.7475281,101.8017578 477.2397461,101.3916016 Z" style="fill:rgb(81,81,81);stroke:none" clip-path="url(#clip31)" />
<clipPath id="clip32"><path d="M524,77 L679,77 L679,123 L524,123 Z M525,78 L525,106 L601,106 L601,78 Z" /></clipPath>
<path d="M615,107 C615,107 616.7919922,107 619,107 L623,107" style="fill:none;stroke:rgb(0,178,161);stroke-width:2" clip-path="url(#clip32)" />
<clipPath id="clip33"><path d="M523,76 L680,76 L680,124 L523,124 L523,76 Z" /></clipPath>
<path d="M601,107 L615,107" style="fill:none;stroke:rgb(0,178,161);stroke-width:2" clip-path="url(#clip33)" />
<clipPath id="clip34"><path d="M523,76 L604,76 L604,109 L523,109 L523,76 Z" /></clipPath>
<path d="M525,107 L601,107 Z" style="fill:none;stroke:rgb(0,178,161);stroke-width:2" clip-path="url(#clip34)" />
<clipPath id="clip35"><path d="M534,80 L593,80 L593,105 L534,105 L534,80 Z" /></clipPath>
<path d="M541.9135742,89.8010254 C541.9135742,89.1906738 541.7207031,88.7109375 541.3349609,88.3618164 C540.9492188,88.0126953 540.4243164,87.8381348 539.7602539,87.8381348 C539.2915039,87.8381348 538.8178711,87.9577637 538.3393555,88.1970215 C537.8608398,88.4362793 537.4140625,88.7780762 536.9990234,89.2224121 L536.9990234,87.8308105 C537.3701172,87.4450684 537.7912598,87.1496582 538.2624512,86.9445801 C538.7336426,86.739502 539.2866211,86.6369629 539.9213867,86.6369629 C540.9467773,86.6369629 541.7719727,86.9116211 542.3969727,87.4609375 C543.0219727,88.0102539 543.3344727,88.7536621 543.3344727,89.6911621 C543.3344727,90.526123 543.1428223,91.2487793 542.7595215,91.8591309 C542.3762207,92.4694824 541.7207031,93.0944824 540.7929688,93.7341309 C539.8457031,94.3884277 539.2121582,94.8571777 538.892334,95.1403809 C538.5725098,95.423584 538.3491211,95.6945801 538.222168,95.9533691 C538.0952148,96.2121582 538.0317383,96.5270996 538.0317383,96.8981934 L543.6713867,96.8981934 L543.6713867,98.1726074 L536.5375977,98.1726074 L536.5375977,97.6086426 C536.5375977,96.9543457 536.626709,96.3989258 536.8049316,95.9423828 C536.9831543,95.4858398 537.2773438,95.0415039 537.6875,94.609375 C538.0976563,94.1772461 538.7373047,93.6584473 539.6064453,93.0529785 C540.4951172,92.4279785 541.1018066,91.8798828 541.4265137,91.4086914 C541.7512207,90.9375 541.9135742,90.4016113 541.9135742,89.8010254 Z M545.3925781,92.7233887 C545.3925781,90.7214355 545.7246094,89.206543 546.3886719,88.1787109 C547.0527344,87.1508789 548.0146484,86.6369629 549.2744141,86.6369629 C551.6767578,86.6369629 552.8779297,88.5754395 552.8779297,92.4523926 C552.8779297,94.3664551 552.5397949,95.8300781 551.8635254,96.8432617 C551.1872559,97.8564453 550.2387695,98.3630371 549.0180664,98.3630371 C547.8657227,98.3630371 546.9733887,97.8820801 546.3410645,96.920166 C545.7087402,95.958252 545.3925781,94.5593262 545.3925781,92.7233887 Z M546.8574219,92.6574707 C546.8574219,95.670166 547.621582,97.1765137 549.1499023,97.1765137 C550.6538086,97.1765137 551.4057617,95.645752 551.4057617,92.5842285 C551.4057617,89.4152832 550.668457,87.8308105 549.1938477,87.8308105 C547.6362305,87.8308105 546.8574219,89.4396973 546.8574219,92.6574707 Z M559.2426758,94.2321777 L554.9287109,94.2321777 L554.9287109,93.1262207 L559.2426758,93.1262207 Z M561.5205078,96.2756348 C562.296875,96.8762207 563.1733398,97.1765137 564.1499023,97.1765137 C564.9311523,97.1765137 565.5500488,96.9848633 566.0065918,96.6015625 C566.4631348,96.2182617 566.6914063,95.7043457 566.6914063,95.0598145 C566.6914063,93.6242676 565.6635742,92.9064941 563.6079102,92.9064941 L562.6630859,92.9064941 L562.6630859,91.7199707 L563.5639648,91.7199707 C565.3852539,91.7199707 566.2958984,91.0461426 566.2958984,89.6984863 C566.2958984,88.4533691 565.6000977,87.8308105 564.2084961,87.8308105 C563.4125977,87.8308105 562.6630859,88.0993652 561.9599609,88.6364746 L561.9599609,87.2814941 C562.7021484,86.8518066 563.5688477,86.6369629 564.5600586,86.6369629 C565.5268555,86.6369629 566.3032227,86.8896484 566.8891602,87.3950195 C567.4750977,87.9003906 567.7680664,88.5559082 567.7680664,89.3615723 C567.7680664,90.8459473 567.0112305,91.8005371 565.4975586,92.2253418 L565.4975586,92.2546387 C566.3178711,92.3425293 566.9660645,92.6318359 567.4421387,93.1225586 C567.9182129,93.6132813 568.15625,94.2248535 568.15625,94.9572754 C568.15625,95.9777832 567.7888184,96.8005371 567.0539551,97.4255371 C566.3190918,98.0505371 565.3413086,98.3630371 564.1206055,98.3630371 C563.0463867,98.3630371 562.1796875,98.1628418 561.5205078,97.7624512 Z M570.199707,92.7233887 C570.199707,90.7214355 570.5317383,89.206543 571.1958008,88.1787109 C571.8598633,87.1508789 572.8217773,86.6369629 574.081543,86.6369629 C576.4838867,86.6369629 577.6850586,88.5754395 577.6850586,92.4523926 C577.6850586,94.3664551 577.3469238,95.8300781 576.6706543,96.8432617 C575.9943848,97.8564453 575.0458984,98.3630371 573.8251953,98.3630371 C572.6728516,98.3630371 571.7805176,97.8820801 571.1481934,96.920166 C570.5158691,95.958252 570.199707,94.5593262 570.199707,92.7233887 Z M571.6645508,92.6574707 C571.6645508,95.670166 572.4287109,97.1765137 573.9570313,97.1765137 C575.4609375,97.1765137 576.2128906,95.645752 576.2128906,92.5842285 C576.2128906,89.4152832 575.4755859,87.8308105 574.0009766,87.8308105 C572.4433594,87.8308105 571.6645508,89.4396973 571.6645508,92.6574707 Z M583.9912109,96.4221191 C584.7138672,96.9445801 585.4926758,97.2058105 586.3276367,97.2058105 C587.4458008,97.2058105 588.0048828,96.8395996 588.0048828,96.1071777 C588.0048828,95.7946777 587.8828125,95.5371094 587.6386719,95.3344727 C587.3945313,95.1318359 586.8989258,94.8913574 586.1518555,94.6130371 C585.253418,94.251709 584.6699219,93.894043 584.4013672,93.5400391 C584.1328125,93.1860352 583.9985352,92.7575684 583.9985352,92.2546387 C583.9985352,91.5368652 584.3024902,90.9619141 584.9104004,90.5297852 C585.5183105,90.0976563 586.2666016,89.8815918 587.1552734,89.8815918 C587.84375,89.8815918 588.4833984,90.0012207 589.0742188,90.2404785 L589.0742188,91.6247559 C588.46875,91.2341309 587.7827148,91.0388184 587.0161133,91.0388184 C586.5571289,91.0388184 586.1835938,91.138916 585.8955078,91.3391113 C585.6074219,91.5393066 585.4633789,91.8029785 585.4633789,92.130127 C585.4633789,92.4523926 585.5671387,92.7038574 585.7746582,92.8845215 C585.9821777,93.0651855 586.4423828,93.2971191 587.1552734,93.5803223 C588.0585938,93.9172363 588.6689453,94.2663574 588.9863281,94.6276855 C589.3037109,94.9890137 589.4624023,95.435791 589.4624023,95.9680176 C589.4624023,96.7102051 589.1584473,97.2949219 588.5505371,97.722168 C587.942627,98.1494141 587.1552734,98.3630371 586.1884766,98.3630371 C585.3486328,98.3630371 584.6162109,98.2043457 583.9912109,97.8869629 Z" style="fill:rgb(81,81,81);stroke:none" clip-path="url(#clip35)" />
<clipPath id="clip36"><path d="M621,91 L680,91 L680,124 L621,124 L621,91 Z" /></clipPath>
<path d="M626,93 C624.3431396,93 623,94.3431396 623,96 L623,118 C623,119.6568527 624.3431396,121 626,121 L674,121 C675.6568604,121 677,119.6568527 677,118 L677,96 C677,94.3431396 675.6568604,93 674,93 Z" style="fill:none;stroke:rgb(0,178,161);stroke-width:2" clip-path="url(#clip36)" />
<clipPath id="clip37"><path d="M632,95 L669,95 L669,120 L632,120 L632,95 Z" /></clipPath>
<path d="M641.5734863,100.2856445 L642.7600098,100.2856445 L642.7600098,102.6367188 C643.1798706,103.7792969 643.6608887,104.8413086 644.2028809,105.8227539 C645.2819214,104.9243164 646.3585815,103.8500977 647.4328613,102.6000977 L648.4143066,103.4790039 C647.2717285,104.675293 646.0656128,105.7910156 644.7961426,106.8261719 C646.0852051,108.8671875 647.6622925,110.5249023 649.5275879,111.7993164 C649.1173706,112.2094727 648.7853394,112.5756836 648.5314941,112.8979492 C645.9630737,110.8764648 644.0392456,108.3740234 642.7600098,105.390625 L642.7600098,112.2387695 C642.7600098,113.6938477 642.0617065,114.4213867 640.6652832,114.4213867 C640.2355347,114.4213867 639.600769,114.4165039 638.7609863,114.4067383 C638.7120972,114.0454102 638.6339722,113.605957 638.5266113,113.0883789 C639.3078003,113.1665039 639.9425659,113.2055664 640.4309082,113.2055664 C641.1925659,113.2055664 641.5734253,112.8393555 641.5734863,112.1069336 Z M635.3186035,104.9731445 L635.3186035,103.8598633 L640.3723145,103.8598633 L640.3723145,104.9291992 C639.5421753,108.1323242 638.0285034,110.8764648 635.8312988,113.1616211 C635.4992065,112.7807617 635.201416,112.4829102 634.9377441,112.2680664 C637.1447144,109.9438477 638.5656128,107.512207 639.2004395,104.9731445 Z M654.017334,106.965332 L659.0124512,106.965332 L659.0124512,103.9916992 L656.3903809,103.9916992 C656.0875854,104.7583008 655.7506714,105.480957 655.3796387,106.159668 C655.0280762,105.9643555 654.6618652,105.7739258 654.2810059,105.5883789 C655.1306152,104.1918945 655.7409058,102.6391602 656.1120605,100.9301758 L657.2839355,101.1791992 C657.1325073,101.7797852 656.9640503,102.355957 656.7785645,102.9077148 L659.0124512,102.9077148 L659.0124512,100.2563477 L660.1843262,100.2563477 L660.1843262,102.9077148 L664.0808105,102.9077148 L664.0808105,103.9916992 L660.1843262,103.9916992 L660.1843262,106.965332 L664.8278809,106.965332 L664.8278809,108.0493164 L661.3415527,108.0493164 L661.3415527,112.3999023 C661.3415527,112.8881836 661.5612793,113.1323242 662.0007324,113.1323242 L662.9821777,113.1323242 C663.4216309,113.1323242 663.6803589,112.902832 663.7585449,112.4438477 C663.8464355,111.8774414 663.9147339,111.2475586 663.963623,110.5541992 C664.3151245,110.7202148 664.6813354,110.8666992 665.0622559,110.9936523 C664.9743042,111.7163086 664.8766479,112.3413086 664.7692871,112.8686523 C664.6228027,113.7280273 664.0905151,114.1577148 663.1726074,114.1577148 L661.6052246,114.1577148 C660.6578979,114.1577148 660.1843262,113.605957 660.1843262,112.5024414 L660.1843262,108.0493164 L658.104248,108.0493164 C658.1237183,111.3598633 656.8102417,113.5913086 654.1638184,114.7436523 C653.9391479,114.4116211 653.6804199,114.074707 653.3874512,113.7329102 C655.7506714,112.7661133 656.9371948,110.871582 656.9470215,108.0493164 L654.017334,108.0493164 Z M652.1130371,108.5620117 C652.5231934,108.7573242 652.9187012,108.918457 653.2995605,109.0454102 C652.8015137,111.0766602 652.3668823,112.9125977 651.9958496,114.5532227 L650.7067871,114.1723633 C651.1950073,112.6489258 651.6637573,110.7788086 652.1130371,108.5620117 Z M651.1022949,104.3286133 C651.776123,104.7875977 652.6306152,105.4467773 653.6657715,106.3061523 C653.3043823,106.706543 653.0212402,107.019043 652.8161621,107.2436523 C651.7712402,106.2963867 650.9558105,105.6030273 650.369873,105.1635742 Z M651.673584,100.5493164 C652.4450073,101.1547852 653.2799683,101.862793 654.1784668,102.6733398 C653.8463745,102.9956055 653.5534058,103.2885742 653.2995605,103.5522461 C652.2252808,102.4975586 651.4342651,101.7651367 650.9265137,101.3549805 Z" style="fill:rgb(81,81,81);stroke:none" clip-path="url(#clip37)" />
<clipPath id="clip38"><path d="M247,139 L567,139 L567,191 L247,191 Z M253,148 C250.2385712,148 248,150.2385712 248,153 L248,184 C248,186.7614288 250.2385712,189 253,189 L307,189 C309.7614136,189 312,186.7614288 312,184 L312,153 C312,150.2385712 309.7614136,148 307,148 Z" /></clipPath>
<path d="M325.9998169,168.7299957 C325.9998169,168.8790436 327.7918091,169 329.9998169,169 L334,169" style="fill:none;stroke:rgb(255,221,0);stroke-width:2" clip-path="url(#clip38)" />
<clipPath id="clip39"><path d="M246,138 L568,138 L568,192 L246,192 L246,138 Z" /></clipPath>
<path d="M312,168.6600037 L325.9998169,168.7299957" style="fill:none;stroke:rgb(255,221,0);stroke-width:2" clip-path="url(#clip39)" />
<clipPath id="clip40"><path d="M246,146 L315,146 L315,192 L246,192 L246,146 Z" /></clipPath>
<path d="M253,148 C250.2385712,148 248,150.2385712 248,153 L248,184 C248,186.7614288 250.2385712,189 253,189 L307,189 C309.7614136,189 312,186.7614288 312,184 L312,153 C312,150.2385712 309.7614136,148 307,148 Z" style="fill:rgb(255,255,255);stroke:none" clip-path="url(#clip40)" />
<clipPath id="clip41"><path d="M246,146 L315,146 L315,192 L246,192 L246,146 Z" /></clipPath>
<path d="M253,148 C250.2385712,148 248,150.2385712 248,153 L248,184 C248,186.7614288 250.2385712,189 253,189 L307,189 C309.7614136,189 312,186.7614288 312,184 L312,153 C312,150.2385712 309.7614136,148 307,148 Z" style="fill:none;stroke:rgb(255,221,0);stroke-width:2" clip-path="url(#clip41)" />
<clipPath id="clip42"><path d="M260,155 L301,155 L301,183 L260,183 L260,155 Z" /></clipPath>
<path d="M265.369873,169.9296875 L277.1569824,169.9296875 L277.1569824,177.1845703 L275.9616699,177.1845703 L275.9616699,176.5371094 L266.5651855,176.5371094 L266.5651855,177.1845703 L265.369873,177.1845703 Z M263.5603027,165.4140625 L267.079834,165.4140625 C266.7145996,164.7942657 266.3327637,164.2242889 265.9343262,163.7041016 L266.9470215,163.1064453 C267.5003967,163.8258514 267.9209595,164.4013672 268.2087402,164.8330078 L267.2956543,165.4140625 L270.6657715,165.4140625 L270.6657715,162.7412109 C268.7621155,162.7854767 266.8640137,162.8076172 264.9714355,162.8076172 C264.9050293,162.3538361 264.8275452,161.9886017 264.7390137,161.7119141 C268.8894043,161.7451172 273.1670532,161.6289063 277.5720215,161.3632813 L277.7712402,162.4589844 C275.7901001,162.5696564 273.8145142,162.6526642 271.8444824,162.7080078 L271.8444824,165.4140625 L274.2351074,165.4140625 C274.6999512,164.5065155 275.0762329,163.7096405 275.3640137,163.0234375 L276.6589355,163.5048828 C276.5703735,163.6487579 276.1830139,164.2851563 275.4968262,165.4140625 L279.0163574,165.4140625 L279.0163574,166.5429688 L273.2224121,166.5429688 C274.8604126,167.6165314 276.9743652,168.5240784 279.564209,169.265625 C279.1768188,169.7415314 278.916748,170.1178284 278.7839355,170.3945313 C275.7845764,169.3984375 273.4714355,168.1699219 271.8444824,166.7089844 L271.8444824,169.4316406 L270.6657715,169.4316406 L270.6657715,166.7753906 C269.116272,168.1699219 266.8086548,169.376297 263.7429199,170.3945313 C263.6101074,170.1178284 263.3500061,169.7415314 262.9626465,169.265625 C265.5967407,168.5130157 267.716217,167.6054688 269.3210449,166.5429688 L263.5603027,166.5429688 Z M271.8444824,175.4746094 L275.9616699,175.4746094 L275.9616699,173.7646484 L271.8444824,173.7646484 Z M275.9616699,170.9921875 L271.8444824,170.9921875 L271.8444824,172.7021484 L275.9616699,172.7021484 Z M266.5651855,172.7021484 L270.6657715,172.7021484 L270.6657715,170.9921875 L266.5651855,170.9921875 Z M266.5651855,175.4746094 L270.6657715,175.4746094 L270.6657715,173.7646484 L266.5651855,173.7646484 Z M286.1467285,174.9765625 L290.9943848,174.9765625 L290.9943848,163.7207031 L287.0100098,163.7207031 L287.0100098,162.4257813 L296.4230957,162.4257813 L296.4230957,163.7207031 L292.4055176,163.7207031 L292.4055176,174.9765625 L297.0373535,174.9765625 L297.0373535,176.2714844 L286.1467285,176.2714844 Z M282.7102051,170.7763672 C284.7355957,170.4886017 286.1245728,170.283844 286.8771973,170.1621094 C286.810791,170.59375 286.7609863,171.0143127 286.7277832,171.4238281 C285.333252,171.611969 283.4627991,171.8886719 281.1164551,172.2539063 L280.8010254,171.0253906 C281.7141113,170.1344299 282.635498,169.0221252 283.5651855,167.6884766 C282.3809204,167.7604065 281.5093384,167.8212891 280.9504395,167.8710938 L280.6184082,166.7421875 C281.8579712,165.1373596 283.0090332,163.1617889 284.0715332,160.8154297 L285.4162598,161.3134766 C284.3205566,163.3278046 283.2469788,165.1041565 282.1955566,166.6425781 C282.9260254,166.6259766 283.6260376,166.6065979 284.2956543,166.5844727 C284.7438965,165.8927307 285.1948853,165.1484375 285.6486816,164.3515625 L286.927002,164.9658203 C285.4771118,167.1904297 284.0715332,169.1272736 282.7102051,170.7763672 Z M280.5852051,174.4287109 C282.5552368,174.0081329 284.6636353,173.5432892 286.9104004,173.0341797 C286.8771973,173.4768829 286.8605957,173.9085236 286.8605957,174.3291016 C285.0786743,174.7386017 283.1141663,175.220047 280.967041,175.7734375 Z" style="fill:rgb(81,81,81);stroke:none" clip-path="url(#clip42)" />
<clipPath id="clip43"><path d="M333,139 L567,139 L567,185 L333,185 Z M334,140 L334,168 L413,168 L413,140 Z" /></clipPath>
<path d="M427,169 C427,169 428.7919922,169 431,169 L435,169" style="fill:none;stroke:rgb(255,221,0);stroke-width:2" clip-path="url(#clip43)" />
<clipPath id="clip44"><path d="M332,138 L568,138 L568,186 L332,186 L332,138 Z" /></clipPath>
<path d="M413,169 L427,169" style="fill:none;stroke:rgb(255,221,0);stroke-width:2" clip-path="url(#clip44)" />
<clipPath id="clip45"><path d="M332,138 L416,138 L416,171 L332,171 L332,138 Z" /></clipPath>
<path d="M334,169 L413,169 Z" style="fill:none;stroke:rgb(255,221,0);stroke-width:2" clip-path="url(#clip45)" />
<clipPath id="clip46"><path d="M343,142 L405,142 L405,167 L343,167 L343,142 Z" /></clipPath>
<path d="M348.8503418,160.4289551 L348.8503418,150.7243652 C348.6257324,150.9489746 348.2460938,151.2004395 347.7114258,151.4787598 C347.1767578,151.7570801 346.682373,151.9523926 346.2282715,152.0646973 L346.2282715,150.6584473 C346.8288574,150.4924316 347.4709473,150.2275391 348.154541,149.8637695 C348.8381348,149.5 349.3630371,149.1569824 349.729248,148.8347168 L350.2712402,148.8347168 L350.2712402,160.4289551 Z M359.1921387,156.4885254 L354.8781738,156.4885254 L354.8781738,155.3825684 L359.1921387,155.3825684 Z M366.670166,152.057373 C366.670166,151.4470215 366.4772949,150.9672852 366.0915527,150.6181641 C365.7058105,150.269043 365.1809082,150.0944824 364.5168457,150.0944824 C364.0480957,150.0944824 363.5744629,150.2141113 363.0959473,150.4533691 C362.6174316,150.692627 362.1706543,151.0344238 361.7556152,151.4787598 L361.7556152,150.0871582 C362.126709,149.701416 362.5478516,149.4060059 363.019043,149.2009277 C363.4902344,148.9958496 364.0432129,148.8933105 364.6779785,148.8933105 C365.7033691,148.8933105 366.5285645,149.1679688 367.1535645,149.7172852 C367.7785645,150.2666016 368.0910645,151.0100098 368.0910645,151.9475098 C368.0910645,152.7824707 367.8994141,153.505127 367.5161133,154.1154785 C367.1328125,154.7258301 366.4772949,155.3508301 365.5495605,155.9904785 C364.6022949,156.6447754 363.96875,157.1135254 363.6489258,157.3967285 C363.3291016,157.6799316 363.1057129,157.9509277 362.9787598,158.2097168 C362.8518066,158.4685059 362.7883301,158.7834473 362.7883301,159.154541 L368.4279785,159.154541 L368.4279785,160.4289551 L361.2941895,160.4289551 L361.2941895,159.8649902 C361.2941895,159.2106934 361.3833008,158.6552734 361.5615234,158.1987305 C361.7397461,157.7421875 362.0339355,157.2978516 362.4440918,156.8657227 C362.854248,156.4335938 363.4938965,155.9147949 364.3630371,155.3093262 C365.251709,154.6843262 365.8583984,154.1362305 366.1831055,153.6650391 C366.5078125,153.1938477 366.670166,152.657959 366.670166,152.057373 Z M386.994873,160.4289551 L385.5593262,160.4289551 L385.5593262,155.7780762 C385.5593262,154.8991699 385.4225769,154.2705078 385.1491699,153.8920898 C384.8757019,153.5136719 384.4264832,153.3244629 383.8015137,153.3244629 C383.2741699,153.3244629 382.8224792,153.5710449 382.4465332,154.064209 C382.0705261,154.557373 381.8825684,155.1408691 381.8825684,155.8146973 L381.8825684,160.4289551 L380.4470215,160.4289551 L380.4470215,155.6315918 C380.446991,154.0935059 379.8537292,153.3244629 378.6672363,153.3244629 C378.1203308,153.3244629 377.6674805,153.5588379 377.3085938,154.0275879 C376.949707,154.4963379 376.7702637,155.0944824 376.7702637,155.8220215 L376.7702637,160.4289551 L375.3347168,160.4289551 L375.3347168,152.3283691 L376.7702637,152.3283691 L376.7702637,153.6101074 L376.7995605,153.6101074 C377.3757019,152.6286621 378.2179871,152.1379395 379.326416,152.1379395 C379.8683777,152.1379395 380.3468933,152.2868652 380.7619629,152.5847168 C381.1769714,152.8825684 381.4650879,153.2854004 381.6262207,153.7932129 C382.2268066,152.6896973 383.1252136,152.1379395 384.3215332,152.1379395 C386.1037292,152.1379395 386.9948425,153.2365723 386.994873,155.4338379 Z M389.638916,149.4719238 C389.638916,149.2180176 389.7255554,149.0043945 389.8989258,148.8310547 C390.0722351,148.6577148 390.2858582,148.5710449 390.5397949,148.5710449 C390.7985535,148.5710449 391.0170593,148.6564941 391.1953125,148.8273926 C391.3735046,148.998291 391.4626465,149.2131348 391.4626465,149.4719238 C391.4626465,149.7258301 391.3735046,149.9370117 391.1953125,150.1054688 C391.0170593,150.2739258 390.7985535,150.3581543 390.5397949,150.3581543 C390.2809753,150.3581543 390.0661316,150.2739258 389.8952637,150.1054688 C389.7243347,149.9370117 389.638916,149.7258301 389.638916,149.4719238 Z M389.807373,160.4289551 L389.807373,152.3283691 L391.2429199,152.3283691 L391.2429199,160.4289551 Z M400.7717285,160.4289551 L399.3435059,160.4289551 L399.3435059,155.8220215 C399.3434753,154.1569824 398.7355652,153.3244629 397.5197754,153.3244629 C396.8898926,153.3244629 396.3722839,153.5588379 395.967041,154.0275879 C395.5617371,154.4963379 395.3591309,155.0895996 395.3591309,155.807373 L395.3591309,160.4289551 L393.923584,160.4289551 L393.923584,152.3283691 L395.3591309,152.3283691 L395.3591309,153.6687012 L395.3884277,153.6687012 C395.9987488,152.6481934 396.8849792,152.1379395 398.0471191,152.1379395 C398.9357605,152.1379395 399.61203,152.4223633 400.0759277,152.9912109 C400.5397644,153.5600586 400.7717285,154.388916 400.7717285,155.4777832 Z" style="fill:rgb(81,81,81);stroke:none" clip-path="url(#clip46)" />
<clipPath id="clip47"><path d="M434,154 L567,154 L567,185 L434,185 Z M438,155 C436.3431396,155 435,156.3431396 435,158 L435,180 C435,181.6568604 436.3431396,183 438,183 L486,183 C487.6568604,183 489,181.6568604 489,180 L489,158 C489,156.3431396 487.6568604,155 486,155 Z" /></clipPath>
<path d="M503,169 C503,169 504.7919922,169 507,169 L511,169" style="fill:none;stroke:rgb(255,221,0);stroke-width:2" clip-path="url(#clip47)" />
<clipPath id="clip48"><path d="M433,153 L568,153 L568,186 L433,186 L433,153 Z" /></clipPath>
<path d="M489,169 L503,169" style="fill:none;stroke:rgb(255,221,0);stroke-width:2" clip-path="url(#clip48)" />
<clipPath id="clip49"><path d="M433,153 L492,153 L492,186 L433,186 L433,153 Z" /></clipPath>
<path d="M438,155 C436.3431396,155 435,156.3431396 435,158 L435,180 C435,181.6568604 436.3431396,183 438,183 L486,183 C487.6568604,183 489,181.6568604 489,180 L489,158 C489,156.3431396 487.6568604,155 486,155 Z" style="fill:none;stroke:rgb(255,221,0);stroke-width:2" clip-path="url(#clip49)" />
<clipPath id="clip50"><path d="M444,157 L481,157 L481,182 L444,182 L444,157 Z" /></clipPath>
<path d="M453.5734863,162.2856445 L454.7600098,162.2856445 L454.7600098,164.6367188 C455.1799011,165.7792969 455.6608887,166.8413086 456.2028809,167.8227539 C457.2819519,166.9243164 458.3586121,165.8500977 459.4328613,164.6000977 L460.4143066,165.4790039 C459.2717285,166.675293 458.0656433,167.7910156 456.7961426,168.8261719 C458.0852051,170.8671875 459.662323,172.5249023 461.5275879,173.7993164 C461.1174011,174.2094727 460.7853699,174.5756836 460.5314941,174.8979492 C457.9631042,172.8764648 456.0392761,170.3740234 454.7600098,167.390625 L454.7600098,174.2387695 C454.7600098,175.6938477 454.0617371,176.4213867 452.6652832,176.4213867 C452.2355652,176.4213867 451.6007996,176.4165039 450.7609863,176.4067383 C450.7121277,176.0454102 450.6340027,175.605957 450.5266113,175.0883789 C451.3078308,175.1665039 451.9425964,175.2055664 452.4309082,175.2055664 C453.1925964,175.2055664 453.5734558,174.8393555 453.5734863,174.1069336 Z M447.3186035,166.9731445 L447.3186035,165.8598633 L452.3723145,165.8598633 L452.3723145,166.9291992 C451.5422058,170.1323242 450.0285339,172.8764648 447.8312988,175.1616211 C447.4992371,174.7807617 447.201416,174.4829102 446.9377441,174.2680664 C449.1447449,171.9438477 450.5656433,169.512207 451.2004395,166.9731445 Z M466.017334,168.965332 L471.0124512,168.965332 L471.0124512,165.9916992 L468.3903809,165.9916992 C468.087616,166.7583008 467.7507019,167.480957 467.3796387,168.159668 C467.0280762,167.9643555 466.6618652,167.7739258 466.2810059,167.5883789 C467.1306152,166.1918945 467.7409363,164.6391602 468.1120605,162.9301758 L469.2839355,163.1791992 C469.1325378,163.7797852 468.9640808,164.355957 468.7785645,164.9077148 L471.0124512,164.9077148 L471.0124512,162.2563477 L472.1843262,162.2563477 L472.1843262,164.9077148 L476.0808105,164.9077148 L476.0808105,165.9916992 L472.1843262,165.9916992 L472.1843262,168.965332 L476.8278809,168.965332 L476.8278809,170.0493164 L473.3415527,170.0493164 L473.3415527,174.3999023 C473.3415527,174.8881836 473.5612793,175.1323242 474.0007324,175.1323242 L474.9821777,175.1323242 C475.4216309,175.1323242 475.6803894,174.902832 475.7585449,174.4438477 C475.8464355,173.8774414 475.9147644,173.2475586 475.963623,172.5541992 C476.315155,172.7202148 476.681366,172.8666992 477.0622559,172.9936523 C476.9743347,173.7163086 476.8766785,174.3413086 476.7692871,174.8686523 C476.6228027,175.7280273 476.0905457,176.1577148 475.1726074,176.1577148 L473.6052246,176.1577148 C472.6579285,176.1577148 472.1843262,175.605957 472.1843262,174.5024414 L472.1843262,170.0493164 L470.104248,170.0493164 C470.1237488,173.3598633 468.8102722,175.5913086 466.1638184,176.7436523 C465.9391785,176.4116211 465.6804199,176.074707 465.3874512,175.7329102 C467.7507019,174.7661133 468.9372253,172.871582 468.9470215,170.0493164 L466.017334,170.0493164 Z M464.1130371,170.5620117 C464.5231934,170.7573242 464.9187012,170.918457 465.2995605,171.0454102 C464.8015137,173.0766602 464.3669128,174.9125977 463.9958496,176.5532227 L462.7067871,176.1723633 C463.1950378,174.6489258 463.6637878,172.7788086 464.1130371,170.5620117 Z M463.1022949,166.3286133 C463.776123,166.7875977 464.6306152,167.4467773 465.6657715,168.3061523 C465.3044128,168.706543 465.0212402,169.019043 464.8161621,169.2436523 C463.7712402,168.2963867 462.9558105,167.6030273 462.369873,167.1635742 Z M463.673584,162.5493164 C464.4450378,163.1547852 465.2799988,163.862793 466.1784668,164.6733398 C465.846405,164.9956055 465.5534363,165.2885742 465.2995605,165.5522461 C464.2253113,164.4975586 463.4342957,163.7651367 462.9265137,163.3549805 Z" style="fill:rgb(81,81,81);stroke:none" clip-path="url(#clip50)" />
<clipPath id="clip51"><path d="M509,153 L568,153 L568,186 L509,186 L509,153 Z" /></clipPath>
<path d="M514,155 C512.3431396,155 511,156.3431396 511,158 L511,180 C511,181.6568604 512.3431396,183 514,183 L562,183 C563.6568604,183 565,181.6568604 565,180 L565,158 C565,156.3431396 563.6568604,155 562,155 Z" style="fill:none;stroke:rgb(255,221,0);stroke-width:2" clip-path="url(#clip51)" />
<clipPath id="clip52"><path d="M520,157 L557,157 L557,182 L520,182 L520,157 Z" /></clipPath>
<path d="M526.7536621,169.1264648 C527.8571777,167.9741211 528.6628418,166.6362305 529.1706543,165.112793 L530.166748,165.3764648 C530.088623,165.5913086 530.0056152,165.8012695 529.9177246,166.0063477 L531.807373,166.0063477 L531.807373,166.9145508 C531.5046387,167.9790039 531.0358887,168.9506836 530.401123,169.8295898 L533.9606934,169.8295898 C533.1013184,168.6381836 532.5349121,167.168457 532.2614746,165.4204102 L533.1989746,165.215332 C533.2380371,165.5083008 533.291748,165.7915039 533.3601074,166.0649414 L536.7878418,166.0649414 L536.7878418,166.987793 C536.2995605,167.8764648 535.767334,168.784668 535.1911621,169.7124023 C535.8356934,170.4057617 536.6169434,170.9624023 537.5349121,171.3823242 C537.2907715,171.6948242 537.0661621,172.012207 536.861084,172.3344727 C535.7087402,171.7290039 534.7663574,170.9282227 534.0339355,169.9321289 L534.0339355,170.7084961 L530.298584,170.7084961 L530.298584,169.9907227 C529.7810059,170.6743164 529.1608887,171.3041992 528.4382324,171.8803711 L536.026123,171.8803711 L536.026123,172.7592773 L532.7155762,172.7592773 L532.7155762,175.1616211 C532.7155762,176.0795898 532.276123,176.5629883 531.3972168,176.6118164 C530.9382324,176.6313477 530.4304199,176.6411133 529.8737793,176.6411133 C529.8347168,176.2602539 529.7712402,175.8842773 529.6833496,175.5131836 C530.1813965,175.5522461 530.6208496,175.5717773 531.001709,175.5717773 C531.4020996,175.5620117 531.6022949,175.3422852 531.6022949,174.9125977 L531.6022949,172.7592773 L528.3796387,172.7592773 L528.3796387,171.9389648 C528.0378418,172.2026367 527.6813965,172.4516602 527.3103027,172.6860352 C527.1345215,172.4223633 526.9001465,172.1342773 526.6071777,171.8217773 C527.407959,171.4116211 528.111084,170.918457 528.7165527,170.3422852 C528.4919434,170.0981445 528.2526855,169.8735352 527.9987793,169.668457 L528.526123,169.0092773 C528.7995605,169.2241211 529.0681152,169.4438477 529.3317871,169.668457 C529.5368652,169.434082 529.7224121,169.1850586 529.8884277,168.9213867 C529.595459,168.6674805 529.3122559,168.4575195 529.0388184,168.2915039 L529.4929199,167.5737305 C529.7663574,167.7397461 530.0446777,167.9301758 530.3278809,168.1450195 C530.5231934,167.7543945 530.6940918,167.3442383 530.8405762,166.9145508 L529.4929199,166.9145508 C528.994873,167.9106445 528.3112793,168.887207 527.4421387,169.8442383 C527.2468262,169.6293945 527.017334,169.3901367 526.7536621,169.1264648 Z M522.9743652,170.5913086 C523.4040527,170.4057617 523.9558105,170.1518555 524.6296387,169.8295898 L524.6296387,166.5043945 L523.1208496,166.5043945 L523.1208496,165.5083008 L524.6296387,165.5083008 L524.6296387,162.4907227 L525.6403809,162.4907227 L525.6403809,165.5083008 L526.9001465,165.5083008 L526.9001465,166.5043945 L525.6403809,166.5043945 L525.6403809,169.3461914 C525.9528809,169.1899414 526.2897949,169.019043 526.651123,168.8334961 C526.7194824,169.2729492 526.7927246,169.6245117 526.8708496,169.8881836 C526.7634277,169.9370117 526.3532715,170.1469727 525.6403809,170.5180664 L525.6403809,175.1030273 C525.6403809,176.0991211 525.2009277,176.597168 524.3220215,176.597168 C524.1462402,176.597168 523.7995605,176.5922852 523.2819824,176.5825195 C523.2624512,176.230957 523.2282715,175.8452148 523.1794434,175.425293 C523.5700684,175.4838867 523.8874512,175.5083008 524.1315918,175.4985352 C524.463623,175.4887695 524.6296387,175.2983398 524.6296387,174.9272461 L524.6296387,171.0454102 C524.2585449,171.230957 523.838623,171.4458008 523.369873,171.6899414 Z M527.3981934,163.7944336 L531.572998,163.7944336 C531.3581543,163.4624023 531.0944824,163.1206055 530.7819824,162.769043 L531.7634277,162.2856445 C532.1247559,162.7250977 532.4128418,163.0913086 532.6276855,163.3842773 L531.8659668,163.7944336 L536.9489746,163.7944336 L536.9489746,165.8452148 L535.8356934,165.8452148 L535.8356934,164.7026367 L528.5114746,164.7026367 L528.5114746,166.0063477 L527.3981934,166.0063477 Z M534.5319824,173.3305664 C535.5769043,174.1411133 536.4362793,174.8442383 537.1101074,175.4399414 L536.3190918,176.3188477 C535.5964355,175.5668945 534.7321777,174.8100586 533.7263184,174.0483398 Z M529.229248,173.3305664 L530.0788574,174.0043945 C529.2878418,174.8344727 528.4772949,175.605957 527.6472168,176.3188477 C527.432373,176.0551758 527.1589355,175.7963867 526.8269043,175.5424805 C527.822998,174.7709961 528.6237793,174.0336914 529.229248,173.3305664 Z M535.6599121,166.9731445 L533.6091309,166.9731445 C533.8435059,167.6762695 534.151123,168.3110352 534.5319824,168.8774414 C534.932373,168.262207 535.3083496,167.6274414 535.6599121,166.9731445 Z M538.4797363,168.7016602 L545.0715332,168.7016602 L545.0715332,164.4682617 L539.6516113,164.4682617 L539.6516113,163.3549805 L551.8244629,163.3549805 L551.8244629,164.4682617 L546.3752441,164.4682617 L546.3752441,168.7016602 L553.0256348,168.7016602 L553.0256348,169.8149414 L546.3752441,169.8149414 L546.3752441,176.7143555 L545.0715332,176.7143555 L545.0715332,169.8149414 L538.4797363,169.8149414 Z" style="fill:rgb(81,81,81);stroke:none" clip-path="url(#clip52)" />
<clipPath id="clip53"><path d="M246,200 L314,200 L314,246 L246,246 L246,200 Z" /></clipPath>
<path d="M253,202 C250.2385712,202 248,204.2385712 248,207 L248,238 C248,240.7614288 250.2385712,243 253,243 L306,243 C308.7614136,243 311,240.7614288 311,238 L311,207 C311,204.2385712 308.7614136,202 306,202 Z" style="fill:rgb(255,255,255);stroke:none" clip-path="url(#clip53)" />
<clipPath id="clip54"><path d="M246,200 L314,200 L314,246 L246,246 L246,200 Z" /></clipPath>
<path d="M253,202 C250.2385712,202 248,204.2385712 248,207 L248,238 C248,240.7614288 250.2385712,243 253,243 L306,243 C308.7614136,243 311,240.7614288 311,238 L311,207 C311,204.2385712 308.7614136,202 306,202 Z" style="fill:none;stroke:rgb(252,143,0);stroke-width:2" clip-path="url(#clip54)" />
<clipPath id="clip55"><path d="M260,209 L300,209 L300,237 L260,237 L260,209 Z" /></clipPath>
<path d="M264.454834,219.2480469 C265.0524902,220.3935547 265.6556702,221.5556641 266.2644043,222.734375 C266.7126465,221.2014923 267.0114746,219.5136719 267.1608887,217.6708984 L263.0270996,217.6708984 L263.0270996,216.4091797 L268.4558105,216.4091797 L268.4558105,217.6210938 C268.2565918,220.1279297 267.8055725,222.3746643 267.1027832,224.3613281 C267.7668457,225.6507111 268.439209,226.9622345 269.119873,228.2958984 L267.8913574,228.9765625 C267.4652405,228.046875 266.9893188,227.0397034 266.463623,225.9550781 C265.666748,227.6982422 264.6484985,229.2089844 263.4089355,230.4873047 C263.187561,230.1441956 262.9108887,229.7402344 262.5788574,229.2753906 C263.8959045,227.9251251 264.9335022,226.2926331 265.6916504,224.3779297 C264.9943848,222.9667969 264.2224121,221.4394531 263.3757324,219.7958984 Z M273.0710449,218.0029297 L274.3327637,218.0029297 L274.3327637,221.0078125 C274.3327637,222.3414612 274.2331543,223.5201721 274.0339355,224.5439453 L275.0300293,224.5439453 L275.0300293,228.4951172 C275.0300293,229.1923828 275.3177795,229.5410156 275.8933105,229.5410156 L276.6901855,229.5410156 C277.2546387,229.5410156 277.575592,229.2421875 277.6530762,228.6445313 C277.7194824,228.1022034 277.7748108,227.3662109 277.8190918,226.4365234 C278.1843262,226.5914612 278.6214905,226.7630157 279.1306152,226.9511719 C279.0420532,227.9361877 278.9535217,228.6998596 278.8649902,229.2421875 C278.6989746,230.2604065 278.0681152,230.7695313 276.9724121,230.7695313 L275.6940918,230.7695313 C274.432373,230.7695313 273.8015137,230.1165314 273.8015137,228.8105469 L273.8015137,225.5151367 C273.6133423,226.1515198 273.3809204,226.7132111 273.104248,227.2001953 C272.3184204,228.6057892 270.8464355,229.9339142 268.6882324,231.1845703 C268.4558105,230.8525391 268.1514282,230.4873047 267.7751465,230.0888672 C269.8447876,228.9820862 271.2503967,227.7867737 271.9919434,226.5029297 C272.7113342,225.3629456 273.0710449,223.5589142 273.0710449,221.0908203 Z M269.651123,215.6289063 L277.7526855,215.6289063 L277.7526855,225.5898438 L276.4909668,225.5898438 L276.4909668,216.8574219 L270.9128418,216.8574219 L270.9128418,225.8222656 L269.651123,225.8222656 Z M280.1848145,222.5849609 C281.7785645,221.2457581 283.0900879,219.6907501 284.1193848,217.9199219 L285.1652832,218.4511719 C284.9771118,218.75 284.7834473,219.0377502 284.5842285,219.3144531 L288.3029785,219.3144531 L288.3029785,220.3603516 C286.8530884,223.0719299 284.3573303,225.2412109 280.8156738,226.8681641 C280.6164551,226.5361328 280.378479,226.1930237 280.1018066,225.8388672 C281.2085571,225.3850861 282.2157288,224.8538361 283.123291,224.2451172 C282.8355103,223.9573517 282.4758301,223.6308594 282.0441895,223.265625 L282.7414551,222.5849609 C283.1398926,222.9391174 283.5272522,223.3043518 283.9035645,223.6806641 C284.2245178,223.4482422 284.5344238,223.1881409 284.833252,222.9003906 C284.4458618,222.5572815 284.0031738,222.1920471 283.505127,221.8046875 L284.185791,221.1240234 C284.6616821,221.5003204 285.098877,221.8766174 285.4973145,222.2529297 C286.0728149,221.6552734 286.5819397,221.0078125 287.0246582,220.3105469 L283.8371582,220.3105469 C283.0845337,221.3066406 282.1382446,222.3414612 280.998291,223.4150391 C280.7547913,223.1051331 280.4836426,222.8284454 280.1848145,222.5849609 Z M289.6975098,218.5009766 C289.7971191,218.7998047 289.9077759,219.0820313 290.029541,219.3476563 L295.0598145,219.3476563 L295.0598145,220.3603516 C294.2850647,221.2900391 293.4605103,222.1975861 292.5861816,223.0830078 C293.6486816,224.0901642 294.927002,224.9036407 296.4211426,225.5234375 C296.1555176,225.8222656 295.873291,226.1875 295.5744629,226.6191406 C292.0881348,224.815094 289.7860413,222.2473907 288.6682129,218.9160156 Z M280.7492676,216.4921875 L287.904541,216.4921875 C287.7163696,216.1601563 287.4950256,215.7949219 287.2404785,215.3964844 L288.4191895,214.8154297 C288.817627,215.4020081 289.1607056,215.9609375 289.4484863,216.4921875 L295.989502,216.4921875 L295.989502,219.0322266 L294.7277832,219.0322266 L294.7277832,217.6210938 L282.0109863,217.6210938 L282.0109863,219.0322266 L280.7492676,219.0322266 Z M283.123291,225.9882813 L293.8479004,225.9882813 L293.8479004,227.0839844 L289.2658691,227.0839844 L289.2658691,229.0263672 C289.2658691,230.3655548 288.6460571,231.0351563 287.4064941,231.0351563 C286.8862915,231.0351563 286.2277832,231.0296173 285.4309082,231.0185547 C285.364502,230.5647736 285.2814941,230.1331329 285.1818848,229.7236328 C285.9234009,229.7900391 286.532135,229.8232422 287.0080566,229.8232422 C287.6721191,229.8232422 288.0041504,229.4746094 288.0041504,228.7773438 L288.0041504,227.0839844 L283.123291,227.0839844 Z M290.7268066,228.6611328 L291.3410645,227.6816406 C292.9348145,228.3235626 294.4455566,228.9931641 295.873291,229.6904297 L295.1760254,230.8027344 C293.6376038,229.9947815 292.154541,229.2809143 290.7268066,228.6611328 Z M284.9494629,227.5986328 L285.6965332,228.5947266 C284.2245178,229.4026642 282.7359009,230.1441956 281.2307129,230.8193359 C281.0646973,230.4541016 280.8377991,230.0777893 280.5500488,229.6904297 C281.9445801,229.1813049 283.4110413,228.4840393 284.9494629,227.5986328 Z M285.9123535,223.5644531 L291.2912598,223.5644531 L291.2912598,224.6601563 L285.9123535,224.6601563 Z M293.598877,220.34375 L290.5109863,220.34375 C290.8983459,221.0520782 291.3465881,221.7050781 291.8557129,222.3027344 C292.4865723,221.6497345 293.067627,220.9967346 293.598877,220.34375 Z" style="fill:rgb(81,81,81);stroke:none" clip-path="url(#clip55)" />
</svg>
